<svg width="21" height="22" viewBox="0 0 21 22" fill="none" xmlns="http://www.w3.org/2000/svg">
<path d="M9.16666 21.9999C7.39749 21.9999 5.95833 20.5608 5.95833 18.7916C5.95833 18.5386 6.16366 18.3333 6.41666 18.3333C6.66966 18.3333 6.87499 18.5386 6.87499 18.7916C6.87499 20.0548 7.90258 21.0833 9.16666 21.0833C10.4307 21.0833 11.4583 20.0548 11.4583 18.7916C11.4583 18.5386 11.6637 18.3333 11.9167 18.3333C12.1697 18.3333 12.375 18.5386 12.375 18.7916C12.375 20.5608 10.9358 21.9999 9.16666 21.9999Z" fill="#6092DC"/>
<path d="M1.37501 19.25H16.9583C17.7164 19.25 18.3333 18.6331 18.3333 17.875C18.3333 17.4726 18.1583 17.0922 17.853 16.83C17.8338 16.8135 17.8127 16.7988 17.7916 16.786C16.3873 15.5668 15.5833 13.8087 15.5833 11.9533V9.16666C15.5833 5.62833 12.7041 2.75 9.16668 2.75C9.09334 2.75 9.00443 2.75275 8.93109 2.76742C8.68268 2.816 8.52134 3.05708 8.56993 3.3055C8.61759 3.55392 8.85959 3.71525 9.10893 3.66667C12.1999 3.66667 14.6667 6.13433 14.6667 9.16666V11.9533C14.6667 14.1011 15.6072 16.1324 17.2471 17.5276C17.2618 17.5395 17.2764 17.5514 17.2929 17.5615C17.3718 17.6458 17.4167 17.7577 17.4167 17.875C17.4167 18.128 17.2104 18.3333 16.9583 18.3333H1.37501C1.12292 18.3333 0.916674 18.128 0.916674 17.875C0.916674 17.7577 0.96159 17.6449 1.04226 17.5606C1.05784 17.5505 1.07159 17.5395 1.08626 17.5276C2.72617 16.1324 3.66667 14.1011 3.66667 11.9533V10.9725C3.66667 10.7195 3.46134 10.5142 3.20834 10.5142C2.95534 10.5142 2.75001 10.7195 2.75001 10.9725V11.9533C2.75001 13.8105 1.94518 15.5687 0.539925 16.7878C0.518841 16.8007 0.498674 16.8144 0.481256 16.83C0.175091 17.0922 7.62939e-06 17.4726 7.62939e-06 17.875C7.62939e-06 18.6331 0.616924 19.25 1.37501 19.25Z" fill="#6092DC"/>
<path d="M16.9583 19.25H1.375C0.616917 19.25 0 18.6331 0 17.875C0 17.4726 0.175083 17.0922 0.480333 16.83C0.499583 16.8135 0.520667 16.7988 0.54175 16.786C1.94608 15.5668 2.75 13.8087 2.75 11.9533V9.16666C2.75 5.62833 5.62925 2.75 9.16667 2.75C9.24 2.75 9.32892 2.75275 9.40225 2.76742C9.65067 2.816 9.812 3.05708 9.76342 3.3055C9.71575 3.55392 9.47375 3.71525 9.22442 3.66667C6.13342 3.66667 3.66667 6.13433 3.66667 9.16666V11.9533C3.66667 14.1011 2.72617 16.1324 1.08625 17.5276C1.07158 17.5395 1.05692 17.5514 1.04042 17.5615C0.961583 17.6458 0.916667 17.7577 0.916667 17.875C0.916667 18.128 1.12292 18.3333 1.375 18.3333H16.9583C17.2104 18.3333 17.4167 18.128 17.4167 17.875C17.4167 17.7577 17.3718 17.6449 17.2911 17.5606C17.2755 17.5505 17.2618 17.5395 17.2471 17.5276C15.6072 16.1324 14.6667 14.1011 14.6667 11.9533V10.9725C14.6667 10.7195 14.872 10.5142 15.125 10.5142C15.378 10.5142 15.5833 10.7195 15.5833 10.9725V11.9533C15.5833 13.8105 16.3882 15.5687 17.7934 16.7878C17.8145 16.8007 17.8347 16.8144 17.8521 16.83C18.1583 17.0922 18.3333 17.4726 18.3333 17.875C18.3333 18.6331 17.7164 19.25 16.9583 19.25Z" fill="#6092DC"/>
</svg>
