<svg width="19" height="18" viewBox="0 0 19 18" fill="none" xmlns="http://www.w3.org/2000/svg">
<path d="M3.79429 18.0001C3.04416 18.0009 2.31064 17.7792 1.68663 17.3629C1.06261 16.9466 0.576173 16.3545 0.288909 15.6616C0.00164451 14.9686 -0.0735201 14.206 0.0729339 13.4703C0.219388 12.7347 0.580872 12.059 1.11161 11.5289L3.2268 9.41368C3.82912 8.80805 4.6189 8.42439 5.46729 8.32531C6.31568 8.22623 7.1726 8.41757 7.89827 8.86812L7.62768 9.30663C7.0006 8.91763 6.26023 8.75256 5.5273 8.83833C4.79437 8.92411 4.11211 9.25566 3.5918 9.77894L1.47661 11.8941C0.870011 12.5102 0.531525 13.341 0.534934 14.2056C0.538342 15.0701 0.883368 15.8982 1.4948 16.5095C2.10624 17.1207 2.9345 17.4655 3.79905 17.4686C4.6636 17.4717 5.49433 17.1329 6.11016 16.5261L8.22535 14.4109C8.74858 13.8906 9.08009 13.2083 9.16582 12.4754C9.25155 11.7425 9.08643 11.0021 8.6974 10.3751L9.13592 10.1042C9.5861 10.8301 9.77713 11.687 9.67787 12.5353C9.57861 13.3837 9.19491 14.1734 8.58932 14.7757L6.47413 16.8909C6.12246 17.2431 5.7047 17.5224 5.24482 17.7127C4.78494 17.9031 4.292 18.0007 3.79429 18.0001Z" fill="white"/>
<path d="M3.7943 16.3698C3.36677 16.3702 2.94875 16.2437 2.59316 16.0064C2.23757 15.769 1.96041 15.4315 1.79679 15.0365C1.63316 14.6415 1.59042 14.2068 1.67399 13.7876C1.75755 13.3683 1.96366 12.9832 2.26621 12.6812L4.3814 10.566C4.66915 10.2749 5.03436 10.0725 5.43369 9.98274C5.83301 9.89299 6.24971 9.91966 6.63433 10.0596L6.46047 10.5453C6.16779 10.4388 5.85071 10.4185 5.54685 10.4869C5.24298 10.5552 4.96509 10.7092 4.74614 10.9307L2.63095 13.0459C2.32244 13.3544 2.14912 13.7728 2.14912 14.2091C2.14912 14.6454 2.32244 15.0638 2.63095 15.3723C2.93946 15.6808 3.35788 15.8542 3.79417 15.8542C4.23047 15.8542 4.64889 15.6808 4.9574 15.3723L7.07259 13.2572C7.22575 13.1047 7.34718 12.9235 7.42984 12.7238C7.5125 12.5242 7.55477 12.3101 7.55418 12.0941C7.55474 11.9066 7.52235 11.7206 7.45848 11.5444L7.94317 11.3674C8.02771 11.6003 8.07067 11.8463 8.07008 12.0941C8.07085 12.3779 8.01532 12.6591 7.90671 12.9213C7.7981 13.1836 7.63856 13.4217 7.43733 13.6219L5.32214 15.7371C5.12171 15.938 4.88355 16.0973 4.62136 16.2059C4.35916 16.3145 4.07809 16.3702 3.7943 16.3698Z" fill="white"/>
<path d="M12.1575 9.64397C11.4534 9.64357 10.7634 9.44706 10.1648 9.07648L10.4354 8.63796C11.0625 9.02682 11.8029 9.19181 12.5358 9.10605C13.2687 9.02028 13.9509 8.68881 14.4713 8.16566L16.5865 6.05047C17.2008 5.43602 17.5459 4.60269 17.5458 3.7338C17.5458 2.86491 17.2005 2.03164 16.5861 1.4173C15.9716 0.802952 15.1383 0.457857 14.2694 0.45793C13.4005 0.458002 12.5673 0.803236 11.9529 1.41768L9.83774 3.53287C9.31467 4.05322 8.98329 4.73541 8.89761 5.46822C8.81193 6.20104 8.97702 6.94127 9.36595 7.56824L8.92743 7.83909C8.47725 7.11324 8.28622 6.2563 8.38548 5.40796C8.48474 4.55963 8.86844 3.76993 9.47403 3.16762L11.5892 1.05243C12.3054 0.366985 13.2616 -0.0107165 14.2529 0.000231526C15.2442 0.0111796 16.1917 0.409906 16.8926 1.111C17.5935 1.81209 17.992 2.75979 18.0026 3.75108C18.0133 4.74238 17.6353 5.69843 16.9497 6.41443L14.8345 8.52962C14.4835 8.88233 14.0664 9.16232 13.607 9.35354C13.1476 9.54476 12.6551 9.64345 12.1575 9.64397Z" fill="white"/>
<path d="M12.1642 8.01185C11.9138 8.01145 11.6654 7.96782 11.4298 7.88288L11.6037 7.39716C11.8964 7.50342 12.2135 7.52357 12.5173 7.45522C12.8211 7.38688 13.099 7.2329 13.318 7.01152L15.4332 4.89633C15.5895 4.74435 15.7141 4.56282 15.7996 4.36228C15.8851 4.16174 15.9299 3.9462 15.9314 3.72819C15.9329 3.51018 15.891 3.29405 15.8083 3.09236C15.7255 2.89067 15.6034 2.70745 15.4492 2.55335C15.295 2.39925 15.1117 2.27735 14.9099 2.19472C14.7082 2.1121 14.492 2.0704 14.274 2.07206C14.056 2.07372 13.8405 2.1187 13.64 2.20438C13.4395 2.29006 13.2581 2.41474 13.1062 2.57117L10.991 4.68636C10.8378 4.83874 10.7163 5.02 10.6336 5.21964C10.5509 5.41929 10.5086 5.63336 10.5092 5.84946C10.5087 6.03682 10.5411 6.2228 10.6052 6.39889L10.1205 6.5761C10.0358 6.34322 9.99274 6.09726 9.99329 5.84946C9.99255 5.56559 10.0481 5.28439 10.1568 5.02213C10.2654 4.75988 10.425 4.52178 10.6263 4.32162L12.7415 2.20643C12.9416 2.00319 13.1799 1.84157 13.4428 1.73089C13.7056 1.62021 13.9878 1.56265 14.273 1.56154C14.5582 1.56043 14.8407 1.61579 15.1044 1.72442C15.3681 1.83305 15.6077 1.99281 15.8094 2.19449C16.011 2.39616 16.1708 2.63576 16.2794 2.89946C16.388 3.16317 16.4433 3.44577 16.4422 3.73097C16.4411 4.01616 16.3835 4.29831 16.2728 4.56115C16.1621 4.82398 16.0004 5.0623 15.7972 5.26236L13.682 7.37755C13.4833 7.57813 13.2469 7.73743 12.9864 7.84629C12.726 7.95515 12.4465 8.01141 12.1642 8.01185Z" fill="white"/>
<path d="M6.77309 12.3037C6.56088 12.3038 6.35341 12.2409 6.17694 12.123C6.00046 12.0052 5.8629 11.8376 5.78167 11.6416C5.70043 11.4455 5.67916 11.2298 5.72056 11.0216C5.76195 10.8135 5.86414 10.6223 6.01421 10.4722L10.5312 5.95451C10.6299 5.85109 10.7484 5.76845 10.8796 5.71146C11.0108 5.65447 11.152 5.62427 11.295 5.62263C11.438 5.62099 11.5799 5.64795 11.7124 5.70193C11.8448 5.7559 11.9651 5.8358 12.0663 5.93693C12.1674 6.03806 12.2473 6.15838 12.3013 6.29083C12.3552 6.42327 12.3822 6.56517 12.3806 6.70818C12.3789 6.85119 12.3487 6.99243 12.2917 7.1236C12.2347 7.25478 12.1521 7.37324 12.0487 7.47203L7.53198 11.9898C7.43238 12.0895 7.31407 12.1685 7.18384 12.2224C7.05361 12.2763 6.91403 12.3039 6.77309 12.3037ZM11.2903 6.15648C11.2171 6.1563 11.1445 6.17064 11.0769 6.19867C11.0092 6.22669 10.9478 6.26785 10.8962 6.31976L6.37895 10.8365C6.27882 10.9419 6.22383 11.0823 6.22569 11.2277C6.22755 11.373 6.28612 11.512 6.38892 11.6148C6.49172 11.7176 6.63061 11.7762 6.776 11.7782C6.92139 11.7801 7.06178 11.7251 7.16724 11.625L11.6845 7.10806C11.7623 7.03005 11.8153 6.93074 11.8367 6.82265C11.8581 6.71457 11.8471 6.60256 11.8049 6.50075C11.7627 6.39895 11.6913 6.31192 11.5998 6.25065C11.5082 6.18938 11.4005 6.15661 11.2903 6.15648Z" fill="white"/>
</svg>
