<svg width="16" height="16" viewBox="0 0 16 16" fill="none" xmlns="http://www.w3.org/2000/svg">
<path d="M3.99997 0C3.68437 0 3.42853 0.255837 3.42853 0.571439L3.42853 1.71428L4.57138 1.71428L4.57138 0.571439C4.57138 0.255837 4.31554 0 3.99997 0Z" fill="#53586F"/>
<path d="M12 0C11.6844 0 11.4285 0.255837 11.4285 0.571439L11.4285 1.71428L12.5714 1.71428L12.5714 0.571439C12.5714 0.255837 12.3156 0 12 0Z" fill="#53586F"/>
<path d="M14.2857 1.71387L12.5714 1.71387L12.5714 3.99959C12.5714 4.31519 12.3156 4.57103 12 4.57103C11.6844 4.57103 11.4286 4.31519 11.4286 3.99959L11.4286 1.71387L4.57141 1.71387L4.57141 3.99959C4.57141 4.31519 4.31558 4.57103 3.99997 4.57103C3.68437 4.57103 3.42854 4.31519 3.42854 3.99959L3.42854 1.71387L1.71428 1.71387C0.767511 1.71387 0 2.48138 0 3.42815L0 14.2853C0 15.2321 0.767511 15.9996 1.71428 15.9996L14.2857 15.9996C15.2325 15.9996 16 15.2321 16 14.2853L16 3.42815C16 2.48138 15.2325 1.71387 14.2857 1.71387ZM14.8571 14.2853C14.8571 14.6009 14.6013 14.8567 14.2857 14.8567L1.71428 14.8567C1.39868 14.8567 1.14285 14.6009 1.14285 14.2853L1.14285 6.85672L14.8571 6.85672L14.8571 14.2853Z" fill="#53586F"/>
<path d="M4.57141 8L3.42856 8C3.11295 8 2.85712 8.25583 2.85712 8.57143C2.85712 8.88703 3.11295 9.14287 3.42856 9.14287L4.57141 9.14287C4.88701 9.14287 5.14285 8.88703 5.14285 8.57143C5.14285 8.25583 4.88701 8 4.57141 8Z" fill="#53586F"/>
<path d="M8.57141 8L7.42856 8C7.11295 8 6.85712 8.25583 6.85712 8.57143C6.85712 8.88703 7.11295 9.14287 7.42856 9.14287L8.57141 9.14287C8.88701 9.14287 9.14285 8.88703 9.14285 8.57143C9.14285 8.25583 8.88701 8 8.57141 8Z" fill="#53586F"/>
<path d="M12.5715 8L11.4286 8C11.113 8 10.8572 8.25583 10.8572 8.57143C10.8572 8.88703 11.113 9.14287 11.4286 9.14287L12.5715 9.14287C12.8871 9.14287 13.1429 8.88703 13.1429 8.57143C13.1429 8.25583 12.887 8 12.5715 8Z" fill="#53586F"/>
<path d="M4.57141 10.2856L3.42856 10.2856C3.11295 10.2856 2.85712 10.5415 2.85712 10.8571C2.85712 11.1727 3.11295 11.4285 3.42856 11.4285L4.57141 11.4285C4.88701 11.4285 5.14285 11.1727 5.14285 10.8571C5.14285 10.5415 4.88701 10.2856 4.57141 10.2856Z" fill="#53586F"/>
<path d="M8.57141 10.2856L7.42856 10.2856C7.11295 10.2856 6.85712 10.5415 6.85712 10.8571C6.85712 11.1727 7.11295 11.4285 7.42856 11.4285L8.57141 11.4285C8.88701 11.4285 9.14285 11.1727 9.14285 10.8571C9.14285 10.5415 8.88701 10.2856 8.57141 10.2856Z" fill="#53586F"/>
<path d="M12.5715 10.2856L11.4286 10.2856C11.113 10.2856 10.8572 10.5415 10.8572 10.8571C10.8572 11.1727 11.113 11.4285 11.4286 11.4285L12.5715 11.4285C12.8871 11.4285 13.1429 11.1727 13.1429 10.8571C13.1429 10.5415 12.887 10.2856 12.5715 10.2856Z" fill="#53586F"/>
<path d="M4.57141 12.5713L3.42856 12.5713C3.11295 12.5713 2.85712 12.8271 2.85712 13.1427C2.85712 13.4583 3.11295 13.7141 3.42856 13.7141L4.57141 13.7141C4.88701 13.7141 5.14285 13.4583 5.14285 13.1427C5.14285 12.8271 4.88701 12.5713 4.57141 12.5713Z" fill="#53586F"/>
<path d="M8.57141 12.5713L7.42856 12.5713C7.11295 12.5713 6.85712 12.8271 6.85712 13.1427C6.85712 13.4583 7.11295 13.7142 7.42856 13.7142L8.57141 13.7142C8.88701 13.7142 9.14285 13.4583 9.14285 13.1427C9.14285 12.8271 8.88701 12.5713 8.57141 12.5713Z" fill="#53586F"/>
<path d="M12.5715 12.5713L11.4286 12.5713C11.113 12.5713 10.8572 12.8271 10.8572 13.1427C10.8572 13.4583 11.113 13.7142 11.4286 13.7142L12.5715 13.7142C12.8871 13.7142 13.1429 13.4583 13.1429 13.1427C13.1429 12.8271 12.887 12.5713 12.5715 12.5713Z" fill="#53586F"/>
</svg>
