<svg width="17" height="17" viewBox="0 0 17 17" fill="none" xmlns="http://www.w3.org/2000/svg">
<path d="M9.43893 8.50101L16.8053 1.13464C17.0646 0.875288 17.0646 0.454805 16.8053 0.195488C16.5459 -0.0638276 16.1254 -0.0638608 15.8661 0.195488L8.49974 7.56186L1.13342 0.195488C0.874067 -0.0638608 0.453583 -0.0638608 0.194268 0.195488C-0.0650482 0.454838 -0.0650814 0.875322 0.194268 1.13464L7.5606 8.50097L0.194268 15.8673C-0.0650814 16.1267 -0.0650814 16.5472 0.194268 16.8065C0.323926 16.9361 0.493892 17.001 0.663858 17.001C0.833825 17.001 1.00376 16.9361 1.13345 16.8065L8.49974 9.44016L15.8661 16.8065C15.9957 16.9361 16.1657 17.001 16.3357 17.001C16.5056 17.001 16.6756 16.9361 16.8053 16.8065C17.0646 16.5471 17.0646 16.1267 16.8053 15.8673L9.43893 8.50101Z" fill="white"/>
</svg>
