<svg width="47" height="34" viewBox="0 0 47 34" fill="none" xmlns="http://www.w3.org/2000/svg">
<path d="M37.8611 11.7115C37.2325 5.14423 31.6621 0 24.8829 0C19.6607 0 15.1638 3.03846 13.0846 7.43269C12.3883 7.17308 11.6339 7.03846 10.8603 7.03846C7.26275 7.03846 4.35185 9.93269 4.35185 13.5096C4.35185 14.2885 4.48724 15.0385 4.74835 15.7308C1.91481 17.375 0 20.4423 0 23.9423C0 29.0192 4.01337 33.7019 9.05185 33.9808H17.8523H19.9025V23.8462H15.2411C14.2934 23.8462 13.8099 22.7115 14.4675 22.0385L22.7263 13.5865C23.1518 13.1538 23.8481 13.1538 24.264 13.5865L32.5228 22.0385C33.1804 22.7115 32.7066 23.8462 31.7492 23.8462H27.0879V34H29.1284H36.7296C42.4644 33.5962 47 28.5865 47 22.7981C47.0097 17.3846 43.0543 12.5962 37.8611 11.7115Z" fill="white"/>
</svg>
