<svg width="18" height="18" viewBox="0 0 18 18" fill="none" xmlns="http://www.w3.org/2000/svg">
<path d="M17.9292 16.3004L16.6935 12.7042C17.2878 11.5027 17.6022 10.1636 17.6043 8.81613C17.6079 6.49575 16.7101 4.30169 15.0762 2.63824C13.4421 0.974472 11.2646 0.0379818 8.9448 0.00117326C7.72942 -0.0183384 6.55007 0.205606 5.43773 0.666047C4.36487 1.11018 3.40275 1.7535 2.57813 2.57812C1.75347 3.40275 1.11014 4.36486 0.666051 5.43773C0.20561 6.55007 -0.0180883 7.73001 0.0011421 8.9448C0.0378803 11.2646 0.974406 13.4421 2.63817 15.0763C4.29839 16.7069 6.48679 17.6044 8.80218 17.6044C8.80671 17.6044 8.81149 17.6044 8.81603 17.6044C10.1635 17.6023 11.5026 17.2879 12.7041 16.6936L16.3003 17.9293C16.4386 17.9768 16.5804 18 16.7206 18C17.0536 18 17.3776 17.8691 17.6233 17.6234C17.9724 17.2743 18.0896 16.7674 17.9292 16.3004ZM16.8687 16.8688C16.8333 16.9042 16.7575 16.9579 16.6471 16.92L12.8363 15.6106C12.78 15.5913 12.7214 15.5816 12.663 15.5816C12.5768 15.5816 12.4911 15.6025 12.4134 15.6436C11.3121 16.2262 10.0676 16.5352 8.81434 16.5371C4.61142 16.5439 1.13475 13.1301 1.06817 8.92789C1.03466 6.81363 1.8389 4.82657 3.33272 3.33275C4.82654 1.83896 6.813 1.03487 8.92786 1.0683C13.1301 1.13492 16.5436 4.60987 16.537 8.81448C16.5351 10.0677 16.2261 11.3123 15.6435 12.4135C15.5745 12.5439 15.5626 12.697 15.6105 12.8364L16.9199 16.6472C16.9578 16.7575 16.9041 16.8334 16.8687 16.8688Z" fill="white"/>
<path d="M8.71521 12.7529C8.4361 12.7529 8.1687 12.9984 8.1816 13.2865C8.19454 13.5756 8.41606 13.8201 8.71521 13.8201C8.99432 13.8201 9.26172 13.5747 9.24882 13.2865C9.23588 12.9974 9.01436 12.7529 8.71521 12.7529Z" fill="white"/>
<path d="M8.71537 4.48828C7.2515 4.48828 6.06055 5.67923 6.06055 7.1431C6.06055 7.43778 6.29947 7.6767 6.59415 7.6767C6.88883 7.6767 7.12775 7.43778 7.12775 7.1431C7.12775 6.26771 7.83998 5.55548 8.71537 5.55548C9.59076 5.55548 10.303 6.26771 10.303 7.1431C10.303 8.01849 9.59076 8.73072 8.71537 8.73072C8.42069 8.73072 8.18177 8.96964 8.18177 9.26432V11.4407C8.18177 11.7353 8.42069 11.9743 8.71537 11.9743C9.01005 11.9743 9.24898 11.7354 9.24898 11.4406V9.74402C10.458 9.49635 11.3702 8.42426 11.3702 7.1431C11.3702 5.67923 10.1792 4.48828 8.71537 4.48828Z" fill="white"/>
</svg>
