<svg width="21" height="22" viewBox="0 0 21 22" fill="none" xmlns="http://www.w3.org/2000/svg">
<path d="M9.16664 22.0002C7.39748 22.0002 5.95831 20.561 5.95831 18.7918C5.95831 18.5388 6.16365 18.3335 6.41665 18.3335C6.66965 18.3335 6.87498 18.5388 6.87498 18.7918C6.87498 20.055 7.90256 21.0835 9.16664 21.0835C10.4307 21.0835 11.4583 20.055 11.4583 18.7918C11.4583 18.5388 11.6636 18.3335 11.9166 18.3335C12.1696 18.3335 12.375 18.5388 12.375 18.7918C12.375 20.561 10.9358 22.0002 9.16664 22.0002Z" fill="#53586F"/>
<path d="M16.9583 19.25H1.375C0.616917 19.25 0 18.6331 0 17.875C0 17.4726 0.175083 17.0922 0.480333 16.83C0.499583 16.8135 0.520667 16.7988 0.54175 16.786C1.94608 15.5668 2.75 13.8087 2.75 11.9533V9.16666C2.75 5.62833 5.62925 2.75 9.16667 2.75C9.24 2.75 9.32892 2.75275 9.40225 2.76742C9.65067 2.816 9.812 3.05708 9.76342 3.3055C9.71575 3.55392 9.47375 3.71525 9.22442 3.66667C6.13342 3.66667 3.66667 6.13433 3.66667 9.16666V11.9533C3.66667 14.1011 2.72617 16.1324 1.08625 17.5276C1.07158 17.5395 1.05692 17.5514 1.04042 17.5615C0.961583 17.6458 0.916667 17.7577 0.916667 17.875C0.916667 18.128 1.12292 18.3333 1.375 18.3333H16.9583C17.2104 18.3333 17.4167 18.128 17.4167 17.875C17.4167 17.7577 17.3718 17.6449 17.2911 17.5606C17.2755 17.5505 17.2618 17.5395 17.2471 17.5276C15.6072 16.1324 14.6667 14.1011 14.6667 11.9533V10.9725C14.6667 10.7195 14.872 10.5142 15.125 10.5142C15.378 10.5142 15.5833 10.7195 15.5833 10.9725V11.9533C15.5833 13.8105 16.3882 15.5687 17.7934 16.7878C17.8145 16.8007 17.8347 16.8144 17.8521 16.83C18.1583 17.0922 18.3333 17.4726 18.3333 17.875C18.3333 18.6331 17.7164 19.25 16.9583 19.25Z" fill="#53586F"/>
<path d="M15.5833 9.16666C13.0561 9.16666 11 7.11058 11 4.58333C11 2.05608 13.0561 0 15.5833 0C18.1106 0 20.1667 2.05608 20.1667 4.58333C20.1667 7.11058 18.1106 9.16666 15.5833 9.16666ZM15.5833 0.916666C13.5612 0.916666 11.9167 2.56117 11.9167 4.58333C11.9167 6.6055 13.5612 8.25 15.5833 8.25C17.6055 8.25 19.25 6.6055 19.25 4.58333C19.25 2.56117 17.6055 0.916666 15.5833 0.916666Z" fill="#53586F"/>
</svg>
