<svg width="32" height="32" viewBox="0 0 32 32" fill="none" xmlns="http://www.w3.org/2000/svg">
<path d="M0.5 16C0.5 7.45339 7.45339 0.5 16 0.5C24.5466 0.5 31.5 7.45339 31.5 16C31.5 24.5466 24.5466 31.5 16 31.5C7.45339 31.5 0.5 24.5466 0.5 16Z" fill="#6092DC" stroke="#6092DC"/>
<path d="M24.1091 12.6093L15.4424 21.2758C15.1824 21.5358 14.8411 21.6666 14.4998 21.6666C14.1584 21.6666 13.8171 21.5358 13.5571 21.2758L9.22388 16.9425C8.70239 16.4213 8.70239 15.5785 9.22388 15.0573C9.74512 14.5358 10.5876 14.5358 11.1091 15.0573L14.4998 18.4479L22.2239 10.724C22.7451 10.2025 23.5876 10.2025 24.1091 10.724C24.6304 11.2452 24.6304 12.0878 24.1091 12.6093Z" fill="#FAFAFA"/>
</svg>
