<svg width="16" height="16" viewBox="0 0 16 16" fill="none" xmlns="http://www.w3.org/2000/svg">
<path d="M14.7674 9.9897C14.5473 9.9897 14.3689 10.1681 14.3689 10.3882V13.9263C14.3681 14.5863 13.8334 15.1211 13.1734 15.1217H1.99241C1.33243 15.1211 0.797744 14.5863 0.796966 13.9263V3.54222C0.797744 2.88239 1.33243 2.34755 1.99241 2.34677H5.53051C5.75061 2.34677 5.92899 2.16839 5.92899 1.94829C5.92899 1.72834 5.75061 1.5498 5.53051 1.5498H1.99241C0.892539 1.55105 0.00124526 2.44234 0 3.54222V13.9264C0.00124526 15.0263 0.892539 15.9176 1.99241 15.9188H13.1734C14.2733 15.9176 15.1646 15.0263 15.1659 13.9264V10.3882C15.1659 10.1681 14.9875 9.9897 14.7674 9.9897Z" fill="#6092DC"/>
<path d="M15.008 0.525227C14.3077 -0.175076 13.1724 -0.175076 12.472 0.525227L5.36285 7.63441C5.31413 7.68313 5.27895 7.74353 5.26058 7.80984L4.3257 11.185C4.28725 11.3233 4.32632 11.4715 4.42781 11.5732C4.52945 11.6747 4.67764 11.7137 4.81602 11.6754L8.19115 10.7404C8.25746 10.722 8.31785 10.6869 8.36657 10.6381L15.4756 3.52879C16.1748 2.82802 16.1748 1.69359 15.4756 0.992822L15.008 0.525227ZM6.2311 7.89343L12.0494 2.07495L13.9259 3.9514L8.1074 9.76988L6.2311 7.89343ZM5.85628 8.64556L7.35542 10.1449L5.28175 10.7194L5.85628 8.64556ZM14.9121 2.96531L14.4895 3.38792L12.6129 1.51132L13.0357 1.08871C13.4247 0.699719 14.0554 0.699719 14.4444 1.08871L14.9121 1.5563C15.3005 1.94576 15.3005 2.57601 14.9121 2.96531Z" fill="#6092DC"/>
</svg>
