<svg width="70" height="52" viewBox="0 0 70 52" fill="none" xmlns="http://www.w3.org/2000/svg">
<path d="M37.6732 21.6723C38.244 21.53 38.8006 21.3424 39.3398 21.1105C39.4183 21.0767 39.4688 20.9988 39.4688 20.9132V16.3711C39.4688 16.2525 39.3725 16.1562 39.2539 16.1562H37.6211C37.5025 16.1562 37.4062 16.2525 37.4062 16.3711V21.4634C37.4063 21.6032 37.5376 21.7061 37.6732 21.6723Z" fill="#53586F"/>
<path d="M46 11C46 9.74385 45.7925 8.52483 45.3837 7.36128C45.3536 7.2756 45.2719 7.21875 45.1811 7.21875H24.8189C24.7281 7.21875 24.6464 7.2756 24.6163 7.36128C24.2075 8.52474 24 9.74381 24 11C24 12.2561 24.2075 13.4752 24.6163 14.6387C24.6464 14.7244 24.7281 14.7812 24.8189 14.7812H45.1811C45.2719 14.7812 45.3536 14.7244 45.3837 14.6387C45.7925 13.4753 46 12.2562 46 11ZM31.5625 11.6875C31.5625 12.8248 30.6373 13.75 29.5 13.75C28.3627 13.75 27.4375 12.8248 27.4375 11.6875V8.9375C27.4375 8.55783 27.7453 8.25 28.125 8.25C28.5047 8.25 28.8125 8.55783 28.8125 8.9375V11.6875C28.8125 12.0666 29.1209 12.375 29.5 12.375C29.8791 12.375 30.1875 12.0666 30.1875 11.6875V8.9375C30.1875 8.55783 30.4953 8.25 30.875 8.25C31.2547 8.25 31.5625 8.55783 31.5625 8.9375V11.6875ZM34.6562 10.3125H35.3438C36.2915 10.3125 37.0625 11.0835 37.0625 12.0312C37.0625 12.979 36.2915 13.75 35.3438 13.75H33.625C33.2453 13.75 32.9375 13.4422 32.9375 13.0625C32.9375 12.6828 33.2453 12.375 33.625 12.375H35.3438C35.5333 12.375 35.6875 12.2208 35.6875 12.0312C35.6875 11.8417 35.5333 11.6875 35.3438 11.6875H34.6562C33.7085 11.6875 32.9375 10.9165 32.9375 9.96875C32.9375 9.02103 33.7085 8.25 34.6562 8.25H36.375C36.7547 8.25 37.0625 8.55783 37.0625 8.9375C37.0625 9.31717 36.7547 9.625 36.375 9.625H34.6562C34.4667 9.625 34.3125 9.77921 34.3125 9.96875C34.3125 10.1583 34.4667 10.3125 34.6562 10.3125ZM41.8418 13.7492C41.472 13.7318 41.1875 13.4133 41.1875 13.0431V12.5898C41.1875 12.4712 41.0913 12.375 40.9727 12.375H40.0273C39.9087 12.375 39.8125 12.4712 39.8125 12.5898V13.0431C39.8125 13.4133 39.528 13.7318 39.1582 13.7492C38.7634 13.7678 38.4375 13.4532 38.4375 13.0625V10.3471C38.4375 9.2177 39.331 8.27174 40.4602 8.25034C41.6156 8.22847 42.5625 9.16201 42.5625 10.3125V13.0625C42.5625 13.4532 42.2366 13.7678 41.8418 13.7492Z" fill="#53586F"/>
<path d="M30.6602 21.1104C31.1995 21.3423 31.7561 21.53 32.3269 21.6722C32.4624 21.706 32.5938 21.6031 32.5938 21.4634V16.3711C32.5938 16.2525 32.4975 16.1562 32.3789 16.1562H30.7461C30.6275 16.1562 30.5312 16.2525 30.5312 16.3711V20.9132C30.5313 20.9987 30.5817 21.0767 30.6602 21.1104Z" fill="#53586F"/>
<path d="M40.4654 9.62586C40.0961 9.64408 39.8125 9.96269 39.8125 10.3324V10.7852C39.8125 10.9038 39.9087 11 40.0273 11H40.9727C41.0913 11 41.1875 10.9038 41.1875 10.7852V10.3125C41.1875 9.92191 40.8601 9.60635 40.4654 9.62586Z" fill="#53586F"/>
<path d="M35.8164 16.1562H34.1836C34.065 16.1562 33.9688 16.2525 33.9688 16.3711V21.7538C33.9688 21.8666 34.056 21.9598 34.1685 21.9683C34.4452 21.9892 34.7229 22 35 22C35.2771 22 35.5548 21.9892 35.8315 21.9683C35.944 21.9598 36.0312 21.8666 36.0312 21.7538V16.3711C36.0312 16.2525 35.935 16.1562 35.8164 16.1562Z" fill="#53586F"/>
<path d="M28.9416 16.1562H25.6448C25.4789 16.1562 25.3766 16.3356 25.4593 16.4795C26.2916 17.9289 27.4358 19.162 28.8199 20.1013C28.963 20.1984 29.1564 20.0968 29.1564 19.9239V16.3711C29.1564 16.2525 29.0602 16.1562 28.9416 16.1562Z" fill="#53586F"/>
<path d="M44.3549 5.84375C44.5207 5.84375 44.6232 5.66427 44.5405 5.5205C43.661 3.9915 42.4254 2.69264 40.9307 1.73418C39.1616 0.599672 37.1108 0 35.0001 0C32.8895 0 30.8387 0.599672 29.0696 1.73418C27.575 2.69259 26.3395 3.99137 25.4598 5.5205C25.3771 5.66427 25.4796 5.84375 25.6455 5.84375H44.3549ZM39.1251 3.4375C39.5049 3.4375 39.8126 3.74529 39.8126 4.125C39.8126 4.50471 39.5049 4.8125 39.1251 4.8125C38.7454 4.8125 38.4376 4.50471 38.4376 4.125C38.4376 3.74529 38.7454 3.4375 39.1251 3.4375ZM35.0001 2.75C35.3799 2.75 35.6876 3.05779 35.6876 3.4375C35.6876 3.81721 35.3799 4.125 35.0001 4.125C34.6204 4.125 34.3126 3.81721 34.3126 3.4375C34.3126 3.05779 34.6204 2.75 35.0001 2.75ZM30.8751 3.4375C31.2549 3.4375 31.5626 3.74529 31.5626 4.125C31.5626 4.50471 31.2549 4.8125 30.8751 4.8125C30.4954 4.8125 30.1876 4.50471 30.1876 4.125C30.1876 3.74529 30.4954 3.4375 30.8751 3.4375Z" fill="#53586F"/>
<path d="M40.8438 16.3711V19.9239C40.8438 20.0968 41.0372 20.1984 41.1802 20.1013C42.5643 19.162 43.7084 17.929 44.5408 16.4795C44.6235 16.3356 44.5211 16.1562 44.3553 16.1562H41.0586C40.94 16.1562 40.8438 16.2525 40.8438 16.3711Z" fill="#53586F"/>
<path d="M6.70083 29.564C7.70616 29.564 8.49916 29.8023 9.07983 30.279C9.6605 30.747 9.95083 31.4013 9.95083 32.242C9.95083 33.0827 9.65616 33.7413 9.06683 34.218C8.48616 34.6947 7.6975 34.933 6.70083 34.933H5.12783V37H3.48983V29.564H6.70083ZM6.58383 33.607C7.14716 33.607 7.57183 33.49 7.85783 33.256C8.1525 33.022 8.29983 32.684 8.29983 32.242C8.29983 31.8 8.1525 31.4663 7.85783 31.241C7.57183 31.007 7.14716 30.89 6.58383 30.89H5.12783V33.607H6.58383ZM16.1116 37L14.6166 34.894H14.4866H12.9136V37H11.2756V29.564H14.4866C15.4919 29.564 16.2849 29.8023 16.8656 30.279C17.4463 30.747 17.7366 31.4013 17.7366 32.242C17.7366 32.7967 17.6023 33.2777 17.3336 33.685C17.0649 34.0837 16.6793 34.387 16.1766 34.595L17.8796 37H16.1116ZM16.0856 32.242C16.0856 31.8 15.9383 31.4663 15.6436 31.241C15.3576 31.007 14.9329 30.89 14.3696 30.89H12.9136V33.607H14.3696C14.9329 33.607 15.3576 33.49 15.6436 33.256C15.9383 33.022 16.0856 32.684 16.0856 32.242ZM22.647 37.13C21.8756 37.13 21.178 36.9653 20.554 36.636C19.93 36.298 19.4403 35.8387 19.085 35.258C18.7296 34.6687 18.552 34.01 18.552 33.282C18.552 32.554 18.7296 31.8997 19.085 31.319C19.4403 30.7297 19.93 30.2703 20.554 29.941C21.178 29.6117 21.8756 29.447 22.647 29.447C23.427 29.447 24.129 29.6117 24.753 29.941C25.377 30.2703 25.8666 30.7297 26.222 31.319C26.5773 31.8997 26.755 32.554 26.755 33.282C26.755 34.01 26.5773 34.6687 26.222 35.258C25.8666 35.8387 25.377 36.298 24.753 36.636C24.129 36.9653 23.427 37.13 22.647 37.13ZM22.647 35.739C23.115 35.739 23.5353 35.635 23.908 35.427C24.2806 35.2103 24.571 34.9157 24.779 34.543C24.987 34.1703 25.091 33.75 25.091 33.282C25.091 32.814 24.987 32.3937 24.779 32.021C24.571 31.6483 24.2806 31.358 23.908 31.15C23.5353 30.942 23.115 30.838 22.647 30.838C22.1876 30.838 21.7716 30.9463 21.399 31.163C21.0263 31.371 20.7316 31.6613 20.515 32.034C20.307 32.398 20.203 32.814 20.203 33.282C20.203 33.75 20.307 34.1703 20.515 34.543C20.7316 34.9157 21.0263 35.2103 21.399 35.427C21.7716 35.635 22.1876 35.739 22.647 35.739ZM28.0024 29.564H31.3694C32.2014 29.564 32.9294 29.7157 33.5534 30.019C34.1861 30.3223 34.6714 30.7557 35.0094 31.319C35.3561 31.8737 35.5294 32.528 35.5294 33.282C35.5294 34.036 35.3561 34.6947 35.0094 35.258C34.6714 35.8127 34.1861 36.2417 33.5534 36.545C32.9294 36.8483 32.2014 37 31.3694 37H28.0024V29.564ZM31.3174 35.674C32.1148 35.674 32.7388 35.466 33.1894 35.05C33.6488 34.6253 33.8784 34.036 33.8784 33.282C33.8784 32.528 33.6488 31.943 33.1894 31.527C32.7388 31.111 32.1148 30.903 31.3174 30.903H29.6404V35.674H31.3174ZM40.1062 37.13C39.0402 37.13 38.2082 36.8353 37.6102 36.246C37.0122 35.6567 36.7132 34.8463 36.7132 33.815V29.564H38.3512V33.763C38.3512 34.4043 38.5028 34.894 38.8062 35.232C39.1095 35.57 39.5472 35.739 40.1192 35.739C40.6825 35.739 41.1115 35.5743 41.4062 35.245C41.7095 34.907 41.8612 34.413 41.8612 33.763V29.564H43.4732V33.815C43.4732 34.855 43.1785 35.6697 42.5892 36.259C41.9998 36.8397 41.1722 37.13 40.1062 37.13ZM48.7462 37.13C47.9748 37.13 47.2772 36.9653 46.6532 36.636C46.0378 36.298 45.5525 35.8387 45.1972 35.258C44.8418 34.6687 44.6642 34.01 44.6642 33.282C44.6642 32.554 44.8418 31.8997 45.1972 31.319C45.5525 30.7383 46.0378 30.2833 46.6532 29.954C47.2772 29.616 47.9748 29.447 48.7462 29.447C50.0982 29.447 51.1208 29.8673 51.8142 30.708L50.7482 31.722C50.2195 31.1327 49.5695 30.838 48.7982 30.838C48.3215 30.838 47.8925 30.942 47.5112 31.15C47.1385 31.358 46.8438 31.6483 46.6272 32.021C46.4192 32.3937 46.3152 32.814 46.3152 33.282C46.3152 33.7587 46.4192 34.1833 46.6272 34.556C46.8438 34.9287 47.1385 35.219 47.5112 35.427C47.8925 35.635 48.3215 35.739 48.7982 35.739C49.5782 35.739 50.2282 35.44 50.7482 34.842L51.8142 35.869C51.1035 36.7097 50.0808 37.13 48.7462 37.13ZM58.6806 35.687V37H52.9086V29.564H58.5376V30.89H54.5466V32.593H58.0956V33.867H54.5466V35.687H58.6806ZM59.9835 29.564H63.3505C64.1825 29.564 64.9105 29.7157 65.5345 30.019C66.1671 30.3223 66.6525 30.7557 66.9905 31.319C67.3371 31.8737 67.5105 32.528 67.5105 33.282C67.5105 34.036 67.3371 34.6947 66.9905 35.258C66.6525 35.8127 66.1671 36.2417 65.5345 36.545C64.9105 36.8483 64.1825 37 63.3505 37H59.9835V29.564ZM63.2985 35.674C64.0958 35.674 64.7198 35.466 65.1705 35.05C65.6298 34.6253 65.8595 34.036 65.8595 33.282C65.8595 32.528 65.6298 31.943 65.1705 31.527C64.7198 31.111 64.0958 30.903 63.2985 30.903H61.6215V35.674H63.2985ZM16.925 42.564H18.563V50H16.925V42.564ZM27.2835 42.564V50H25.9315L22.0705 45.32V50H20.4325V42.564H21.7975L25.6585 47.257V42.564H27.2835ZM35.6755 50.13C34.6095 50.13 33.7775 49.8353 33.1795 49.246C32.5815 48.6567 32.2825 47.8463 32.2825 46.815V42.564H33.9205V46.763C33.9205 47.4043 34.0722 47.894 34.3755 48.232C34.6788 48.57 35.1165 48.739 35.6885 48.739C36.2518 48.739 36.6808 48.5743 36.9755 48.245C37.2788 47.907 37.4305 47.413 37.4305 46.763V42.564H39.0425V46.815C39.0425 47.855 38.7478 48.6697 38.1585 49.259C37.5692 49.8397 36.7415 50.13 35.6755 50.13ZM43.1585 50.13C42.5778 50.13 42.0058 50.052 41.4425 49.896C40.8792 49.74 40.4328 49.5363 40.1035 49.285L40.7145 48.011C41.0265 48.245 41.4078 48.4313 41.8585 48.57C42.3092 48.7087 42.7685 48.778 43.2365 48.778C43.7478 48.778 44.1205 48.7043 44.3545 48.557C44.5972 48.401 44.7185 48.1973 44.7185 47.946C44.7185 47.6687 44.5798 47.465 44.3025 47.335C44.0338 47.205 43.6135 47.0837 43.0415 46.971C42.4608 46.841 41.9885 46.711 41.6245 46.581C41.2692 46.451 40.9615 46.2387 40.7015 45.944C40.4415 45.6493 40.3115 45.2507 40.3115 44.748C40.3115 44.2887 40.4372 43.8857 40.6885 43.539C40.9485 43.1923 41.3168 42.9237 41.7935 42.733C42.2702 42.5423 42.8292 42.447 43.4705 42.447C43.9558 42.447 44.4282 42.5033 44.8875 42.616C45.3469 42.72 45.7412 42.876 46.0705 43.084L45.5115 44.358C44.9222 43.9767 44.2245 43.786 43.4185 43.786C42.9245 43.786 42.5562 43.8683 42.3135 44.033C42.0708 44.189 41.9495 44.397 41.9495 44.657C41.9495 44.9343 42.0838 45.138 42.3525 45.268C42.6298 45.3893 43.0588 45.5107 43.6395 45.632C44.2115 45.762 44.6752 45.892 45.0305 46.022C45.3858 46.1433 45.6935 46.347 45.9535 46.633C46.2135 46.919 46.3435 47.309 46.3435 47.803C46.3435 48.5137 46.0575 49.0813 45.4855 49.506C44.9222 49.922 44.1465 50.13 43.1585 50.13ZM52.3497 48.388H48.5927L47.8907 50H46.2917L49.6717 42.564H51.2967L54.6637 50H53.0387L52.3497 48.388ZM51.8167 47.14L50.4777 44.046L49.1387 47.14H51.8167Z" fill="#53586F"/>
</svg>
