<svg width="18" height="13" viewBox="0 0 18 13" fill="none" xmlns="http://www.w3.org/2000/svg">
<path d="M0.851844 2.25929H17.1481C17.5573 2.25929 17.8889 1.92766 17.8889 1.51856C17.8889 1.10946 17.5573 0.777832 17.1482 0.777832H0.851844C0.442746 0.777832 0.111115 1.10946 0.111115 1.51856C0.111115 1.92766 0.442746 2.25929 0.851844 2.25929Z" fill="#6092DC"/>
<path d="M12.5783 11.426H5.74572C5.57419 11.426 5.43515 11.7574 5.43515 12.1661C5.43515 12.5748 5.57419 12.9061 5.74572 12.9061H12.5783C12.7498 12.9061 12.8888 12.5748 12.8888 12.1661C12.8889 11.7574 12.7498 11.426 12.5783 11.426Z" fill="#6092DC"/>
<path d="M17.1482 5.96301H0.851874C0.442777 5.96301 0.111145 6.29464 0.111145 6.70374C0.111145 7.11284 0.442777 7.44447 0.851874 7.44447H17.1482C17.5573 7.44447 17.8889 7.11284 17.8889 6.70374C17.8889 6.29464 17.5573 5.96301 17.1482 5.96301Z" fill="#6092DC"/>
</svg>
