<svg width="13" height="16" viewBox="0 0 13 16" fill="none" xmlns="http://www.w3.org/2000/svg">
<path d="M9.0625 0.274414V3.12482H11.9129L9.0625 0.274414Z" fill="#6092DC"/>
<path d="M7.05859 6H5.12891C4.76366 6.63759 4.14691 7.07244 3.4375 7.20634V9.45619C3.4375 11.1517 4.49909 12.6245 6.09375 13.1643C7.68841 12.6245 8.75 11.1517 8.75 9.45619V7.20634C8.04059 7.07244 7.42384 6.63756 7.05859 6ZM7.75103 9.04131L5.98328 10.8091C5.89175 10.9006 5.77178 10.9464 5.65184 10.9464C5.53191 10.9464 5.41191 10.9006 5.32041 10.8091L4.43653 9.92519C4.25347 9.74213 4.25347 9.44534 4.43653 9.26228C4.61956 9.07922 4.91638 9.07922 5.09944 9.26228L5.65188 9.81469L7.08819 8.37841C7.27122 8.19534 7.56803 8.19534 7.75109 8.37841C7.93409 8.56147 7.93409 8.85825 7.75103 9.04131Z" fill="#6092DC"/>
<path d="M8.59375 4.0625C8.33488 4.0625 8.125 3.85262 8.125 3.59375V0H1.71875C0.771031 0 0 0.771031 0 1.71875V14.2812C0 15.229 0.771031 16 1.71875 16H10.4688C11.4165 16 12.1875 15.229 12.1875 14.2812V4.0625H8.59375ZM9.6875 9.45616C9.6875 10.5078 9.35566 11.5097 8.72787 12.3535C8.10009 13.1973 7.23578 13.803 6.22844 14.1052C6.1845 14.1184 6.13912 14.125 6.09375 14.125C6.04838 14.125 6.003 14.1184 5.95906 14.1052C4.95172 13.803 4.08741 13.1973 3.45962 12.3535C2.83184 11.5097 2.5 10.5078 2.5 9.45616V6.78125C2.5 6.52238 2.70988 6.3125 2.96875 6.3125C3.56109 6.3125 4.09363 5.98338 4.3585 5.45359L4.42447 5.32166C4.50387 5.16281 4.66619 5.0625 4.84375 5.0625H7.34375C7.52131 5.0625 7.68362 5.16281 7.76303 5.32163L7.829 5.45359C8.09388 5.98338 8.62641 6.3125 9.21875 6.3125C9.47762 6.3125 9.6875 6.52238 9.6875 6.78125V9.45616Z" fill="#6092DC"/>
</svg>
