<svg width="21" height="18" viewBox="0 0 21 18" fill="none" xmlns="http://www.w3.org/2000/svg">
<path d="M20.2812 4.125H18.2188C18.1276 4.125 18.0401 4.16122 17.9757 4.22568C17.9112 4.29015 17.875 4.37758 17.875 4.46875V17.5312C17.875 17.6224 17.9112 17.7099 17.9757 17.7743C18.0401 17.8388 18.1276 17.875 18.2188 17.875H20.2812C20.3724 17.875 20.4599 17.8388 20.5243 17.7743C20.5888 17.7099 20.625 17.6224 20.625 17.5312V4.46875C20.625 4.37758 20.5888 4.29015 20.5243 4.22568C20.4599 4.16122 20.3724 4.125 20.2812 4.125ZM19.9375 17.1875H18.5625V4.8125H19.9375V17.1875Z" fill="url(#paint0_linear)"/>
<path d="M16.8438 17.875C16.9349 17.875 17.0224 17.8388 17.0868 17.7743C17.1513 17.7099 17.1875 17.6224 17.1875 17.5312V7.21875C17.1875 7.12758 17.1513 7.04015 17.0868 6.97568C17.0224 6.91122 16.9349 6.875 16.8438 6.875H14.7812C14.6901 6.875 14.6026 6.91122 14.5382 6.97568C14.4737 7.04015 14.4375 7.12758 14.4375 7.21875V17.5312C14.4375 17.6224 14.4737 17.7099 14.5382 17.7743C14.6026 17.8388 14.6901 17.875 14.7812 17.875H16.8438ZM15.125 7.5625H16.5V17.1875H15.125V7.5625Z" fill="url(#paint1_linear)"/>
<path d="M13.4062 17.875C13.4974 17.875 13.5849 17.8388 13.6493 17.7743C13.7138 17.7099 13.75 17.6224 13.75 17.5312V9.625C13.75 9.53383 13.7138 9.4464 13.6493 9.38193C13.5849 9.31747 13.4974 9.28125 13.4062 9.28125H11.3438C11.2526 9.28125 11.1651 9.31747 11.1007 9.38193C11.0362 9.4464 11 9.53383 11 9.625V17.5312C11 17.6224 11.0362 17.7099 11.1007 17.7743C11.1651 17.8388 11.2526 17.875 11.3438 17.875H13.4062ZM11.6875 9.96875H13.0625V17.1875H11.6875V9.96875Z" fill="url(#paint2_linear)"/>
<path d="M9.96875 17.875C10.0599 17.875 10.1474 17.8388 10.2118 17.7743C10.2763 17.7099 10.3125 17.6224 10.3125 17.5312V12.375C10.3125 12.2838 10.2763 12.1964 10.2118 12.1319C10.1474 12.0675 10.0599 12.0312 9.96875 12.0312H7.90625C7.81508 12.0312 7.72765 12.0675 7.66318 12.1319C7.59872 12.1964 7.5625 12.2838 7.5625 12.375V17.5312C7.5625 17.6224 7.59872 17.7099 7.66318 17.7743C7.72765 17.8388 7.81508 17.875 7.90625 17.875H9.96875ZM8.25 12.7188H9.625V17.1875H8.25V12.7188Z" fill="url(#paint3_linear)"/>
<path d="M6.53125 17.875C6.62242 17.875 6.70985 17.8388 6.77432 17.7743C6.83878 17.7099 6.875 17.6224 6.875 17.5312V13.75C6.875 13.6588 6.83878 13.5714 6.77432 13.5069C6.70985 13.4425 6.62242 13.4062 6.53125 13.4062H4.46875C4.37758 13.4062 4.29015 13.4425 4.22568 13.5069C4.16122 13.5714 4.125 13.6588 4.125 13.75V17.5312C4.125 17.6224 4.16122 17.7099 4.22568 17.7743C4.29015 17.8388 4.37758 17.875 4.46875 17.875H6.53125ZM4.8125 14.0938H6.1875V17.1875H4.8125V14.0938Z" fill="url(#paint4_linear)"/>
<path d="M3.09375 17.875C3.18492 17.875 3.27235 17.8388 3.33682 17.7743C3.40128 17.7099 3.4375 17.6224 3.4375 17.5312V15.4688C3.4375 15.3776 3.40128 15.2901 3.33682 15.2257C3.27235 15.1612 3.18492 15.125 3.09375 15.125H1.03125C0.940082 15.125 0.852648 15.1612 0.788182 15.2257C0.723716 15.2901 0.6875 15.3776 0.6875 15.4688V17.5312C0.6875 17.6224 0.723716 17.7099 0.788182 17.7743C0.852648 17.8388 0.940082 17.875 1.03125 17.875H3.09375ZM1.375 15.8125H2.75V17.1875H1.375V15.8125Z" fill="url(#paint5_linear)"/>
<path d="M8.59375 4.125H9.28125C9.37242 4.125 9.45985 4.08878 9.52432 4.02432C9.58878 3.95985 9.625 3.87242 9.625 3.78125C9.625 3.69008 9.58878 3.60265 9.52432 3.53818C9.45985 3.47372 9.37242 3.4375 9.28125 3.4375H8.9375V3.09375C8.9375 3.00258 8.90128 2.91515 8.83682 2.85068C8.77235 2.78622 8.68492 2.75 8.59375 2.75C8.50258 2.75 8.41515 2.78622 8.35068 2.85068C8.28622 2.91515 8.25 3.00258 8.25 3.09375V3.49663C8.02075 3.57779 7.82756 3.73736 7.70455 3.94715C7.58155 4.15694 7.53664 4.40346 7.57777 4.64315C7.6189 4.88284 7.74341 5.10028 7.92932 5.25707C8.11522 5.41386 8.35056 5.4999 8.59375 5.5C8.68492 5.5 8.77235 5.53622 8.83682 5.60068C8.90128 5.66515 8.9375 5.75258 8.9375 5.84375C8.9375 5.93492 8.90128 6.02235 8.83682 6.08682C8.77235 6.15128 8.68492 6.1875 8.59375 6.1875H7.90625C7.81508 6.1875 7.72765 6.22372 7.66318 6.28818C7.59872 6.35265 7.5625 6.44008 7.5625 6.53125C7.5625 6.62242 7.59872 6.70985 7.66318 6.77432C7.72765 6.83878 7.81508 6.875 7.90625 6.875H8.25V7.21875C8.25 7.30992 8.28622 7.39735 8.35068 7.46182C8.41515 7.52628 8.50258 7.5625 8.59375 7.5625C8.68492 7.5625 8.77235 7.52628 8.83682 7.46182C8.90128 7.39735 8.9375 7.30992 8.9375 7.21875V6.81587C9.16675 6.73471 9.35994 6.57514 9.48295 6.36535C9.60595 6.15556 9.65086 5.90904 9.60973 5.66935C9.5686 5.42966 9.44409 5.21222 9.25818 5.05543C9.07228 4.89864 8.83694 4.8126 8.59375 4.8125C8.50258 4.8125 8.41515 4.77628 8.35068 4.71182C8.28622 4.64735 8.25 4.55992 8.25 4.46875C8.25 4.37758 8.28622 4.29015 8.35068 4.22568C8.41515 4.16122 8.50258 4.125 8.59375 4.125Z" fill="url(#paint6_linear)"/>
<path d="M20.2813 0H18.2188C18.1276 0 18.0402 0.0362165 17.9757 0.100682C17.9112 0.165148 17.875 0.252582 17.875 0.34375C17.875 0.434918 17.9112 0.522352 17.9757 0.586818C18.0402 0.651284 18.1276 0.6875 18.2188 0.6875H19.4514L14.6389 5.5H12.7043C12.7137 5.38661 12.7188 5.27201 12.7188 5.15625C12.7187 4.37291 12.4957 3.60577 12.0756 2.94457C11.6556 2.28336 11.056 1.75542 10.3469 1.42249C9.63784 1.08957 8.84863 0.965424 8.0716 1.06458C7.29456 1.16374 6.56182 1.4821 5.95908 1.98243C5.35634 2.48276 4.90853 3.14436 4.66801 3.88986C4.42749 4.63536 4.40422 5.43394 4.60092 6.19218C4.79761 6.95042 5.20614 7.63698 5.77872 8.17156C6.3513 8.70614 7.06426 9.06663 7.8342 9.21087L6.3889 10.6562H3.78126C3.73612 10.6562 3.69142 10.6651 3.64971 10.6824C3.608 10.6997 3.57011 10.725 3.53818 10.7569L0.100685 14.1944C0.0362174 14.2589 0 14.3463 0 14.4375C0 14.5287 0.0362174 14.6161 0.100685 14.6806C0.165152 14.745 0.252588 14.7813 0.343759 14.7813C0.434929 14.7813 0.522366 14.745 0.586833 14.6806L3.92361 11.3438H6.53126C6.5764 11.3438 6.6211 11.3349 6.66281 11.3176C6.70451 11.3003 6.74241 11.275 6.77433 11.2431L8.73899 9.27841C9.62775 9.24591 10.4823 8.92761 11.1758 8.37077C11.8692 7.81393 12.3646 7.04827 12.5883 6.1875H14.7813C14.8264 6.1875 14.8711 6.17861 14.9128 6.16134C14.9545 6.14406 14.9924 6.11874 15.0243 6.08682L19.9375 1.17365V2.40625C19.9375 2.49742 19.9737 2.58485 20.0382 2.64932C20.1027 2.71378 20.1901 2.75 20.2813 2.75C20.3724 2.75 20.4599 2.71378 20.5243 2.64932C20.5888 2.58485 20.625 2.49742 20.625 2.40625V0.34375C20.625 0.252582 20.5888 0.165148 20.5243 0.100682C20.4599 0.0362165 20.3724 0 20.2813 0ZM8.59376 8.59375C7.91389 8.59375 7.24928 8.39214 6.68399 8.01443C6.11869 7.63671 5.6781 7.09984 5.41792 6.47172C5.15775 5.8436 5.08967 5.15244 5.22231 4.48563C5.35495 3.81882 5.68234 3.20631 6.16308 2.72557C6.64382 2.24483 7.25633 1.91744 7.92313 1.7848C8.58994 1.65216 9.28111 1.72024 9.90923 1.98041C10.5374 2.24059 11.0742 2.68118 11.4519 3.24648C11.8297 3.81177 12.0313 4.47638 12.0313 5.15625C12.0302 6.06761 11.6677 6.94135 11.0233 7.58579C10.3789 8.23022 9.50512 8.59272 8.59376 8.59375Z" fill="url(#paint7_linear)"/>
<defs>
<linearGradient id="paint0_linear" x1="20.625" y1="4.125" x2="16.8454" y2="4.3898" gradientUnits="userSpaceOnUse">
<stop stop-color="#839BE7"/>
<stop offset="1" stop-color="#CED5FF"/>
</linearGradient>
<linearGradient id="paint1_linear" x1="17.1875" y1="6.875" x2="13.4182" y2="7.2051" gradientUnits="userSpaceOnUse">
<stop stop-color="#839BE7"/>
<stop offset="1" stop-color="#CED5FF"/>
</linearGradient>
<linearGradient id="paint2_linear" x1="13.75" y1="9.28125" x2="9.99897" y2="9.70173" gradientUnits="userSpaceOnUse">
<stop stop-color="#839BE7"/>
<stop offset="1" stop-color="#CED5FF"/>
</linearGradient>
<linearGradient id="paint3_linear" x1="10.3125" y1="12.0312" x2="6.61482" y2="12.6408" gradientUnits="userSpaceOnUse">
<stop stop-color="#839BE7"/>
<stop offset="1" stop-color="#CED5FF"/>
</linearGradient>
<linearGradient id="paint4_linear" x1="6.875" y1="13.4062" x2="3.2455" y2="14.1887" gradientUnits="userSpaceOnUse">
<stop stop-color="#839BE7"/>
<stop offset="1" stop-color="#CED5FF"/>
</linearGradient>
<linearGradient id="paint5_linear" x1="3.4375" y1="15.125" x2="0.054484" y2="16.3101" gradientUnits="userSpaceOnUse">
<stop stop-color="#839BE7"/>
<stop offset="1" stop-color="#CED5FF"/>
</linearGradient>
<linearGradient id="paint6_linear" x1="9.625" y1="2.75" x2="6.83917" y2="3.16824" gradientUnits="userSpaceOnUse">
<stop stop-color="#839BE7"/>
<stop offset="1" stop-color="#CED5FF"/>
</linearGradient>
<linearGradient id="paint7_linear" x1="20.625" y1="-1.30535e-06" x2="-2.36766" y2="11.2389" gradientUnits="userSpaceOnUse">
<stop stop-color="#839BE7"/>
<stop offset="1" stop-color="#CED5FF"/>
</linearGradient>
</defs>
</svg>
