<svg width="19" height="13" viewBox="0 0 19 13" fill="none" xmlns="http://www.w3.org/2000/svg">
<path d="M17.5676 12.973H1.35135C0.993082 12.9725 0.64961 12.83 0.396276 12.5767C0.142941 12.3234 0.000429151 11.9799 0 11.6216V8.10811H0.540541V11.6216C0.540541 11.8367 0.625965 12.0429 0.778022 12.195C0.930078 12.347 1.13631 12.4324 1.35135 12.4324H17.5676C17.7826 12.4324 17.9888 12.347 18.1409 12.195C18.293 12.0429 18.3784 11.8367 18.3784 11.6216V1.35135C18.3784 1.13631 18.293 0.930078 18.1409 0.778021C17.9888 0.625965 17.7826 0.540541 17.5676 0.540541H1.35135C1.13631 0.540541 0.930078 0.625965 0.778022 0.778021C0.625965 0.930078 0.540541 1.13631 0.540541 1.35135V7.02703H0V1.35135C0.000429151 0.993082 0.142941 0.64961 0.396276 0.396276C0.64961 0.142941 0.993082 0.000429151 1.35135 0H17.5676C17.9258 0.000429151 18.2693 0.142941 18.5226 0.396276C18.776 0.64961 18.9185 0.993082 18.9189 1.35135V11.6216C18.9185 11.9799 18.776 12.3234 18.5226 12.5767C18.2693 12.83 17.9258 12.9725 17.5676 12.973Z" fill="#6092DC"/>
<path d="M16.2163 2.4325H18.6487V2.97303H16.2163V2.4325Z" fill="#6092DC"/>
<path d="M0.27002 2.4325H15.1349V2.97303H0.27002V2.4325Z" fill="#6092DC"/>
<path d="M0.27002 4.86487H18.6484V5.4054H0.27002V4.86487Z" fill="#6092DC"/>
<path d="M1.62158 11.0811H7.29726V11.6216H1.62158V11.0811Z" fill="#6092DC"/>
<path d="M1.62158 9.72961H4.59455V10.2702H1.62158V9.72961Z" fill="#6092DC"/>
</svg>
