<svg width="22" height="22" viewBox="0 0 22 22" fill="none" xmlns="http://www.w3.org/2000/svg">
<path d="M7.41211 18.7773C6.5236 18.7773 5.80078 19.5002 5.80078 20.3887C5.80078 21.2772 6.5236 22 7.41211 22C8.30062 22 9.02344 21.2772 9.02344 20.3887C9.02344 19.5002 8.30062 18.7773 7.41211 18.7773ZM7.41211 21.3555C6.87904 21.3555 6.44531 20.9217 6.44531 20.3887C6.44531 19.8556 6.87904 19.4219 7.41211 19.4219C7.94518 19.4219 8.37891 19.8556 8.37891 20.3887C8.37891 20.9217 7.94518 21.3555 7.41211 21.3555Z" fill="url(#paint0_linear)"/>
<path d="M7.41211 20.7109C7.59009 20.7109 7.73438 20.5667 7.73438 20.3887C7.73438 20.2107 7.59009 20.0664 7.41211 20.0664C7.23413 20.0664 7.08984 20.2107 7.08984 20.3887C7.08984 20.5667 7.23413 20.7109 7.41211 20.7109Z" fill="url(#paint1_linear)"/>
<path d="M18.4551 20.7109C18.6331 20.7109 18.7773 20.5667 18.7773 20.3887C18.7773 20.2107 18.6331 20.0664 18.4551 20.0664C18.2771 20.0664 18.1328 20.2107 18.1328 20.3887C18.1328 20.5667 18.2771 20.7109 18.4551 20.7109Z" fill="url(#paint2_linear)"/>
<path d="M18.4551 18.7773C17.5666 18.7773 16.8438 19.5002 16.8438 20.3887C16.8438 21.2772 17.5666 22 18.4551 22C19.3436 22 20.0664 21.2772 20.0664 20.3887C20.0664 19.5002 19.3436 18.7773 18.4551 18.7773ZM18.4551 21.3555C17.922 21.3555 17.4883 20.9217 17.4883 20.3887C17.4883 19.8556 17.922 19.4219 18.4551 19.4219C18.9881 19.4219 19.4219 19.8556 19.4219 20.3887C19.4219 20.9217 18.9881 21.3555 18.4551 21.3555Z" fill="url(#paint3_linear)"/>
<path d="M5.32151 15.5957L7.66726 14.2656H12.9336C13.7117 14.2656 14.3628 13.7112 14.5126 12.9766H17.8689C18.9002 12.9766 19.7989 12.2787 20.0544 11.2796L21.9899 3.71074C22.0146 3.61427 21.9933 3.51188 21.9322 3.43325C21.8712 3.35461 21.7773 3.30859 21.6777 3.30859H5.85501L5.69065 2.666C5.28975 1.0963 3.87733 0 2.25586 0H0.966797C0.433727 0 0 0.433727 0 0.966797C0 1.49987 0.433727 1.93359 0.966797 1.93359H2.25586C2.99307 1.93359 3.63511 2.4316 3.81726 3.14475L6.29243 12.8224L4.36829 13.9134C3.66167 14.3134 3.22266 15.0658 3.22266 15.877C3.22266 17.1208 4.23466 18.1328 5.47852 18.1328H19.7441C20.2772 18.1328 20.7109 17.6991 20.7109 17.166C20.7109 16.6329 20.2772 16.1992 19.7441 16.1992H5.47852C5.3008 16.1992 5.15625 16.0547 5.15625 15.877C5.15625 15.7612 5.2195 15.6534 5.32151 15.5957ZM17.2667 9.32422H15.2863L15.4071 6.96094H17.6293L17.2667 9.32422ZM18.2813 6.96094H20.4935L19.8892 9.32422H17.9187L18.2813 6.96094ZM17.1678 9.96875L16.8052 12.332H15.1325L15.2533 9.96875H17.1678ZM14.6409 9.32422H12.6572L12.5363 6.96094H14.7617L14.6409 9.32422ZM15.4401 6.31641L15.5609 3.95312H18.0907L17.7281 6.31641H15.4401ZM14.7947 6.31641H12.5033L12.3823 3.95312H14.9155L14.7947 6.31641ZM11.8579 6.31641H10.5823C10.4043 6.31641 10.26 6.46065 10.26 6.63867C10.26 6.81669 10.4043 6.96094 10.5823 6.96094H11.8909L12.0118 9.32422H10.0314L9.20717 3.95312H11.737L11.8579 6.31641ZM9.37939 9.32422H7.39355L6.78911 6.96094H9.01669L9.37939 9.32422ZM9.4783 9.96875L9.841 12.332H8.16286L7.55842 9.96875H9.4783ZM10.4931 12.332L10.1304 9.96875H12.0448L12.1657 12.332H10.4931ZM12.8111 12.332L12.6902 9.96875H14.608L14.4871 12.332H12.8111ZM19.43 11.1199C19.2475 11.8336 18.6055 12.332 17.8689 12.332H17.4573L17.8198 9.96875H19.7243L19.43 11.1199ZM20.6583 6.31641H18.3802L18.7428 3.95312H21.2627L20.6583 6.31641ZM8.55512 3.95312L8.91782 6.31641H6.62432L6.01988 3.95312H8.55512ZM2.25586 1.28906H0.966797C0.789078 1.28906 0.644531 1.14452 0.644531 0.966797C0.644531 0.789078 0.789078 0.644531 0.966797 0.644531H2.25586C2.93326 0.644531 3.56572 0.878754 4.06648 1.27849L3.60701 1.738C3.22704 1.45411 2.7573 1.28906 2.25586 1.28906ZM5.47852 16.8438H19.7441C19.9219 16.8438 20.0664 16.9883 20.0664 17.166C20.0664 17.3437 19.9219 17.4883 19.7441 17.4883H5.47852C4.59001 17.4883 3.86719 16.7655 3.86719 15.877C3.86719 15.2976 4.1809 14.7601 4.68604 14.4741L6.82464 13.2615C6.95114 13.1898 7.01392 13.0422 6.97787 12.9013L4.44168 2.98517C4.36679 2.69186 4.23603 2.42486 4.063 2.1936L4.52259 1.734C4.7734 2.04776 4.96186 2.41695 5.06619 2.82558L7.60044 12.7342C7.63692 12.8768 7.7654 12.9766 7.91265 12.9766H13.8452C13.7121 13.3517 13.3537 13.6211 12.9336 13.6211H7.58227C7.52654 13.6211 7.47179 13.6356 7.42332 13.6631L5.0038 15.0349C4.70031 15.2066 4.51172 15.5293 4.51172 15.877C4.51172 16.41 4.94545 16.8438 5.47852 16.8438Z" fill="url(#paint4_linear)"/>
<defs>
<linearGradient id="paint0_linear" x1="9.02344" y1="18.7773" x2="5.05897" y2="20.1661" gradientUnits="userSpaceOnUse">
<stop stop-color="#839BE7"/>
<stop offset="1" stop-color="#CED5FF"/>
</linearGradient>
<linearGradient id="paint1_linear" x1="7.73437" y1="20.0664" x2="6.94148" y2="20.3442" gradientUnits="userSpaceOnUse">
<stop stop-color="#839BE7"/>
<stop offset="1" stop-color="#CED5FF"/>
</linearGradient>
<linearGradient id="paint2_linear" x1="18.7773" y1="20.0664" x2="17.9844" y2="20.3442" gradientUnits="userSpaceOnUse">
<stop stop-color="#839BE7"/>
<stop offset="1" stop-color="#CED5FF"/>
</linearGradient>
<linearGradient id="paint3_linear" x1="20.0664" y1="18.7773" x2="16.1019" y2="20.1661" gradientUnits="userSpaceOnUse">
<stop stop-color="#839BE7"/>
<stop offset="1" stop-color="#CED5FF"/>
</linearGradient>
<linearGradient id="paint4_linear" x1="22" y1="-1.60133e-06" x2="-3.7363" y2="10.9384" gradientUnits="userSpaceOnUse">
<stop stop-color="#839BE7"/>
<stop offset="1" stop-color="#CED5FF"/>
</linearGradient>
</defs>
</svg>
