<svg width="13" height="16" viewBox="0 0 13 16" fill="none" xmlns="http://www.w3.org/2000/svg">
<path d="M9.40625 15.924L12.5275 12.8027H10.4063C9.85397 12.8027 9.40625 13.2504 9.40625 13.8027V15.924Z" fill="#6092DC"/>
<path d="M12.6042 11.8646V2C12.6042 0.895431 11.7087 0 10.6042 0H2C0.895431 0 0 0.895431 0 2V14C0 15.1046 0.895431 16 2 16H6.46875C7.57332 16 8.46875 15.1046 8.46875 14V13.8646C8.46875 12.76 9.36418 11.8646 10.4688 11.8646H12.6042ZM4.30206 2.86459H8.30206V3.80209H4.30206V2.86459ZM2.46872 5.19791H10.1354V6.13541H2.46872V5.19791ZM2.46872 7.19791H10.1354V8.13541H2.46872V7.19791ZM3.45309 12.8021H2.46875V11.8646H3.45309V12.8021ZM6.30206 12.8021H4.39059V11.8646H6.30206V12.8021ZM2.46872 10.1354V9.19791H10.1354V10.1354H2.46872Z" fill="#6092DC"/>
</svg>
