<svg width="13" height="12" viewBox="0 0 13 12" fill="none" xmlns="http://www.w3.org/2000/svg">
<path d="M3.9332 9.42548C3.22227 9.42548 2.64597 10.0018 2.64597 10.7127C2.64597 11.4237 3.22229 12 3.9332 12C4.64414 12 5.22044 11.4236 5.22044 10.7127C5.22047 10.0018 4.64414 9.42548 3.9332 9.42548Z" fill="white"/>
<path d="M9.36845 9.42548C8.65751 9.42548 8.08121 10.0018 8.08121 10.7127C8.08121 11.4237 8.65754 12 9.36845 12C10.0794 12 10.6557 11.4236 10.6557 10.7127C10.6557 10.0018 10.0794 9.42548 9.36845 9.42548Z" fill="white"/>
<path d="M12.2718 1.91659C12.2122 1.85152 12.1307 1.81078 12.0429 1.80216L2.73184 1.67344L2.47439 0.886776C2.29302 0.360903 1.80057 0.00588592 1.24434 0H0.286056C0.128067 0 0 0.128067 0 0.286056C0 0.444045 0.128067 0.572112 0.286056 0.572112H1.24434C1.55536 0.578983 1.82924 0.778694 1.93089 1.07272L3.74734 6.55068L3.60432 6.87963C3.4448 7.29099 3.49271 7.75398 3.73305 8.12397C3.97109 8.48736 4.37155 8.71163 4.80576 8.72469H10.3696C10.5275 8.72469 10.6556 8.59662 10.6556 8.43863C10.6556 8.28065 10.5275 8.15258 10.3696 8.15258H4.80574C4.56053 8.14645 4.33481 8.01745 4.20502 7.80931C4.07668 7.60371 4.05031 7.35042 4.13351 7.12276L4.24794 6.86531L10.2694 6.23599C10.9308 6.16314 11.4749 5.68208 11.6282 5.03455L12.3147 2.1597C12.3457 2.07691 12.3292 1.9838 12.2718 1.91659Z" fill="white"/>
</svg>
