<svg width="18" height="18" viewBox="0 0 18 18" fill="none" xmlns="http://www.w3.org/2000/svg">
<path d="M16.6921 17.2973H15.921V6.10132C15.921 5.5802 15.497 5.15625 14.976 5.15625H13.2525C12.7313 5.15625 12.3074 5.58023 12.3074 6.10132V17.2973H10.3495V11.174C10.3495 10.6529 9.92551 10.2289 9.40439 10.2289H7.6809C7.15977 10.2289 6.73583 10.6529 6.73583 11.174V17.2973H4.77791V14.1261C4.77791 13.605 4.35392 13.181 3.83284 13.181H2.1093C1.58818 13.181 1.16423 13.605 1.16423 14.1261V17.2973H0.351562C0.157394 17.2973 0 17.4547 0 17.6489C0 17.8431 0.157394 18.0004 0.351562 18.0004H16.6921C16.8863 18.0004 17.0437 17.8431 17.0437 17.6489C17.0437 17.4547 16.8863 17.2973 16.6921 17.2973ZM4.07471 17.2973H1.86732V14.1261C1.86732 13.9927 1.97585 13.8841 2.10927 13.8841H3.83277C3.96618 13.8841 4.07471 13.9927 4.07471 14.1261V17.2973ZM9.6463 17.2973H7.43892V11.174C7.43892 11.0406 7.54744 10.932 7.68086 10.932H9.40436C9.53774 10.932 9.6463 11.0406 9.6463 11.174V17.2973ZM15.2179 17.2973H13.0105V6.10132C13.0105 5.9679 13.119 5.85938 13.2525 5.85938H14.976C15.1094 5.85938 15.2179 5.9679 15.2179 6.10132V17.2973Z" fill="white"/>
<path d="M15.9202 0.369703C15.9251 0.273762 15.8913 0.176203 15.8181 0.102937C15.7448 0.0296719 15.6473 -0.00411328 15.5513 0.00084375C15.5457 0.000597656 15.5401 0 15.5343 0H13.4073C13.2132 0 13.0558 0.157395 13.0558 0.351562C13.0558 0.54573 13.2132 0.703125 13.4073 0.703125H14.7207L11.2452 4.1786L9.93461 2.86798C9.86869 2.80206 9.77926 2.765 9.68602 2.765C9.59279 2.765 9.50335 2.80206 9.43743 2.86798L3.11743 9.18801C2.98014 9.3253 2.98014 9.54791 3.11743 9.68523C3.18609 9.75382 3.27605 9.78813 3.36602 9.78813C3.45598 9.78813 3.54598 9.75382 3.61461 9.68516L9.68602 3.61371L10.9966 4.92434C11.1339 5.06162 11.3565 5.06162 11.4939 4.92434L15.2179 1.20034V2.38897C15.2179 2.58314 15.3753 2.74054 15.5695 2.74054C15.7636 2.74054 15.921 2.58314 15.921 2.38897V0.386719C15.921 0.380988 15.9204 0.375398 15.9202 0.369703Z" fill="white"/>
<path d="M2.18103 11.0146C2.37519 11.0146 2.53259 10.8572 2.53259 10.6631C2.53259 10.4689 2.37519 10.3115 2.18103 10.3115C1.98687 10.3115 1.82947 10.4689 1.82947 10.6631C1.82947 10.8572 1.98687 11.0146 2.18103 11.0146Z" fill="white"/>
</svg>
