<svg width="22" height="22" viewBox="0 0 22 22" fill="none" xmlns="http://www.w3.org/2000/svg">
<path d="M17.2133 11.4556C14.574 11.4556 12.4267 13.6028 12.4267 16.2422C12.4267 18.8816 14.574 21.029 17.2133 21.029C19.8527 21.029 22 18.8818 22 16.2422C22 13.6028 19.8526 11.4556 17.2133 11.4556ZM18.5941 16.8867H17.8579V17.6229C17.8579 17.9789 17.5694 18.2675 17.2133 18.2675C16.8573 18.2675 16.5688 17.9789 16.5688 17.6229V16.8867H15.8326C15.4766 16.8867 15.1881 16.5982 15.1881 16.2422C15.1881 15.8864 15.4766 15.5977 15.8326 15.5977H16.5688V14.8615C16.5688 14.5057 16.8573 14.217 17.2133 14.217C17.5694 14.217 17.8579 14.5057 17.8579 14.8615V15.5977H18.5941C18.9501 15.5977 19.2386 15.8864 19.2386 16.2422C19.2386 16.5982 18.9501 16.8867 18.5941 16.8867Z" fill="#C4C6D2"/>
<path d="M6.85793 10.6736C9.49731 10.6736 11.6446 8.52614 11.6446 5.88675C11.6446 3.24736 9.49715 1.1001 6.85793 1.1001C4.21854 1.1001 2.07111 3.24736 2.07111 5.88675C2.07111 8.52631 4.21854 10.6736 6.85793 10.6736Z" fill="#C4C6D2"/>
<path d="M12.5234 12.3837C12.0391 11.6749 11.4257 11.0606 10.7168 10.5762C9.66679 11.4419 8.32201 11.9626 6.85788 11.9626C5.39375 11.9626 4.04897 11.4419 2.99875 10.5762C1.18987 11.8122 0 13.8908 0 16.2422V18.6585C0 19.9657 1.06331 21.029 2.37033 21.029H11.3451C11.9218 21.029 12.4509 20.8219 12.8623 20.4783C11.7958 19.3829 11.1375 17.8881 11.1375 16.2422C11.1375 14.7784 11.658 13.4338 12.5234 12.3837Z" fill="#C4C6D2"/>
</svg>
