<svg width="10" height="10" viewBox="0 0 10 10" fill="none" xmlns="http://www.w3.org/2000/svg">
<g opacity="0.5">
<path d="M9.71732 7.33898L8.32179 5.94345C7.82338 5.44505 6.9761 5.64443 6.77674 6.29234C6.62722 6.74092 6.12881 6.99012 5.68025 6.89042C4.68345 6.64122 3.33776 5.34537 3.08856 4.29873C2.93904 3.85014 3.23808 3.35174 3.68664 3.20224C4.33456 3.00288 4.53393 2.15559 4.03552 1.65719L2.63999 0.261662C2.24127 -0.0872205 1.64319 -0.0872205 1.29431 0.261662L0.347341 1.20863C-0.599625 2.20543 0.447021 4.84697 2.78952 7.18946C5.13201 9.53196 7.77354 10.6285 8.77035 9.63164L9.71732 8.68467C10.0662 8.28595 10.0662 7.68787 9.71732 7.33898Z" fill="#C4C6D2"/>
</g>
</svg>
