<svg width="18" height="14" viewBox="0 0 18 14" fill="none" xmlns="http://www.w3.org/2000/svg">
<path d="M17.5583 5.22524L14.8545 1.16926C14.3663 0.437238 13.5502 0 12.6705 0H5.74126C4.6035 0 3.54902 0.567738 2.92275 1.51801L0.5085 5.184C0.1755 5.63699 0 6.174 0 6.7365V11.625C0 12.6585 0.840762 13.5 1.87499 13.5H16.125C17.1592 13.5 18 12.6585 18 11.625V6.68099C18 6.16201 17.8477 5.65801 17.5583 5.22524ZM17.25 11.625C17.25 12.2453 16.7453 12.75 16.125 12.75H1.87499C1.25473 12.75 0.749988 12.2453 0.749988 11.625V6.7365C0.749988 6.33449 0.87525 5.95125 1.12423 5.61224L3.54821 1.93124C4.03646 1.19099 4.8562 0.749988 5.74123 0.749988H12.6712C13.299 0.749988 13.8825 1.062 14.2312 1.58474L16.935 5.64075C17.1405 5.95051 17.25 6.30974 17.25 6.68099V11.625H17.25Z" fill="white"/>
<path d="M17.25 6H15.375C14.3408 6 13.5 6.8415 13.5 7.87498C13.5 8.49524 12.9953 8.99998 12.375 8.99998H5.62502C5.00476 8.99998 4.50002 8.49524 4.50002 7.87498C4.50002 6.8415 3.65926 6 2.62504 6H0.750012C0.543012 6 0.375 6.16801 0.375 6.37501C0.375 6.58201 0.543012 6.74999 0.750012 6.74999H2.625C3.24526 6.74999 3.75 7.25472 3.75 7.87498C3.75 8.90846 4.59076 9.74996 5.62499 9.74996H12.375C13.4093 9.74996 14.25 8.90846 14.25 7.87498C14.25 7.25472 14.7547 6.74999 15.375 6.74999H17.25C17.457 6.74999 17.625 6.58197 17.625 6.37497C17.625 6.16798 17.457 6 17.25 6Z" fill="white"/>
</svg>
