<svg width="24" height="24" viewBox="0 0 24 24" fill="none" xmlns="http://www.w3.org/2000/svg">
<path d="M9 1H3.00001C1.89695 1 1 1.89695 1 3.00001V9C1 10.103 1.89695 11 3.00001 11H9C10.103 11 11 10.1031 11 9V3.00001C11 1.89695 10.103 1 9 1Z" fill="#C4C6D2"/>
<path d="M9 9.99999H3.00001C2.44876 9.99999 2.00003 9.55125 2.00003 9V3.00001C2.00003 2.44876 2.44876 2.00003 3.00001 2.00003H9C9.55125 2.00003 9.99999 2.44876 9.99999 3.00001M9 1H3.00001C1.89695 1 1 1.89695 1 3.00001V9C1 10.103 1.89695 11 3.00001 11H9C10.103 11 11 10.1031 11 9V3.00001C11 1.89695 10.103 1 9 1Z" stroke="#C4C6D2" stroke-width="0.5"/>
<path d="M21 1H15C13.897 1 13 1.89695 13 3.00001V9C13 10.103 13.897 11 15 11H21C22.103 11 23 10.1031 23 9V3.00001C23 1.89695 22.103 1 21 1Z" fill="#C4C6D2"/>
<path d="M15 9.99999H21C21.5513 9.99999 22 9.55125 22 9V3.00001C22 2.44876 21.5513 2.00003 21 2.00003H15C14.4488 2.00003 14 2.44876 14 3.00001M21 1H15C13.897 1 13 1.89695 13 3.00001V9C13 10.103 13.897 11 15 11H21C22.103 11 23 10.1031 23 9V3.00001C23 1.89695 22.103 1 21 1Z" stroke="#C4C6D2" stroke-width="0.5"/>
<path d="M9 13H3.00001C1.89695 13 1 13.897 1 15V21C1 22.103 1.89695 23 3.00001 23H9C10.103 23 11 22.1031 11 21V15C11 13.897 10.103 13 9 13Z" fill="#C4C6D2"/>
<path d="M9.99999 21C9.99999 21.5513 9.55125 22 9 22H3.00001C2.44876 22 2.00003 21.5513 2.00003 21V15C2.00003 14.4488 2.44876 14 3.00001 14H9M9 13H3.00001C1.89695 13 1 13.897 1 15V21C1 22.103 1.89695 23 3.00001 23H9C10.103 23 11 22.1031 11 21V15C11 13.897 10.103 13 9 13Z" stroke="#C4C6D2" stroke-width="0.5"/>
<path d="M20.4999 17.5H18.4999V15.5C18.4999 15.2236 18.2763 14.9999 17.9999 14.9999C17.7235 14.9999 17.4999 15.2236 17.4999 15.5V17.5H15.4999C15.2235 17.5 14.9999 17.7236 14.9999 18C14.9999 18.2764 15.2235 18.5 15.4999 18.5H17.5V20.5C17.5 20.7763 17.7236 21 18 21C18.2763 21 18.5 20.7763 18.5 20.5V18.5H20.4999C20.7763 18.5 21 18.2763 21 17.9999C21 17.7236 20.7763 17.5 20.4999 17.5Z" fill="#C4C6D2" stroke="#C4C6D2" stroke-width="0.5"/>
</svg>
