<svg width="64" height="48" viewBox="0 0 64 48" fill="none" xmlns="http://www.w3.org/2000/svg">
<path fill-rule="evenodd" clip-rule="evenodd" d="M37.5352 0.153137C39.7894 0.676224 40.6517 1.99435 41.7327 3.80859H37.5352V0.153137ZM24.3614 3.96094C24.8027 3.96094 25.1231 4.17398 25.1231 4.67188C25.1231 5.09181 24.7833 5.4324 24.3636 5.43359H19.7617C19.341 5.43359 19 5.77478 19 6.19531C19 6.61604 19.341 6.95703 19.7617 6.95703H26.6172C27.0419 6.95703 27.3819 7.29782 27.3819 7.71875C27.3819 8.13948 27.0409 8.48047 26.6202 8.48047H19.7617C19.341 8.48047 19 8.82146 19 9.24219C19 9.66292 19.341 10.0039 19.7617 10.0039H21.4375V12.2891C21.4375 12.7098 21.7785 13.0508 22.1992 13.0508H23.7304C24.0033 14.3953 25.1913 15.3867 26.5918 15.3867C27.9922 15.3867 29.1803 14.3953 29.4532 13.0508H37.1874C37.4604 14.3953 38.6484 15.3867 40.0488 15.3867C41.4493 15.3867 42.6373 14.3953 42.9102 13.0508H44.2383C44.659 13.0508 45 12.7098 45 12.2891V7.71875C45 5.48378 42.6426 5.3354 42.6405 5.33203H36.7734C36.3527 5.33203 36.0117 4.99104 36.0117 4.57031V0H22.1992C21.7785 0 21.4375 0.340988 21.4375 0.761719V2.4375H20.5234C20.1027 2.4375 19.7617 2.77849 19.7617 3.19922C19.7617 3.61995 20.1027 3.96094 20.5234 3.96094H24.3614ZM41.0363 11.4793C41.5816 12.0246 41.5816 12.9091 41.0363 13.4545C40.1591 14.3316 38.6523 13.7076 38.6523 12.4668C38.6523 11.2262 40.1591 10.6022 41.0363 11.4793ZM27.5793 11.4793C28.1246 12.0246 28.1246 12.9091 27.5793 13.4545C26.7021 14.3316 25.1953 13.7076 25.1953 12.4668C25.1953 11.2262 26.7021 10.6022 27.5793 11.4793Z" fill="#53586F"/>
<path d="M8.0343 33.13C7.45363 33.13 6.88163 33.052 6.3183 32.896C5.75496 32.74 5.30863 32.5363 4.9793 32.285L5.5903 31.011C5.9023 31.245 6.28363 31.4313 6.7343 31.57C7.18496 31.7087 7.6443 31.778 8.1123 31.778C8.62363 31.778 8.9963 31.7043 9.2303 31.557C9.47296 31.401 9.5943 31.1973 9.5943 30.946C9.5943 30.6687 9.45563 30.465 9.1783 30.335C8.90963 30.205 8.4893 30.0837 7.9173 29.971C7.33663 29.841 6.8643 29.711 6.5003 29.581C6.14496 29.451 5.8373 29.2387 5.5773 28.944C5.3173 28.6493 5.1873 28.2507 5.1873 27.748C5.1873 27.2887 5.31296 26.8857 5.5643 26.539C5.8243 26.1923 6.19263 25.9237 6.6693 25.733C7.14596 25.5423 7.70496 25.447 8.3463 25.447C8.83163 25.447 9.30396 25.5033 9.7633 25.616C10.2226 25.72 10.617 25.876 10.9463 26.084L10.3873 27.358C9.79796 26.9767 9.1003 26.786 8.2943 26.786C7.8003 26.786 7.43196 26.8683 7.1893 27.033C6.94663 27.189 6.8253 27.397 6.8253 27.657C6.8253 27.9343 6.95963 28.138 7.2283 28.268C7.50563 28.3893 7.93463 28.5107 8.5153 28.632C9.0873 28.762 9.55096 28.892 9.9063 29.022C10.2616 29.1433 10.5693 29.347 10.8293 29.633C11.0893 29.919 11.2193 30.309 11.2193 30.803C11.2193 31.5137 10.9333 32.0813 10.3613 32.506C9.79796 32.922 9.0223 33.13 8.0343 33.13ZM12.3635 25.564H14.0015V28.554H17.5765V25.564H19.2145V33H17.5765V29.906H14.0015V33H12.3635V25.564ZM21.0887 25.564H22.7267V33H21.0887V25.564ZM27.8072 25.564C28.8125 25.564 29.6055 25.8023 30.1862 26.279C30.7669 26.747 31.0572 27.4013 31.0572 28.242C31.0572 29.0827 30.7625 29.7413 30.1732 30.218C29.5925 30.6947 28.8039 30.933 27.8072 30.933H26.2342V33H24.5962V25.564H27.8072ZM27.6902 29.607C28.2535 29.607 28.6782 29.49 28.9642 29.256C29.2589 29.022 29.4062 28.684 29.4062 28.242C29.4062 27.8 29.2589 27.4663 28.9642 27.241C28.6782 27.007 28.2535 26.89 27.6902 26.89H26.2342V29.607H27.6902ZM35.593 25.564C36.5983 25.564 37.3913 25.8023 37.972 26.279C38.5526 26.747 38.843 27.4013 38.843 28.242C38.843 29.0827 38.5483 29.7413 37.959 30.218C37.3783 30.6947 36.5896 30.933 35.593 30.933H34.02V33H32.382V25.564H35.593ZM35.476 29.607C36.0393 29.607 36.464 29.49 36.75 29.256C37.0446 29.022 37.192 28.684 37.192 28.242C37.192 27.8 37.0446 27.4663 36.75 27.241C36.464 27.007 36.0393 26.89 35.476 26.89H34.02V29.607H35.476ZM40.1678 25.564H41.8058V33H40.1678V25.564ZM50.5262 25.564V33H49.1742L45.3132 28.32V33H43.6752V25.564H45.0402L48.9012 30.257V25.564H50.5262ZM57.3535 29.217H58.9005V32.181C58.5191 32.4757 58.0641 32.7097 57.5355 32.883C57.0155 33.0477 56.4825 33.13 55.9365 33.13C55.1391 33.13 54.4241 32.9653 53.7915 32.636C53.1675 32.298 52.6778 31.8387 52.3225 31.258C51.9671 30.6687 51.7895 30.01 51.7895 29.282C51.7895 28.554 51.9671 27.8997 52.3225 27.319C52.6778 26.7297 53.1675 26.2703 53.7915 25.941C54.4155 25.6117 55.1175 25.447 55.8975 25.447C57.2841 25.447 58.3241 25.863 59.0175 26.695L57.9515 27.722C57.4228 27.1327 56.7468 26.838 55.9235 26.838C55.4468 26.838 55.0178 26.942 54.6365 27.15C54.2638 27.358 53.9691 27.6483 53.7525 28.021C53.5445 28.3937 53.4405 28.814 53.4405 29.282C53.4405 29.75 53.5488 30.1747 53.7655 30.556C53.9821 30.9287 54.2811 31.219 54.6625 31.427C55.0438 31.635 55.4815 31.739 55.9755 31.739C56.4781 31.739 56.9375 31.635 57.3535 31.427V29.217ZM21.0972 39.89V41.944H24.6462V43.257H21.0972V46H19.4592V38.564H25.0882V39.89H21.0972ZM30.6724 44.388H26.9154L26.2134 46H24.6144L27.9944 38.564H29.6194L32.9864 46H31.3614L30.6724 44.388ZM30.1394 43.14L28.8004 40.046L27.4614 43.14H30.1394ZM35.9736 46.13C35.393 46.13 34.821 46.052 34.2576 45.896C33.6943 45.74 33.248 45.5363 32.9186 45.285L33.5296 44.011C33.8416 44.245 34.223 44.4313 34.6736 44.57C35.1243 44.7087 35.5836 44.778 36.0516 44.778C36.563 44.778 36.9356 44.7043 37.1696 44.557C37.4123 44.401 37.5336 44.1973 37.5336 43.946C37.5336 43.6687 37.395 43.465 37.1176 43.335C36.849 43.205 36.4286 43.0837 35.8566 42.971C35.276 42.841 34.8036 42.711 34.4396 42.581C34.0843 42.451 33.7766 42.2387 33.5166 41.944C33.2566 41.6493 33.1266 41.2507 33.1266 40.748C33.1266 40.2887 33.2523 39.8857 33.5036 39.539C33.7636 39.1923 34.132 38.9237 34.6086 38.733C35.0853 38.5423 35.6443 38.447 36.2856 38.447C36.771 38.447 37.2433 38.5033 37.7026 38.616C38.162 38.72 38.5563 38.876 38.8856 39.084L38.3266 40.358C37.7373 39.9767 37.0396 39.786 36.2336 39.786C35.7396 39.786 35.3713 39.8683 35.1286 40.033C34.886 40.189 34.7646 40.397 34.7646 40.657C34.7646 40.9343 34.899 41.138 35.1676 41.268C35.445 41.3893 35.874 41.5107 36.4546 41.632C37.0266 41.762 37.4903 41.892 37.8456 42.022C38.201 42.1433 38.5086 42.347 38.7686 42.633C39.0286 42.919 39.1586 43.309 39.1586 43.803C39.1586 44.5137 38.8726 45.0813 38.3006 45.506C37.7373 45.922 36.9616 46.13 35.9736 46.13ZM41.5409 39.903H39.0969V38.564H45.6229V39.903H43.1789V46H41.5409V39.903Z" fill="#53586F"/>
</svg>
