<svg width="18" height="20" viewBox="0 0 18 20" fill="none" xmlns="http://www.w3.org/2000/svg">
<path d="M16.875 3.33328C16.8417 3.33328 16.8083 3.35007 16.7751 3.35831C16.7334 3.35007 16.7 3.33328 16.6667 3.33328H15.8333V0.833282C15.8333 0.375061 15.4584 0 15 0H2.5C1.26663 0 0.241699 0.899963 0.0416565 2.08328C0.0166321 2.14996 0 2.21664 0 2.29172V17.7083C0 18.9751 1.02493 20 2.29172 20H16.875C17.2166 20 17.5 19.7166 17.5 19.375V3.95828C17.5 3.61664 17.2166 3.33328 16.875 3.33328ZM8.75 17.0833C5.7666 17.0833 3.33328 14.65 3.33328 11.6667C3.33328 8.68332 5.7666 6.25 8.75 6.25C11.7334 6.25 14.1667 8.68332 14.1667 11.6667C14.1667 14.65 11.7334 17.0833 8.75 17.0833ZM14.1667 3.33328H2.5C2.04163 3.33328 1.66672 2.95837 1.66672 2.5C1.66672 2.04163 2.04163 1.66672 2.5 1.66672H14.1667V3.33328Z" fill="#6092DC"/>
<path d="M10 13.7502C9.78671 13.7502 9.57339 13.6686 9.41089 13.5061L8.16089 12.2561C8.00418 12.1003 7.91675 11.8885 7.91675 11.6669V9.16693C7.91675 8.70612 8.28998 8.3335 8.75003 8.3335C9.21008 8.3335 9.58331 8.70612 9.58331 9.16693V11.3219L10.5892 12.3278C10.9151 12.6536 10.9151 13.1801 10.5892 13.5061C10.4267 13.6686 10.2133 13.7502 10 13.7502Z" fill="#6092DC"/>
</svg>
