<svg width="18" height="16" viewBox="0 0 18 16" fill="none" xmlns="http://www.w3.org/2000/svg">
<path d="M13.6934 0.115399C13.5798 0.00249539 13.4095 -0.0311123 13.2616 0.0303728C13.1137 0.0918579 13.0172 0.236356 13.0172 0.396496V2.51208C10.8757 2.59726 9.80338 3.485 9.63953 3.63259C8.55912 4.51925 7.82146 5.75484 7.55353 7.1264C7.41956 7.78911 7.39556 8.46932 7.48275 9.13977L7.48306 9.14209C7.48383 9.14798 7.48476 9.15402 7.48569 9.1599L7.56994 9.64419C7.59829 9.80728 7.72513 9.93567 7.8879 9.96602C8.05083 9.99638 8.2153 9.92219 8.30048 9.78017L8.55293 9.35938C9.32854 8.06974 10.2951 7.21484 11.4262 6.81851C11.9363 6.63808 12.4768 6.55894 13.0172 6.58527V8.77643C13.0172 8.93688 13.114 9.08169 13.2623 9.14287C13.4109 9.2042 13.5815 9.16981 13.6947 9.05598L17.8846 4.84495C18.039 4.68977 18.0383 4.43871 17.8832 4.28431L13.6934 0.115399ZM13.8103 7.81559V6.2286C13.8103 6.03407 13.669 5.8682 13.4768 5.83723C13.1377 5.78256 12.233 5.69567 11.164 6.07032C10.0235 6.46989 9.03676 7.25619 8.22413 8.41155C8.22181 8.03195 8.25774 7.65298 8.33146 7.2805C8.57244 6.06211 9.18451 5.0387 10.1505 4.23908C10.159 4.23211 10.167 4.22483 10.1749 4.21709C10.2026 4.19138 11.2096 3.28227 13.4106 3.29869H13.4135C13.6325 3.29869 13.8101 3.12104 13.8103 2.90205V1.35037L17.043 4.5668L13.8103 7.81559Z" fill="white"/>
<path d="M16.5471 11.6745C16.3282 11.6745 16.1506 11.8519 16.1506 12.0709V13.7465C16.15 14.4032 15.6178 14.9352 14.9611 14.9359H1.98239C1.32572 14.9352 0.79373 14.4032 0.792955 13.7465V4.30075C0.79373 3.64408 1.32572 3.11209 1.98239 3.11131H4.72443C4.94343 3.11131 5.12091 2.93383 5.12091 2.71484C5.12091 2.49585 4.94343 2.31836 4.72443 2.31836H1.98239C0.888048 2.3196 0.00123899 3.20641 0 4.30075V13.7465C0.00123899 14.8409 0.888048 15.7277 1.98239 15.7289H14.9611C16.0555 15.7277 16.9423 14.8409 16.9435 13.7465V12.0709C16.9435 11.8519 16.766 11.6745 16.5471 11.6745Z" fill="white"/>
</svg>
