<svg width="21" height="22" viewBox="0 0 21 22" fill="none" xmlns="http://www.w3.org/2000/svg">
<path d="M13.0312 17.1567H15.0938V19.2192C15.0938 19.3104 15.13 19.3978 15.1944 19.4623C15.2589 19.5268 15.3463 19.563 15.4375 19.563C15.5287 19.563 15.6161 19.5268 15.6806 19.4623C15.745 19.3978 15.7812 19.3104 15.7812 19.2192V17.1567H17.8438C17.9349 17.1567 18.0224 17.1205 18.0868 17.0561C18.1513 16.9916 18.1875 16.9042 18.1875 16.813C18.1875 16.7218 18.1513 16.6344 18.0868 16.5699C18.0224 16.5055 17.9349 16.4692 17.8438 16.4692H15.7812V14.4067C15.7812 14.3156 15.745 14.2281 15.6806 14.1637C15.6161 14.0992 15.5287 14.063 15.4375 14.063C15.3463 14.063 15.2589 14.0992 15.1944 14.1637C15.13 14.2281 15.0938 14.3156 15.0938 14.4067V16.4692H13.0312C12.9401 16.4692 12.8526 16.5055 12.7882 16.5699C12.7237 16.6344 12.6875 16.7218 12.6875 16.813C12.6875 16.9042 12.7237 16.9916 12.7882 17.0561C12.8526 17.1205 12.9401 17.1567 13.0312 17.1567Z" fill="#53586F" stroke="#53586F" stroke-width="0.2"/>
<path d="M1.17914 18.1461C1.33666 18.2321 5.0813 20.2506 8.90625 20.2506C9.87414 20.2465 10.8391 20.1439 11.7862 19.9446C12.3115 20.557 12.9824 21.0276 13.7372 21.3129C14.4919 21.5982 15.3063 21.6891 16.1054 21.5773C16.9045 21.4654 17.6626 21.1544 18.31 20.6729C18.9575 20.1914 19.4734 19.5547 19.8104 18.8216C20.1473 18.0884 20.2945 17.2823 20.2384 16.4774C20.1823 15.6725 19.9246 14.8946 19.4891 14.2153C19.0536 13.5361 18.4543 12.9772 17.7463 12.5902C17.0383 12.2032 16.2444 12.0004 15.4375 12.0006C15.3455 12.0006 15.2541 12.0034 15.1634 12.0086C14.0714 10.3753 12.5325 9.26289 10.7756 8.80209C11.6019 8.38202 12.2627 7.69588 12.6513 6.85433C13.0399 6.01278 13.1337 5.06487 12.9176 4.16346C12.7016 3.26205 12.1882 2.45969 11.4603 1.88577C10.7324 1.31185 9.8324 0.999819 8.90546 1C7.97851 1.00018 7.07865 1.31256 6.35098 1.88677C5.6233 2.46098 5.11024 3.26354 4.89452 4.16503C4.6788 5.06652 4.773 6.01439 5.16193 6.85579C5.55087 7.69719 6.21186 8.38307 7.03831 8.80282C5.61347 9.17665 4.32462 9.98051 3.29964 11.1563C1.81671 12.8574 1 15.2326 1 17.8444C1 17.9061 1.01664 17.9667 1.04816 18.0198C1.07968 18.0729 1.12492 18.1166 1.17914 18.1461ZM15.4375 12.6881C16.2533 12.6881 17.0509 12.93 17.7292 13.3833C18.4076 13.8366 18.9363 14.4808 19.2485 15.2345C19.5607 15.9883 19.6424 16.8177 19.4832 17.6178C19.3241 18.418 18.9312 19.153 18.3543 19.7299C17.7774 20.3068 17.0424 20.6997 16.2422 20.8588C15.4421 21.018 14.6127 20.9363 13.8589 20.6241C13.1052 20.3119 12.4609 19.7832 12.0077 19.1048C11.5544 18.4265 11.3125 17.629 11.3125 16.8131C11.3137 15.7195 11.7487 14.671 12.522 13.8976C13.2954 13.1243 14.3439 12.6893 15.4375 12.6881ZM5.46875 5.1256C5.46875 4.44573 5.67036 3.78112 6.04807 3.21583C6.42579 2.65053 6.96266 2.20994 7.59078 1.94977C8.2189 1.68959 8.91006 1.62152 9.57687 1.75415C10.2437 1.88679 10.8562 2.21418 11.3369 2.69492C11.8177 3.17566 12.1451 3.78817 12.2777 4.45498C12.4103 5.12179 12.3423 5.81295 12.0821 6.44108C11.8219 7.0692 11.3813 7.60606 10.816 7.98378C10.2507 8.3615 9.58612 8.5631 8.90625 8.5631C7.99489 8.56207 7.12115 8.19957 6.47671 7.55514C5.83228 6.91071 5.46978 6.03697 5.46875 5.1256ZM3.81789 11.6081C5.14313 10.0878 6.95023 9.2506 8.90625 9.2506C11.0852 9.2506 13.0613 10.2879 14.3984 12.1139C13.6491 12.2793 12.9503 12.6215 12.3603 13.112C11.7702 13.6025 11.3061 14.227 11.0066 14.9334C10.7071 15.6399 10.5809 16.4077 10.6386 17.1728C10.6963 17.9379 10.9362 18.6781 11.3383 19.3316C10.5363 19.4826 9.72228 19.5601 8.90625 19.5631C5.71848 19.5631 2.47843 18.0341 1.6893 17.6362C1.73103 15.2733 2.48315 13.1393 3.81789 11.6081Z" fill="#53586F" stroke="#53586F" stroke-width="0.2"/>
</svg>
