<svg width="18" height="18" viewBox="0 0 18 18" fill="none" xmlns="http://www.w3.org/2000/svg">
    <path d="M5.73591 14.2454C4.69913 14.2454 3.8587 15.0858 3.8587 16.1226C3.8587 17.1593 4.69917 17.9998 5.73591 17.9998C6.77268 17.9998 7.61311 17.1593 7.61311 16.1226C7.61315 15.0858 6.77268 14.2454 5.73591 14.2454ZM5.73591 17.1655C5.15993 17.1655 4.69303 16.6986 4.69303 16.1226C4.69303 15.5466 5.15993 15.0797 5.73591 15.0797C6.31189 15.0797 6.77879 15.5466 6.77879 16.1226C6.77883 16.6986 6.31189 17.1655 5.73591 17.1655Z" fill="#6092DC" />
    <path d="M13.662 14.2454C12.6252 14.2454 11.7848 15.0858 11.7848 16.1226C11.7848 17.1593 12.6253 17.9998 13.662 17.9998C14.6987 17.9998 15.5392 17.1593 15.5392 16.1226C15.5392 15.0858 14.6988 14.2454 13.662 14.2454ZM13.662 17.1655C13.086 17.1655 12.6191 16.6986 12.6191 16.1226C12.6191 15.5466 13.086 15.0797 13.662 15.0797C14.238 15.0797 14.7049 15.5466 14.7049 16.1226C14.7049 16.6986 14.238 17.1655 13.662 17.1655Z" fill="#6092DC" />
    <path d="M17.8962 3.29501C17.8093 3.20011 17.6905 3.1407 17.5625 3.12813L3.98389 2.94041L3.60845 1.7932C3.34396 1.02631 2.62581 0.508584 1.81465 0.5H0.417161C0.186762 0.5 0 0.686762 0 0.917161C0 1.14756 0.186762 1.33432 0.417161 1.33432H1.81465C2.26822 1.34434 2.66761 1.63559 2.81585 2.06436L5.46482 10.053L5.25626 10.5327C5.02362 11.1326 5.09349 11.8078 5.44398 12.3473C5.79111 12.8773 6.37512 13.2043 7.00834 13.2234H15.1221C15.3525 13.2234 15.5393 13.0366 15.5393 12.8062C15.5393 12.5758 15.3525 12.3891 15.1221 12.3891H7.0083C6.65071 12.3801 6.32154 12.192 6.13226 11.8885C5.9451 11.5886 5.90665 11.2193 6.02798 10.8873L6.19486 10.5118L14.9761 9.59406C15.9406 9.48783 16.7341 8.78629 16.9576 7.84198L17.9588 3.64953C18.0039 3.5288 17.98 3.39302 17.8962 3.29501ZM16.1441 7.6543C16.0087 8.26217 15.4926 8.71056 14.8718 8.75978L6.19486 9.65666L4.25505 3.77473L17.041 3.96245L16.1441 7.6543Z" fill="#6092DC" />
</svg>
