<svg width="20" height="14" viewBox="0 0 20 14" fill="none" xmlns="http://www.w3.org/2000/svg">
<path d="M12.0926 6.38918L7.69898 3.75344C7.62706 3.71031 7.54863 3.6875 7.4721 3.6875C7.253 3.6875 7.08777 3.86461 7.08777 4.09949V9.38207C7.08777 9.61695 7.253 9.79406 7.4721 9.79406C7.54863 9.79406 7.62706 9.77129 7.69898 9.72813L12.0927 7.0925C12.225 7.01309 12.3039 6.88164 12.3039 6.74082C12.3039 6.60012 12.225 6.46863 12.0926 6.38918ZM7.67374 9.06004V4.4216L11.5399 6.7409L7.67374 9.06004Z" fill="white"/>
<path d="M3.22266 3.41016C3.22266 3.18398 3.03867 3 2.8125 3H1.75781C1.53164 3 1.34766 3.18398 1.34766 3.41016V4.46484C1.34766 4.69102 1.53164 4.875 1.75781 4.875H2.8125C3.03867 4.875 3.22266 4.69102 3.22266 4.46484V3.41016ZM2.63672 4.28906H1.93359V3.58594H2.63672V4.28906Z" fill="white"/>
<path d="M2.8125 7.58789H1.75781C1.53164 7.58789 1.34766 7.77187 1.34766 7.99805V9.05273C1.34766 9.27891 1.53164 9.46289 1.75781 9.46289H2.8125C3.03867 9.46289 3.22266 9.27891 3.22266 9.05273V7.99805C3.22266 7.77187 3.03867 7.58789 2.8125 7.58789ZM2.63672 8.87695H1.93359V8.17383H2.63672V8.87695Z" fill="white"/>
<path d="M16.1328 4.875H17.1875C17.4137 4.875 17.5977 4.69102 17.5977 4.46484V3.41016C17.5977 3.18398 17.4137 3 17.1875 3H16.1328C15.9066 3 15.7227 3.18398 15.7227 3.41016V4.46484C15.7227 4.69102 15.9066 4.875 16.1328 4.875ZM16.3086 3.58594H17.0117V4.28906H16.3086V3.58594Z" fill="white"/>
<path d="M18.8978 7.70875V0.674453C18.8978 0.383906 18.6618 0.1475 18.3718 0.1475H3.28125C3.11941 0.1475 2.98828 0.278633 2.98828 0.440469C2.98828 0.602305 3.11941 0.733437 3.28125 0.733437H3.91922V12.3606H0.585938V0.733398H1.91406C2.0759 0.733398 2.20703 0.602266 2.20703 0.44043C2.20703 0.278594 2.0759 0.147461 1.91406 0.147461H0.525977C0.235938 0.147461 0 0.383867 0 0.674453V12.4196C0 12.7102 0.235938 12.9466 0.525977 12.9466H14.0861C14.7143 13.5099 15.5425 13.8529 16.4491 13.8529C17.203 13.8529 17.9232 13.6187 18.5318 13.1756C18.6626 13.0804 18.6914 12.8971 18.5962 12.7663C18.5009 12.6355 18.3177 12.6068 18.1869 12.702C17.6792 13.0716 17.0782 13.267 16.449 13.267C14.8141 13.267 13.4841 11.9307 13.4841 10.2881C13.4841 8.64555 14.8142 7.30922 16.449 7.30922C18.0839 7.30922 19.414 8.64555 19.414 10.2881C19.414 10.8114 19.2772 11.3259 19.0182 11.7761C18.9376 11.9164 18.9859 12.0955 19.1262 12.1761C19.2665 12.2568 19.4455 12.2084 19.5262 12.0682C19.8362 11.5292 20 10.9137 20 10.2881C20 9.27453 19.5765 8.35844 18.8978 7.70875ZM18.3118 7.25441C17.7699 6.91785 17.1318 6.72324 16.449 6.72324C15.9248 6.72324 15.4268 6.83801 14.9785 7.04355V3.21113C14.9785 3.0493 14.8474 2.91816 14.6855 2.91816C14.5237 2.91816 14.3926 3.0493 14.3926 3.21113V7.38344C13.4887 8.03031 12.8981 9.09125 12.8981 10.288C12.8981 11.0604 13.1442 11.7762 13.5616 12.3606H4.50516V0.733398H14.3926V1.80488C14.3926 1.96672 14.5237 2.09785 14.6856 2.09785C14.8474 2.09785 14.9786 1.96672 14.9786 1.80488V0.733398H18.3118V7.25441Z" fill="white"/>
<path d="M16.0779 12.6121H16.8201C17.0678 12.6121 17.2694 12.4106 17.2694 12.1629V10.3537H17.7113C17.8881 10.3537 18.0491 10.2494 18.1214 10.088C18.1936 9.92668 18.1642 9.73719 18.0464 9.60519L16.7841 8.19199C16.6989 8.09668 16.5768 8.04199 16.449 8.04199C16.3212 8.04199 16.1992 8.09664 16.114 8.19199L14.8515 9.60527C14.7338 9.73719 14.7044 9.92668 14.7767 10.088C14.849 10.2494 15.0099 10.3537 15.1867 10.3537H15.6287V12.1629C15.6287 12.4106 15.8302 12.6121 16.0779 12.6121ZM15.4921 9.76773L16.449 8.69641L17.406 9.76773H16.9764C16.8145 9.76773 16.6834 9.89887 16.6834 10.0607V12.0262H16.2147V10.0607C16.2147 9.89887 16.0835 9.76773 15.9217 9.76773H15.4921Z" fill="white"/>
</svg>
