<svg width="94" height="79" viewBox="0 0 94 79" fill="none" xmlns="http://www.w3.org/2000/svg">
<path d="M58.0555 7.32322C55.6029 4.78623 52.4287 3.17301 48.9838 2.68227L49.9657 1.70039C50.3547 1.31138 50.3547 0.680716 49.9657 0.291707C49.5767 -0.0972356 48.946 -0.0972356 48.557 0.291707L46.0344 2.81422C45.6454 3.20316 45.6454 3.83389 46.0344 4.2229L48.5569 6.74541C48.7514 6.93992 49.0064 7.0372 49.2612 7.0372C49.5161 7.0372 49.7711 6.93992 49.9655 6.74541C50.3545 6.35647 50.3545 5.72574 49.9655 5.33673L49.4014 4.77261C52.1382 5.30818 54.6483 6.66513 56.623 8.70779C59.1136 11.2841 60.4852 14.6769 60.4852 18.2612C60.4854 25.8411 54.3186 32.0078 46.7388 32.0078C39.159 32.0078 32.9922 25.8411 32.9922 18.2613C32.9922 15.3689 33.8798 12.6022 35.5593 10.2602C37.2038 7.96669 39.4709 6.25533 42.1157 5.31117C42.6338 5.12616 42.9038 4.55626 42.7189 4.03809C42.5339 3.51999 41.9639 3.24998 41.4458 3.43492C38.4175 4.51608 35.8221 6.47481 33.9402 9.09926C32.0167 11.7818 31 14.95 31 18.2613C31 22.4653 32.6371 26.4177 35.6098 29.3903C38.5825 32.3628 42.5348 34 46.7388 34C50.9428 34 54.8951 32.3629 57.8678 29.3903C60.8405 26.4176 62.4776 22.4653 62.4776 18.2613C62.4776 14.1575 60.9071 10.2729 58.0555 7.32322Z" fill="#53586F"/>
<path d="M36.5039 18.2612C36.5039 23.9044 41.095 28.4954 46.7382 28.4954C52.3813 28.4954 56.9724 23.9044 56.9724 18.2612C56.9724 12.6181 52.3813 8.02686 46.7382 8.02686C41.0949 8.02686 36.5039 12.618 36.5039 18.2612ZM47.3497 19.1478C45.9158 18.6409 45.0851 18.2414 44.4824 17.7687C43.7406 17.1869 43.4011 16.1821 43.5962 15.1465C43.8079 14.023 44.5913 13.1287 45.6409 12.8125C45.6554 12.8081 45.6697 12.8046 45.6842 12.8003V12.3993C45.6842 11.8491 46.1302 11.4032 46.6803 11.4032C47.2304 11.4032 47.6764 11.8491 47.6764 12.3993V12.7369C48.3719 12.8998 48.8573 13.2177 49.0535 13.3644C49.4941 13.6938 49.5843 14.318 49.2549 14.7587C48.9255 15.1993 48.3015 15.2894 47.8607 14.9601C47.6498 14.8024 47.0676 14.4632 46.2155 14.72C45.7121 14.8716 45.5819 15.3671 45.5539 15.5154C45.4987 15.8082 45.5621 16.0839 45.7118 16.2012C46.2328 16.6098 47.1677 16.9705 48.0135 17.2695C49.5608 17.8164 50.4212 19.2498 50.1545 20.8362C50.0235 21.6151 49.6317 22.3378 49.0511 22.8713C48.6518 23.2381 48.1865 23.499 47.6764 23.6461V24.123C47.6764 24.6731 47.2304 25.1191 46.6803 25.1191C46.1302 25.1191 45.6842 24.6731 45.6842 24.123V23.7441C45.0215 23.6662 44.4686 23.4621 43.7249 22.9756C43.2645 22.6744 43.1354 22.0571 43.4366 21.5967C43.7378 21.1362 44.3552 21.0072 44.8155 21.3084C45.505 21.7595 45.7657 21.8009 46.6736 21.7946C47.5675 21.7887 48.0862 21.1224 48.1898 20.5059C48.2406 20.2048 48.26 19.4696 47.3497 19.1478Z" fill="#53586F"/>
<path d="M19.5349 53L19.5229 48.272L17.1709 52.184H16.6309L14.2789 48.38V53H13.1629V46.184H14.1589L16.9189 50.768L19.6309 46.184H20.6389L20.6509 53H19.5349ZM25.6952 53.096C24.9992 53.096 24.3672 52.944 23.7992 52.64C23.2312 52.336 22.7872 51.92 22.4672 51.392C22.1472 50.856 21.9872 50.256 21.9872 49.592C21.9872 48.928 22.1472 48.332 22.4672 47.804C22.7872 47.268 23.2312 46.848 23.7992 46.544C24.3672 46.24 24.9992 46.088 25.6952 46.088C26.3992 46.088 27.0312 46.24 27.5912 46.544C28.1592 46.848 28.6032 47.268 28.9232 47.804C29.2432 48.332 29.4032 48.928 29.4032 49.592C29.4032 50.256 29.2432 50.856 28.9232 51.392C28.6032 51.92 28.1592 52.336 27.5912 52.64C27.0312 52.944 26.3992 53.096 25.6952 53.096ZM25.6952 52.088C26.1752 52.088 26.6072 51.98 26.9912 51.764C27.3752 51.548 27.6752 51.252 27.8912 50.876C28.1152 50.5 28.2272 50.072 28.2272 49.592C28.2272 49.112 28.1152 48.684 27.8912 48.308C27.6752 47.932 27.3752 47.636 26.9912 47.42C26.6072 47.204 26.1752 47.096 25.6952 47.096C25.2152 47.096 24.7832 47.204 24.3992 47.42C24.0152 47.636 23.7112 47.932 23.4872 48.308C23.2712 48.684 23.1632 49.112 23.1632 49.592C23.1632 50.072 23.2712 50.5 23.4872 50.876C23.7112 51.252 24.0152 51.548 24.3992 51.764C24.7832 51.98 25.2152 52.088 25.6952 52.088ZM36.7959 46.184V53H35.8359L31.8999 48.188V53H30.7359V46.184H31.6959L35.6319 51.02V46.184H36.7959ZM43.8785 52.028V53H38.7665V46.184H43.7465V47.144H39.9305V49.064H43.3265V50.012H39.9305V52.028H43.8785ZM47.9882 50.78V53H46.8242V50.744L44.0282 46.184H45.2642L47.4362 49.676L49.5962 46.184H50.7962L47.9882 50.78ZM59.2909 49.46C59.6989 49.572 60.0109 49.772 60.2269 50.06C60.4509 50.348 60.5629 50.712 60.5629 51.152C60.5629 51.744 60.3309 52.2 59.8669 52.52C59.4109 52.84 58.7429 53 57.8629 53H54.5029V46.184H57.6709C58.4789 46.184 59.1029 46.344 59.5429 46.664C59.9829 46.976 60.2029 47.404 60.2029 47.948C60.2029 48.3 60.1229 48.604 59.9629 48.86C59.8029 49.116 59.5789 49.316 59.2909 49.46ZM55.6669 47.072V49.112H57.5509C58.0229 49.112 58.3869 49.024 58.6429 48.848C58.9069 48.672 59.0389 48.42 59.0389 48.092C59.0389 47.756 58.9109 47.504 58.6549 47.336C58.3989 47.16 58.0309 47.072 57.5509 47.072H55.6669ZM57.8029 52.112C58.8589 52.112 59.3869 51.76 59.3869 51.056C59.3869 50.352 58.8589 50 57.8029 50H55.6669V52.112H57.8029ZM66.2096 51.38H62.5496L61.8296 53H60.6896L63.8096 46.184H64.9616L68.0936 53H66.9176L66.2096 51.38ZM65.8016 50.456L64.3856 47.24L62.9576 50.456H65.8016ZM71.8312 53.096C71.1352 53.096 70.5032 52.944 69.9352 52.64C69.3752 52.336 68.9352 51.92 68.6152 51.392C68.2952 50.856 68.1352 50.256 68.1352 49.592C68.1352 48.928 68.2952 48.332 68.6152 47.804C68.9352 47.268 69.3752 46.848 69.9352 46.544C70.5032 46.24 71.1352 46.088 71.8312 46.088C73.0072 46.088 73.9032 46.444 74.5192 47.156L73.7752 47.912C73.2632 47.368 72.6272 47.096 71.8672 47.096C71.3792 47.096 70.9392 47.204 70.5472 47.42C70.1632 47.628 69.8592 47.924 69.6352 48.308C69.4192 48.684 69.3112 49.112 69.3112 49.592C69.3112 50.064 69.4192 50.492 69.6352 50.876C69.8592 51.252 70.1632 51.548 70.5472 51.764C70.9392 51.98 71.3792 52.088 71.8672 52.088C72.6192 52.088 73.2552 51.812 73.7752 51.26L74.5192 52.016C73.8952 52.736 72.9992 53.096 71.8312 53.096ZM78.0517 50.06L76.8877 51.236V53H75.7237V46.184H76.8877V49.796L80.4517 46.184H81.7477L78.8317 49.256L81.9397 53H80.5597L78.0517 50.06ZM28.3077 59.9C28.8597 59.9 29.3517 60.004 29.7837 60.212C30.2237 60.42 30.5677 60.72 30.8157 61.112C31.0637 61.496 31.1877 61.94 31.1877 62.444C31.1877 62.972 31.0557 63.436 30.7917 63.836C30.5357 64.236 30.1797 64.548 29.7237 64.772C29.2757 64.988 28.7717 65.096 28.2117 65.096C27.0837 65.096 26.2117 64.732 25.5957 64.004C24.9877 63.276 24.6837 62.244 24.6837 60.908C24.6837 59.972 24.8477 59.176 25.1757 58.52C25.5117 57.856 25.9757 57.356 26.5677 57.02C27.1677 56.676 27.8637 56.504 28.6557 56.504C29.0637 56.504 29.4477 56.548 29.8077 56.636C30.1677 56.716 30.4797 56.836 30.7437 56.996L30.2877 57.932C29.8877 57.668 29.3517 57.536 28.6797 57.536C27.8077 57.536 27.1237 57.808 26.6277 58.352C26.1317 58.888 25.8837 59.672 25.8837 60.704C25.8837 60.832 25.8877 60.932 25.8957 61.004C26.1357 60.644 26.4637 60.372 26.8797 60.188C27.3037 59.996 27.7797 59.9 28.3077 59.9ZM28.1637 64.124C28.7157 64.124 29.1637 63.976 29.5077 63.68C29.8517 63.384 30.0237 62.988 30.0237 62.492C30.0237 61.996 29.8477 61.604 29.4957 61.316C29.1517 61.02 28.6877 60.872 28.1037 60.872C27.7277 60.872 27.3917 60.944 27.0957 61.088C26.8077 61.232 26.5797 61.428 26.4117 61.676C26.2517 61.924 26.1717 62.2 26.1717 62.504C26.1717 62.8 26.2477 63.072 26.3997 63.32C26.5597 63.56 26.7877 63.756 27.0837 63.908C27.3877 64.052 27.7477 64.124 28.1637 64.124ZM35.1619 65.096C34.4979 65.096 33.9059 64.928 33.3859 64.592C32.8739 64.248 32.4699 63.752 32.1739 63.104C31.8779 62.456 31.7299 61.688 31.7299 60.8C31.7299 59.912 31.8779 59.144 32.1739 58.496C32.4699 57.848 32.8739 57.356 33.3859 57.02C33.9059 56.676 34.4979 56.504 35.1619 56.504C35.8179 56.504 36.4019 56.676 36.9139 57.02C37.4339 57.356 37.8419 57.848 38.1379 58.496C38.4339 59.144 38.5819 59.912 38.5819 60.8C38.5819 61.688 38.4339 62.456 38.1379 63.104C37.8419 63.752 37.4339 64.248 36.9139 64.592C36.4019 64.928 35.8179 65.096 35.1619 65.096ZM35.1619 64.028C35.8339 64.028 36.3699 63.752 36.7699 63.2C37.1779 62.648 37.3819 61.848 37.3819 60.8C37.3819 59.752 37.1779 58.952 36.7699 58.4C36.3699 57.848 35.8339 57.572 35.1619 57.572C34.4819 57.572 33.9379 57.848 33.5299 58.4C33.1299 58.952 32.9299 59.752 32.9299 60.8C32.9299 61.848 33.1299 62.648 33.5299 63.2C33.9379 63.752 34.4819 64.028 35.1619 64.028ZM39.5638 61.208H42.7918V62.204H39.5638V61.208ZM44.2776 58.184H47.2416C48.0016 58.184 48.6656 58.324 49.2336 58.604C49.8016 58.884 50.2376 59.284 50.5416 59.804C50.8536 60.316 51.0096 60.912 51.0096 61.592C51.0096 62.272 50.8536 62.872 50.5416 63.392C50.2376 63.904 49.8016 64.3 49.2336 64.58C48.6656 64.86 48.0016 65 47.2416 65H44.2776V58.184ZM47.1936 64.028C48.0256 64.028 48.6736 63.812 49.1376 63.38C49.6016 62.94 49.8336 62.344 49.8336 61.592C49.8336 60.832 49.6016 60.236 49.1376 59.804C48.6736 59.364 48.0256 59.144 47.1936 59.144H45.4416V64.028H47.1936ZM56.5702 63.38H52.9102L52.1902 65H51.0502L54.1702 58.184H55.3222L58.4542 65H57.2782L56.5702 63.38ZM56.1622 62.456L54.7462 59.24L53.3182 62.456H56.1622ZM61.5651 62.78V65H60.4011V62.744L57.6051 58.184H58.8411L61.0131 61.676L63.1731 58.184H64.3731L61.5651 62.78ZM67.0333 65.096C66.5053 65.096 65.9893 65.024 65.4853 64.88C64.9893 64.728 64.6013 64.528 64.3213 64.28L64.7773 63.368C65.0493 63.592 65.3893 63.772 65.7973 63.908C66.2133 64.044 66.6413 64.112 67.0813 64.112C67.6173 64.112 68.0093 64.024 68.2573 63.848C68.5133 63.672 68.6413 63.444 68.6413 63.164C68.6413 62.948 68.5653 62.772 68.4133 62.636C68.2693 62.5 68.0853 62.396 67.8613 62.324C67.6373 62.252 67.3333 62.176 66.9493 62.096C66.4293 61.984 66.0053 61.868 65.6773 61.748C65.3573 61.628 65.0813 61.44 64.8493 61.184C64.6253 60.92 64.5133 60.564 64.5133 60.116C64.5133 59.508 64.7573 59.02 65.2453 58.652C65.7413 58.276 66.4133 58.088 67.2613 58.088C67.6933 58.088 68.1093 58.14 68.5093 58.244C68.9173 58.34 69.2653 58.484 69.5533 58.676L69.1333 59.612C68.6133 59.252 67.9773 59.072 67.2253 59.072C66.7053 59.072 66.3173 59.164 66.0613 59.348C65.8053 59.524 65.6773 59.756 65.6773 60.044C65.6773 60.26 65.7493 60.436 65.8933 60.572C66.0453 60.708 66.2333 60.812 66.4573 60.884C66.6893 60.956 66.9973 61.032 67.3813 61.112C67.9093 61.232 68.3293 61.352 68.6413 61.472C68.9613 61.584 69.2333 61.768 69.4573 62.024C69.6893 62.28 69.8053 62.624 69.8053 63.056C69.8053 63.68 69.5573 64.176 69.0613 64.544C68.5733 64.912 67.8973 65.096 67.0333 65.096ZM21.3278 73.556H22.4558V76.22C22.1278 76.5 21.7318 76.716 21.2678 76.868C20.8038 77.02 20.3238 77.096 19.8278 77.096C19.1158 77.096 18.4718 76.944 17.8958 76.64C17.3278 76.336 16.8798 75.92 16.5518 75.392C16.2318 74.856 16.0718 74.256 16.0718 73.592C16.0718 72.928 16.2318 72.332 16.5518 71.804C16.8718 71.268 17.3158 70.848 17.8838 70.544C18.4518 70.24 19.0838 70.088 19.7798 70.088C20.9798 70.088 21.8958 70.444 22.5278 71.156L21.7838 71.912C21.2638 71.368 20.6038 71.096 19.8038 71.096C19.3158 71.096 18.8758 71.204 18.4838 71.42C18.0998 71.628 17.7958 71.924 17.5718 72.308C17.3558 72.684 17.2478 73.112 17.2478 73.592C17.2478 74.064 17.3558 74.492 17.5718 74.876C17.7958 75.252 18.1038 75.548 18.4958 75.764C18.8958 75.98 19.3438 76.088 19.8398 76.088C20.4158 76.088 20.9118 75.96 21.3278 75.704V73.556ZM27.1154 77.096C26.1794 77.096 25.4474 76.832 24.9194 76.304C24.3914 75.776 24.1274 75.036 24.1274 74.084V70.184H25.2914V74.06C25.2914 74.724 25.4474 75.228 25.7594 75.572C26.0714 75.916 26.5274 76.088 27.1274 76.088C27.7194 76.088 28.1714 75.916 28.4834 75.572C28.8034 75.228 28.9634 74.724 28.9634 74.06V70.184H30.1034V74.084C30.1034 75.036 29.8394 75.776 29.3114 76.304C28.7834 76.832 28.0514 77.096 27.1154 77.096ZM36.1639 75.38H32.5039L31.7839 77H30.6439L33.7639 70.184H34.9159L38.0479 77H36.8719L36.1639 75.38ZM35.7559 74.456L34.3399 71.24L32.9119 74.456H35.7559ZM43.4027 77L41.9387 74.96C41.8747 74.968 41.7707 74.972 41.6267 74.972H40.0067V77H38.8427V70.184H41.6267C42.5307 70.184 43.2427 70.396 43.7627 70.82C44.2827 71.244 44.5427 71.832 44.5427 72.584C44.5427 73.104 44.4107 73.548 44.1467 73.916C43.8907 74.284 43.5227 74.56 43.0427 74.744L44.6627 77H43.4027ZM41.5547 74.024C42.1467 74.024 42.5947 73.9 42.8987 73.652C43.2107 73.404 43.3667 73.048 43.3667 72.584C43.3667 72.12 43.2107 71.764 42.8987 71.516C42.5947 71.268 42.1467 71.144 41.5547 71.144H40.0067V74.024H41.5547ZM50.3853 75.38H46.7253L46.0053 77H44.8653L47.9853 70.184H49.1373L52.2693 77H51.0933L50.3853 75.38ZM49.9773 74.456L48.5613 71.24L47.1333 74.456H49.9773ZM59.1241 70.184V77H58.1641L54.2281 72.188V77H53.0641V70.184H54.0241L57.9601 75.02V70.184H59.1241ZM62.3067 71.144H59.9787V70.184H65.7987V71.144H63.4707V77H62.3067V71.144ZM71.7647 76.028V77H66.6527V70.184H71.6327V71.144H67.8167V73.064H71.2127V74.012H67.8167V76.028H71.7647ZM78.2484 76.028V77H73.1364V70.184H78.1164V71.144H74.3004V73.064H77.6964V74.012H74.3004V76.028H78.2484Z" fill="#53586F"/>
</svg>
