<svg width="20" height="20" viewBox="0 0 20 20" fill="none" xmlns="http://www.w3.org/2000/svg">
<path d="M5.3125 7.03125C3.69715 7.03125 2.34375 8.34559 2.34375 9.96094C2.34375 11.5763 3.69715 12.8906 5.3125 12.8906C6.92785 12.8906 8.28125 11.5763 8.28125 9.96094C8.28125 8.34559 6.92785 7.03125 5.3125 7.03125Z" fill="#6092DC"/>
<path d="M14.7266 0C11.8186 0 9.45312 2.36551 9.45312 5.27344C9.45312 6.18039 9.68488 7.06559 10.1249 7.85066L9.48344 9.77555C9.41535 9.97867 9.46398 10.2018 9.60934 10.3592C9.75848 10.5205 9.98121 10.5803 10.181 10.5291L12.3571 9.98555C13.0884 10.3535 13.9026 10.5469 14.7266 10.5469C17.6345 10.5469 20 8.18137 20 5.27344C20 2.36551 17.6345 0 14.7266 0ZM15.3125 7.61719C15.3125 7.94105 15.0504 8.20312 14.7266 8.20312C14.4027 8.20312 14.1406 7.94105 14.1406 7.61719V5.27344C14.1406 4.94957 14.4027 4.6875 14.7266 4.6875C15.0504 4.6875 15.3125 4.94957 15.3125 5.27344V7.61719ZM14.7266 4.10156C14.403 4.10156 14.1406 3.83922 14.1406 3.51562C14.1406 3.19203 14.403 2.92969 14.7266 2.92969C15.0502 2.92969 15.3125 3.19203 15.3125 3.51562C15.3125 3.83922 15.0502 4.10156 14.7266 4.10156Z" fill="#6092DC"/>
<path d="M8.38711 12.6943C7.63582 13.5281 6.52027 14.0628 5.3125 14.0628C4.10473 14.0628 2.98918 13.5281 2.23789 12.6943C0.888555 13.6504 0 15.2165 0 16.9925V19.4144C0 19.7382 0.26207 20.0003 0.585938 20.0003H10.0391C10.3629 20.0003 10.625 19.7382 10.625 19.4144V16.9925C10.625 15.2165 9.73645 13.6504 8.38711 12.6943Z" fill="#6092DC"/>
</svg>
