<svg width="7" height="10" viewBox="0 0 7 10" fill="none" xmlns="http://www.w3.org/2000/svg">
<g opacity="0.5">
<path d="M6.44676 1.71245C5.83531 0.665107 4.74923 0.0252441 3.54149 0.000791015C3.48994 -0.000263672 3.43804 -0.000263672 3.38647 0.000791015C2.17875 0.0252441 1.09267 0.665107 0.481196 1.71245C-0.143819 2.783 -0.160919 4.06893 0.435445 5.15235L2.93383 9.69115C2.93495 9.69316 2.93608 9.69518 2.93724 9.69717C3.04716 9.8868 3.24408 10 3.46402 10C3.68394 10 3.88086 9.88678 3.99076 9.69717C3.99192 9.69518 3.99305 9.69316 3.99417 9.69115L6.49256 5.15235C7.08888 4.06893 7.07178 2.783 6.44676 1.71245ZM3.46398 4.53126C2.68274 4.53126 2.04716 3.90042 2.04716 3.12501C2.04716 2.3496 2.68274 1.71876 3.46398 1.71876C4.24522 1.71876 4.8808 2.3496 4.8808 3.12501C4.8808 3.90042 4.24524 4.53126 3.46398 4.53126Z" fill="#C4C6D2"/>
</g>
</svg>
