<svg width="18" height="18" viewBox="0 0 18 18" fill="none" xmlns="http://www.w3.org/2000/svg">
<path d="M10.125 15.75H7.125C6.918 15.75 6.75 15.582 6.75 15.375C6.75 15.168 6.918 15 7.125 15H10.125C10.7452 15 11.25 14.4952 11.25 13.875V10.125C11.25 9.918 11.418 9.75 11.625 9.75C11.832 9.75 12 9.918 12 10.125V13.875C12 14.9085 11.1592 15.75 10.125 15.75Z" fill="white"/>
<path d="M17.625 8.25001H10.125C9.918 8.25001 9.75 8.082 9.75 7.875C9.75 7.668 9.918 7.5 10.125 7.5H17.625C17.832 7.5 18 7.668 18 7.875C18 8.082 17.832 8.25001 17.625 8.25001Z" fill="white"/>
<path d="M6 18C5.835 18 5.67375 17.9722 5.5215 17.9183L1.029 16.4205C0.414 16.2157 0 15.6442 0 15V1.5C0 0.67275 0.67275 0 1.5 0C1.6665 0 1.8285 0.02775 1.97925 0.0825L6.471 1.5795C7.086 1.7835 7.5 2.355 7.5 3V16.5C7.5 17.3272 6.82725 18 6 18ZM1.5 0.75C1.086 0.75 0.75 1.08675 0.75 1.5V15C0.75 15.321 0.957 15.606 1.266 15.7095L5.766 17.2095C6.258 17.3842 6.75 16.9905 6.75 16.5V3C6.75 2.67825 6.543 2.39325 6.234 2.29125L1.734 0.79125C1.65675 0.7635 1.578 0.75 1.5 0.75Z" fill="white"/>
<path d="M11.625 6C11.418 6 11.25 5.832 11.25 5.625V1.875C11.25 1.25475 10.7452 0.75 10.125 0.75H1.5C1.293 0.75 1.125 0.582 1.125 0.375C1.125 0.168 1.293 0 1.5 0H10.125C11.1593 0 12 0.8415 12 1.875V5.625C12 5.832 11.832 6 11.625 6Z" fill="white"/>
<path d="M14.6249 11.2502C14.5289 11.2502 14.4329 11.2134 14.3594 11.1407C14.2132 10.9944 14.2132 10.7567 14.3594 10.6104L17.094 7.8759L14.3594 5.1414C14.2132 4.99515 14.2132 4.7574 14.3594 4.61115C14.5057 4.4649 14.7434 4.4649 14.8897 4.61115L17.8897 7.61115C18.036 7.7574 18.036 7.99515 17.8897 8.1414L14.8897 11.1414C14.8169 11.2134 14.7209 11.2502 14.6249 11.2502Z" fill="white"/>
</svg>
