<svg width="22" height="22" viewBox="0 0 22 22" fill="none" xmlns="http://www.w3.org/2000/svg">
<path d="M17.875 22H14.2083C13.9553 22 13.75 21.7947 13.75 21.5417V15.125C13.75 14.872 13.5447 14.6667 13.2917 14.6667H8.70833C8.45533 14.6667 8.25 14.872 8.25 15.125V21.5417C8.25 21.7947 8.04467 22 7.79167 22H4.125C3.36692 22 2.75 21.3831 2.75 20.625V11.9167H0.916667C0.411583 11.9167 0 11.5051 0 11C0 10.7571 0.099 10.5188 0.271333 10.3464L10.6792 0.131113C10.857 -0.0430534 11.143 -0.0430534 11.3208 0.131113L21.725 10.3428C21.901 10.5188 22 10.7571 22 11C22 11.5051 21.5884 11.9167 21.0833 11.9167H19.25V20.625C19.25 21.3831 18.6331 22 17.875 22ZM14.6667 21.0834H17.875C18.128 21.0834 18.3333 20.878 18.3333 20.625V11.4584C18.3333 11.2054 18.5387 11 18.7917 11H21.0833L11 1.10095L0.916667 10.9973L3.20833 11C3.46133 11 3.66667 11.2054 3.66667 11.4584V20.625C3.66667 20.878 3.872 21.0834 4.125 21.0834H7.33333V15.125C7.33333 14.3669 7.95025 13.75 8.70833 13.75H13.2917C14.0498 13.75 14.6667 14.3669 14.6667 15.125V21.0834Z" fill="#53586F"/>
</svg>
