<svg width="20" height="19" viewBox="0 0 20 19" fill="none" xmlns="http://www.w3.org/2000/svg">
<path d="M15.6485 9.41406C13.2491 9.41406 11.297 11.3661 11.297 13.7656C11.297 16.165 13.2491 18.1172 15.6485 18.1172C18.0479 18.1172 20 16.1652 20 13.7656C20 11.3661 18.0478 9.41406 15.6485 9.41406ZM16.9037 14.3515H16.2344V15.0208C16.2344 15.3444 15.9721 15.6067 15.6485 15.6067C15.3249 15.6067 15.0626 15.3444 15.0626 15.0208V14.3515H14.3933C14.0697 14.3515 13.8074 14.0892 13.8074 13.7656C13.8074 13.4421 14.0697 13.1796 14.3933 13.1796H15.0626V12.5104C15.0626 12.1869 15.3249 11.9244 15.6485 11.9244C15.9721 11.9244 16.2344 12.1869 16.2344 12.5104V13.1796H16.9037C17.2273 13.1796 17.4896 13.4421 17.4896 13.7656C17.4896 14.0892 17.2273 14.3515 16.9037 14.3515Z" fill="#6092DC"/>
<path d="M6.23447 8.70316C8.63391 8.70316 10.586 6.75095 10.586 4.3515C10.586 1.95206 8.63376 0 6.23447 0C3.83502 0 1.88281 1.95206 1.88281 4.3515C1.88281 6.7511 3.83502 8.70316 6.23447 8.70316Z" fill="#6092DC"/>
<path d="M11.3849 10.258C10.9447 9.61359 10.387 9.05511 9.74258 8.61475C8.78799 9.40179 7.56546 9.87512 6.23444 9.87512C4.90341 9.87512 3.68088 9.40179 2.72614 8.61475C1.0817 9.7384 0 11.6281 0 13.7657V15.9623C0 17.1507 0.966644 18.1173 2.15485 18.1173H10.3137C10.838 18.1173 11.319 17.929 11.693 17.6167C10.7234 16.6209 10.125 15.2619 10.125 13.7657C10.125 12.4349 10.5981 11.2126 11.3849 10.258Z" fill="#6092DC"/>
</svg>
