<svg width="20" height="22" viewBox="0 0 20 22" fill="none" xmlns="http://www.w3.org/2000/svg">
<path d="M9.62742 11.7482C12.8665 11.7482 15.5016 9.11311 15.5016 5.87409C15.5016 2.6351 12.8665 0 9.62742 0C6.3884 0 3.7533 2.6351 3.7533 5.87409C3.7533 9.11311 6.38844 11.7482 9.62742 11.7482ZM9.62742 0.645777C12.5103 0.645777 14.8557 2.99118 14.8557 5.87409C14.8557 8.75699 12.5103 11.1024 9.62742 11.1024C6.74452 11.1024 4.39907 8.75703 4.39907 5.87409C4.39907 2.99123 6.74452 0.645777 9.62742 0.645777Z" fill="url(#paint0_linear)"/>
<path d="M9.62736 10.1224C11.9698 10.1224 13.8756 8.21661 13.8756 5.87417C13.8756 3.53173 11.9698 1.62598 9.62736 1.62598C8.56994 1.62598 7.55657 2.01695 6.77393 2.72688C6.64185 2.84672 6.63192 3.05091 6.75172 3.18299C6.87156 3.31508 7.07579 3.32509 7.20783 3.20521C7.8714 2.60326 8.73069 2.27175 9.62736 2.27175C11.6138 2.27175 13.2298 3.88781 13.2298 5.87417C13.2298 7.86053 11.6138 9.47658 9.62736 9.47658C7.641 9.47658 6.02499 7.86057 6.02499 5.87417C6.02499 5.27432 6.17525 4.68063 6.45957 4.15727C6.5447 4.00056 6.48669 3.80454 6.32998 3.71941C6.17332 3.63425 5.97729 3.69234 5.89213 3.84901C5.55659 4.46668 5.37921 5.16699 5.37921 5.87417C5.37921 8.21661 7.28492 10.1224 9.62736 10.1224Z" fill="url(#paint1_linear)"/>
<path d="M9.50459 7.39559C8.99747 7.3647 8.85816 7.05949 8.83234 6.98778C8.79539 6.84976 8.66983 6.74801 8.52017 6.74801C8.3415 6.74801 8.19666 6.89286 8.19666 7.07157C8.19666 7.09752 8.20005 7.12261 8.20581 7.1468L8.20568 7.14685C8.20598 7.14801 8.20658 7.15024 8.2074 7.15303C8.21135 7.16829 8.21603 7.18324 8.22209 7.19755C8.28182 7.36229 8.52111 7.87341 9.22632 8.00996V8.43961C9.22632 8.61793 9.37091 8.76252 9.54923 8.76252C9.7276 8.76252 9.87214 8.61797 9.87214 8.43961V8.01967C10.1812 7.96587 10.3888 7.83078 10.5187 7.70862C10.7602 7.48132 10.9044 7.13774 10.9044 6.78952C10.9044 6.46231 10.7761 5.68716 9.58743 5.55602C9.35196 5.53002 9.184 5.45508 9.08813 5.33331C9.00353 5.22576 8.99437 5.10695 8.99437 5.06084C8.99437 5.00404 9.00997 4.50599 9.54923 4.50599C9.90304 4.50599 10.0459 4.73102 10.0728 4.77996C10.1206 4.89881 10.2368 4.98277 10.3728 4.98277C10.5514 4.98277 10.6963 4.83792 10.6963 4.65926C10.6963 4.60615 10.6832 4.55613 10.6605 4.51192L10.6607 4.51183C10.5697 4.314 10.3127 4.0045 9.8721 3.89794V3.46451C9.8721 3.28619 9.72755 3.1416 9.54919 3.1416C9.37087 3.1416 9.22628 3.28619 9.22628 3.46451V3.89656C8.58896 4.0479 8.34851 4.64254 8.34851 5.0608C8.34851 5.52585 8.6544 6.10271 9.51653 6.19784C10.2585 6.27974 10.2585 6.66341 10.2585 6.78948C10.2585 6.92341 10.2106 7.11166 10.076 7.23828C9.9488 7.35804 9.75664 7.41098 9.50459 7.39559Z" fill="url(#paint2_linear)"/>
<path d="M4.14815 14.9527C4.08713 14.8879 4.00201 14.8511 3.91294 14.8511C3.82386 14.8511 3.73879 14.8879 3.67773 14.9527L1.4843 17.2846C1.39604 17.3784 1.37202 17.5157 1.42311 17.6339C1.4742 17.7522 1.59069 17.8287 1.71951 17.8287H2.35347V19.0013C2.35347 19.1796 2.49806 19.3242 2.67638 19.3242C2.8547 19.3242 2.99929 19.1796 2.99929 19.0013V17.5058C2.99929 17.3275 2.8547 17.1829 2.67638 17.1829H2.46652L3.9129 15.6452L5.35927 17.1829H5.14941C4.97109 17.1829 4.8265 17.3275 4.8265 17.5058V21.3541H2.99921V20.2929C2.99921 20.1145 2.85462 19.9699 2.6763 19.9699C2.49798 19.9699 2.35339 20.1145 2.35339 20.2929V21.677C2.35339 21.8553 2.49798 21.9999 2.6763 21.9999H5.14936C5.32768 21.9999 5.47227 21.8553 5.47227 21.677V17.8287H6.10624C6.23501 17.8287 6.3515 17.7522 6.40263 17.6339C6.45372 17.5157 6.4297 17.3784 6.34145 17.2846L4.14815 14.9527Z" fill="url(#paint3_linear)"/>
<path d="M9.86261 12.7311C9.80159 12.6662 9.71647 12.6294 9.6274 12.6294C9.53832 12.6294 9.45324 12.6662 9.39218 12.7311L7.1988 15.0629C7.11054 15.1568 7.08648 15.294 7.13761 15.4123C7.1887 15.5305 7.30519 15.607 7.43401 15.607H8.06797V21.6767C8.06797 21.8551 8.21256 21.9996 8.39088 21.9996H10.864C11.0423 21.9996 11.1869 21.8551 11.1869 21.6767V15.607H11.8208C11.9496 15.607 12.0661 15.5305 12.1172 15.4123C12.1683 15.294 12.1443 15.1567 12.056 15.0629L9.86261 12.7311ZM10.864 14.9613C10.6856 14.9613 10.541 15.1058 10.541 15.2842V21.3539H8.71375V15.2841C8.71375 15.1058 8.56916 14.9612 8.39084 14.9612H8.18098L9.62735 13.4235L11.0737 14.9612H10.864V14.9613Z" fill="url(#paint4_linear)"/>
<path d="M15.577 10.6764C15.516 10.6115 15.4309 10.5747 15.3418 10.5747C15.2528 10.5747 15.1676 10.6115 15.1066 10.6764L12.9132 13.0082C12.8249 13.102 12.8008 13.2393 12.8519 13.3575C12.9031 13.4758 13.0195 13.5523 13.1483 13.5523H13.7823V15.5228C13.7823 15.7011 13.9268 15.8457 14.1052 15.8457C14.2836 15.8457 14.4281 15.7011 14.4281 15.5228V13.2294C14.4281 13.0511 14.2836 12.9065 14.1052 12.9065H13.8954L15.3418 11.3689L16.7881 12.9065H16.5783C16.3999 12.9065 16.2554 13.0511 16.2554 13.2294V21.3546H14.4281V16.8144C14.4281 16.6361 14.2835 16.4915 14.1052 16.4915C13.9268 16.4915 13.7823 16.6361 13.7823 16.8144V21.6775C13.7823 21.8558 13.9268 22.0004 14.1052 22.0004H16.5783C16.7566 22.0004 16.9012 21.8558 16.9012 21.6775V13.5523H17.5352C17.664 13.5523 17.7804 13.4758 17.8316 13.3575C17.8826 13.2393 17.8586 13.102 17.7703 13.0082L15.577 10.6764Z" fill="url(#paint5_linear)"/>
<path d="M2.53967 5.9899C2.53967 5.81158 2.39508 5.66699 2.21676 5.66699H0.322911C0.14459 5.66699 0 5.81158 0 5.9899C0 6.16822 0.144547 6.31281 0.322911 6.31281H2.21676C2.39512 6.31277 2.53967 6.16822 2.53967 5.9899Z" fill="url(#paint6_linear)"/>
<path d="M2.63453 8.5238L1.96095 8.78767C1.79488 8.85272 1.71302 9.04007 1.77808 9.2061C1.82796 9.33346 1.94982 9.41127 2.07882 9.41127C2.118 9.41127 2.15784 9.4041 2.19651 9.38893L2.87009 9.12506C3.03616 9.06 3.11802 8.87266 3.05296 8.70663C2.98787 8.54064 2.80052 8.45874 2.63453 8.5238Z" fill="url(#paint7_linear)"/>
<path d="M1.96095 3.19196L2.63453 3.45583C2.67324 3.471 2.71303 3.47817 2.75222 3.47817C2.88121 3.47817 3.00307 3.40031 3.05296 3.273C3.11801 3.10696 3.03616 2.91962 2.87008 2.85457L2.1965 2.59069C2.03038 2.52564 1.84313 2.60754 1.77807 2.77357C1.71302 2.93956 1.79492 3.1269 1.96095 3.19196Z" fill="url(#paint8_linear)"/>
<path d="M18.781 5.66699H16.8871C16.7088 5.66699 16.5642 5.81158 16.5642 5.9899C16.5642 6.16822 16.7088 6.31281 16.8871 6.31281H18.781C18.9593 6.31281 19.1039 6.16822 19.1039 5.9899C19.1038 5.81158 18.9593 5.66699 18.781 5.66699Z" fill="url(#paint9_linear)"/>
<path d="M16.2339 9.12506L16.9074 9.38893C16.9461 9.4041 16.9859 9.41127 17.0251 9.41127C17.1541 9.41127 17.276 9.33342 17.3259 9.2061C17.3909 9.04007 17.3091 8.85272 17.143 8.78767L16.4695 8.5238C16.3033 8.45874 16.1161 8.54064 16.051 8.70667C15.986 8.87262 16.0678 9.05996 16.2339 9.12506Z" fill="url(#paint10_linear)"/>
<path d="M16.3518 3.47769C16.391 3.47769 16.4308 3.47052 16.4695 3.45535L17.143 3.19148C17.3091 3.12643 17.3909 2.93908 17.3259 2.77305C17.2608 2.60698 17.0734 2.52521 16.9074 2.59018L16.2339 2.85405C16.0678 2.9191 15.986 3.10644 16.051 3.27248C16.1009 3.39988 16.2228 3.47769 16.3518 3.47769Z" fill="url(#paint11_linear)"/>
<defs>
<linearGradient id="paint0_linear" x1="15.5016" y1="-1.0375e-06" x2="1.049" y2="5.06287" gradientUnits="userSpaceOnUse">
<stop stop-color="#839BE7"/>
<stop offset="1" stop-color="#CED5FF"/>
</linearGradient>
<linearGradient id="paint1_linear" x1="13.8756" y1="1.62598" x2="3.42345" y2="5.28745" gradientUnits="userSpaceOnUse">
<stop stop-color="#839BE7"/>
<stop offset="1" stop-color="#CED5FF"/>
</linearGradient>
<linearGradient id="paint2_linear" x1="10.9044" y1="3.1416" x2="7.26815" y2="3.75522" gradientUnits="userSpaceOnUse">
<stop stop-color="#839BE7"/>
<stop offset="1" stop-color="#CED5FF"/>
</linearGradient>
<linearGradient id="paint3_linear" x1="6.42914" y1="14.8511" x2="-0.12308" y2="16.4669" gradientUnits="userSpaceOnUse">
<stop stop-color="#839BE7"/>
<stop offset="1" stop-color="#CED5FF"/>
</linearGradient>
<linearGradient id="paint4_linear" x1="12.1437" y1="12.6294" x2="5.43053" y2="13.8925" gradientUnits="userSpaceOnUse">
<stop stop-color="#839BE7"/>
<stop offset="1" stop-color="#CED5FF"/>
</linearGradient>
<linearGradient id="paint5_linear" x1="17.8581" y1="10.5747" x2="11.0689" y2="11.6223" gradientUnits="userSpaceOnUse">
<stop stop-color="#839BE7"/>
<stop offset="1" stop-color="#CED5FF"/>
</linearGradient>
<linearGradient id="paint6_linear" x1="2.53967" y1="5.66699" x2="1.32918" y2="7.33454" gradientUnits="userSpaceOnUse">
<stop stop-color="#839BE7"/>
<stop offset="1" stop-color="#CED5FF"/>
</linearGradient>
<linearGradient id="paint7_linear" x1="3.0753" y1="8.50146" x2="1.62673" y2="9.23746" gradientUnits="userSpaceOnUse">
<stop stop-color="#839BE7"/>
<stop offset="1" stop-color="#CED5FF"/>
</linearGradient>
<linearGradient id="paint8_linear" x1="3.0753" y1="2.56836" x2="1.62672" y2="3.30434" gradientUnits="userSpaceOnUse">
<stop stop-color="#839BE7"/>
<stop offset="1" stop-color="#CED5FF"/>
</linearGradient>
<linearGradient id="paint9_linear" x1="19.1039" y1="5.66699" x2="17.8934" y2="7.33454" gradientUnits="userSpaceOnUse">
<stop stop-color="#839BE7"/>
<stop offset="1" stop-color="#CED5FF"/>
</linearGradient>
<linearGradient id="paint10_linear" x1="17.3482" y1="8.50146" x2="15.8997" y2="9.23741" gradientUnits="userSpaceOnUse">
<stop stop-color="#839BE7"/>
<stop offset="1" stop-color="#CED5FF"/>
</linearGradient>
<linearGradient id="paint11_linear" x1="17.3482" y1="2.56787" x2="15.8996" y2="3.30381" gradientUnits="userSpaceOnUse">
<stop stop-color="#839BE7"/>
<stop offset="1" stop-color="#CED5FF"/>
</linearGradient>
</defs>
</svg>
