<svg width="20" height="24" viewBox="0 0 20 24" fill="none" xmlns="http://www.w3.org/2000/svg">
<path d="M12.022 3.07931C12.0819 3.09922 12.1434 3.05351 12.1405 2.99039C12.0745 1.5409 10.9143 0.572266 9.64366 0.572266C8.36531 0.572266 7.21294 1.55335 7.14683 2.99129C7.14393 3.05441 7.20544 3.10012 7.26535 3.08021C8.7302 2.59279 10.5826 2.60069 12.022 3.07931Z" fill="#C4C6D2"/>
<path d="M18.6488 17.3606C17.4649 16.346 16.786 14.8697 16.786 13.3109V12.7088C16.786 12.6521 16.7339 12.6105 16.6784 12.6217C13.6462 13.2289 10.715 10.8939 10.715 7.71444C10.715 5.5558 11.8982 4.3999 12.2802 4.07216C12.3309 4.02864 12.3177 3.94646 12.2556 3.92181C7.62902 2.08614 2.50127 5.4967 2.50127 10.5714V13.3109C2.50127 14.8383 1.8452 16.3268 0.638458 17.3606C0.439366 17.5311 0.276877 17.7467 0.168403 17.9833C-0.387003 19.1905 0.499853 20.5706 1.82632 20.5706H17.429C18.3916 20.5706 19.2128 19.8374 19.2811 18.8772C19.3242 18.2709 19.0659 17.7179 18.6488 17.3606Z" fill="#C4C6D2"/>
<path d="M9.64358 23.4279C10.969 23.4279 12.1095 22.6215 12.6002 21.4734C12.6383 21.3843 12.5747 21.2852 12.4777 21.2852H6.80942C6.71251 21.2852 6.64889 21.3843 6.68697 21.4734C7.17765 22.6215 8.31819 23.4279 9.64358 23.4279Z" fill="#C4C6D2"/>
<path d="M15.75 11.5C17.8309 11.5 19.5 9.81523 19.5 7.75C19.5 5.68242 17.8176 4 15.75 4C13.6707 4 12 5.68863 12 7.75C12 9.81758 13.6824 11.5 15.75 11.5Z" fill="#6092DC"/>
</svg>
