<svg width="80" height="52" viewBox="0 0 80 52" fill="none" xmlns="http://www.w3.org/2000/svg">
<path d="M38.359 17.1853C37.5014 17.9778 36.3151 18.1553 35.263 17.6487C34.8826 17.4656 34.5616 17.2126 34.3103 16.9097L32.8777 20.0784C32.8125 20.2226 32.8853 20.3312 32.9196 20.3712C32.9539 20.4112 33.0502 20.4997 33.2026 20.4573L34.2455 20.167C34.3644 20.134 34.4845 20.118 34.603 20.118C35.1027 20.118 35.5731 20.4009 35.7996 20.8696L36.2706 21.8444C36.3394 21.9868 36.4685 22.0011 36.5222 22C36.5749 21.9993 36.7045 21.9822 36.7696 21.838L39.0484 16.7976C38.798 16.8697 38.5609 16.9987 38.359 17.1853Z" fill="#53586F"/>
<path d="M46.3384 20.0784L44.9058 16.9097C44.6545 17.2127 44.3335 17.4656 43.9531 17.6487C42.9009 18.1553 41.7147 17.9778 40.8571 17.1853C40.6552 16.9987 40.4181 16.8697 40.1676 16.7976L42.4464 21.838C42.5116 21.9822 42.6412 21.9993 42.6938 22C42.7475 22.0011 42.8766 21.9868 42.9454 21.8444L43.4164 20.8696C43.6428 20.4009 44.1133 20.118 44.613 20.118C44.7315 20.118 44.8517 20.134 44.9705 20.167L46.0135 20.4573C46.1658 20.4997 46.2622 20.4112 46.2964 20.3712C46.3308 20.3312 46.4036 20.2225 46.3384 20.0784Z" fill="#53586F"/>
<path d="M47.4638 8.9286C46.274 8.1139 45.9048 6.49633 46.6233 5.24606C47.0552 4.49449 46.8305 3.75181 46.4761 3.30738C46.1217 2.86308 45.4476 2.47872 44.6188 2.73245C43.2402 3.15471 41.7452 2.43489 41.2156 1.09356C40.8973 0.287292 40.1765 0 39.6082 0C39.0398 0 38.319 0.287292 38.0007 1.09361C37.4711 2.43498 35.9762 3.15471 34.5975 2.73249C33.7687 2.4788 33.0947 2.86308 32.7402 3.30742C32.3859 3.75185 32.1611 4.49444 32.593 5.2461C33.3115 6.49633 32.9423 8.11395 31.7525 8.92864C31.0372 9.41845 30.9176 10.1851 31.044 10.7392C31.1704 11.2933 31.6109 11.9321 32.4679 12.063C33.8933 12.2808 34.9278 13.5779 34.8229 15.0161C34.7599 15.8807 35.2847 16.4523 35.7967 16.6989C36.3088 16.9455 37.0829 16.9995 37.7195 16.4111C38.249 15.9218 38.9287 15.6771 39.6081 15.6771C40.2878 15.6771 40.9671 15.9217 41.4967 16.4111C42.1334 16.9995 42.9075 16.9456 43.4196 16.6989C43.9316 16.4523 44.4564 15.8807 44.3933 15.0162C44.2885 13.5779 45.323 12.2808 46.7484 12.063C47.6054 11.9321 48.0458 11.2933 48.1723 10.7392C48.2988 10.185 48.179 9.41836 47.4638 8.9286ZM39.6082 14.4343C36.4897 14.4343 33.9526 11.8973 33.9526 8.77877C33.9526 5.66028 36.4896 3.12317 39.6082 3.12317C42.7267 3.12317 45.2637 5.66024 45.2637 8.77872C45.2637 11.8972 42.7267 14.4343 39.6082 14.4343Z" fill="#53586F"/>
<path d="M39.6081 4.17761C37.0711 4.17761 35.007 6.24168 35.007 8.77871C35.007 11.3157 37.071 13.3798 39.6081 13.3798C42.1452 13.3798 44.2092 11.3157 44.2092 8.77871C44.2092 6.24168 42.1452 4.17761 39.6081 4.17761ZM41.9661 8.3326L39.1025 10.4241C39.0116 10.4905 38.9026 10.5256 38.7915 10.5256C38.7629 10.5256 38.7342 10.5233 38.7056 10.5186C38.566 10.4955 38.4414 10.4172 38.3601 10.3014L37.5035 9.08185C37.3361 8.8435 37.3937 8.51466 37.6319 8.3473C37.8703 8.17993 38.199 8.23742 38.3665 8.47573L38.9143 9.25579L41.3441 7.48108C41.5793 7.30942 41.9092 7.36064 42.0809 7.59585C42.2526 7.83098 42.2012 8.16081 41.9661 8.3326Z" fill="#53586F"/>
<path d="M25.075 37.832C24.581 38.404 23.9137 38.69 23.073 38.69C22.5183 38.69 22.0113 38.573 21.552 38.339C21.0927 38.105 20.5813 37.6933 20.018 37.104C19.3333 37.026 18.7223 36.8137 18.185 36.467C17.6477 36.1203 17.2273 35.6697 16.924 35.115C16.6207 34.5603 16.469 33.9493 16.469 33.282C16.469 32.554 16.6467 31.8997 17.002 31.319C17.3573 30.7297 17.847 30.2703 18.471 29.941C19.095 29.6117 19.7927 29.447 20.564 29.447C21.344 29.447 22.046 29.6117 22.67 29.941C23.294 30.2703 23.7837 30.7297 24.139 31.319C24.4943 31.8997 24.672 32.554 24.672 33.282C24.672 34.1487 24.425 34.907 23.931 35.557C23.437 36.207 22.7783 36.662 21.955 36.922C22.1457 37.1213 22.332 37.26 22.514 37.338C22.696 37.4247 22.8953 37.468 23.112 37.468C23.3287 37.468 23.541 37.4203 23.749 37.325C23.957 37.2297 24.1433 37.0953 24.308 36.922L25.075 37.832ZM18.12 33.282C18.12 33.75 18.224 34.1703 18.432 34.543C18.6487 34.9157 18.9433 35.2103 19.316 35.427C19.6887 35.635 20.1047 35.739 20.564 35.739C21.032 35.739 21.4523 35.635 21.825 35.427C22.1977 35.2103 22.488 34.9157 22.696 34.543C22.904 34.1703 23.008 33.75 23.008 33.282C23.008 32.814 22.904 32.3937 22.696 32.021C22.488 31.6483 22.1977 31.358 21.825 31.15C21.4523 30.942 21.032 30.838 20.564 30.838C20.1047 30.838 19.6887 30.9463 19.316 31.163C18.9433 31.371 18.6487 31.6613 18.432 32.034C18.224 32.398 18.12 32.814 18.12 33.282ZM29.2345 37.13C28.1685 37.13 27.3365 36.8353 26.7385 36.246C26.1405 35.6567 25.8415 34.8463 25.8415 33.815V29.564H27.4795V33.763C27.4795 34.4043 27.6311 34.894 27.9345 35.232C28.2378 35.57 28.6755 35.739 29.2475 35.739C29.8108 35.739 30.2398 35.5743 30.5345 35.245C30.8378 34.907 30.9895 34.413 30.9895 33.763V29.564H32.6015V33.815C32.6015 34.855 32.3068 35.6697 31.7175 36.259C31.1281 36.8397 30.3005 37.13 29.2345 37.13ZM39.0751 35.388H35.3181L34.6161 37H33.0171L36.3971 29.564H38.0221L41.3891 37H39.7641L39.0751 35.388ZM38.5421 34.14L37.2031 31.046L35.8641 34.14H38.5421ZM42.0623 29.564H43.7003V35.674H47.5223V37H42.0623V29.564ZM48.3628 29.564H50.0008V37H48.3628V29.564ZM53.2352 30.903H50.7912V29.564H57.3172V30.903H54.8732V37H53.2352V30.903ZM61.4642 34.556V37H59.8132V34.53L56.7972 29.564H58.5392L60.6842 33.061L62.8292 29.564H64.4932L61.4642 34.556ZM6.92836 46.217H8.47536V49.181C8.09402 49.4757 7.63902 49.7097 7.11036 49.883C6.59036 50.0477 6.05736 50.13 5.51136 50.13C4.71402 50.13 3.99902 49.9653 3.36636 49.636C2.74236 49.298 2.25269 48.8387 1.89736 48.258C1.54202 47.6687 1.36436 47.01 1.36436 46.282C1.36436 45.554 1.54202 44.8997 1.89736 44.319C2.25269 43.7297 2.74236 43.2703 3.36636 42.941C3.99036 42.6117 4.69236 42.447 5.47236 42.447C6.85902 42.447 7.89902 42.863 8.59236 43.695L7.52636 44.722C6.99769 44.1327 6.32169 43.838 5.49836 43.838C5.02169 43.838 4.59269 43.942 4.21136 44.15C3.83869 44.358 3.54402 44.6483 3.32736 45.021C3.11936 45.3937 3.01536 45.814 3.01536 46.282C3.01536 46.75 3.12369 47.1747 3.34036 47.556C3.55702 47.9287 3.85602 48.219 4.23736 48.427C4.61869 48.635 5.05636 48.739 5.55036 48.739C6.05302 48.739 6.51236 48.635 6.92836 48.427V46.217ZM13.4316 50.13C12.3656 50.13 11.5336 49.8353 10.9356 49.246C10.3376 48.6567 10.0386 47.8463 10.0386 46.815V42.564H11.6766V46.763C11.6766 47.4043 11.8283 47.894 12.1316 48.232C12.4349 48.57 12.8726 48.739 13.4446 48.739C14.0079 48.739 14.4369 48.5743 14.7316 48.245C15.0349 47.907 15.1866 47.413 15.1866 46.763V42.564H16.7986V46.815C16.7986 47.855 16.5039 48.6697 15.9146 49.259C15.3253 49.8397 14.4976 50.13 13.4316 50.13ZM23.2722 48.388H19.5152L18.8132 50H17.2142L20.5942 42.564H22.2192L25.5862 50H23.9612L23.2722 48.388ZM22.7392 47.14L21.4002 44.046L20.0612 47.14H22.7392ZM31.0955 50L29.6005 47.894H29.4705H27.8975V50H26.2595V42.564H29.4705C30.4758 42.564 31.2688 42.8023 31.8495 43.279C32.4301 43.747 32.7205 44.4013 32.7205 45.242C32.7205 45.7967 32.5861 46.2777 32.3175 46.685C32.0488 47.0837 31.6631 47.387 31.1605 47.595L32.8635 50H31.0955ZM31.0695 45.242C31.0695 44.8 30.9221 44.4663 30.6275 44.241C30.3415 44.007 29.9168 43.89 29.3535 43.89H27.8975V46.607H29.3535C29.9168 46.607 30.3415 46.49 30.6275 46.256C30.9221 46.022 31.0695 45.684 31.0695 45.242ZM39.0088 48.388H35.2518L34.5498 50H32.9508L36.3308 42.564H37.9558L41.3228 50H39.6978L39.0088 48.388ZM38.4758 47.14L37.1368 44.046L35.7978 47.14H38.4758ZM48.8471 42.564V50H47.4951L43.6341 45.32V50H41.9961V42.564H43.3611L47.2221 47.257V42.564H48.8471ZM52.0863 43.903H49.6423V42.564H56.1683V43.903H53.7243V50H52.0863V43.903ZM62.7302 48.687V50H56.9582V42.564H62.5872V43.89H58.5962V45.593H62.1452V46.867H58.5962V48.687H62.7302ZM69.8051 48.687V50H64.0331V42.564H69.6621V43.89H65.6711V45.593H69.2201V46.867H65.6711V48.687H69.8051ZM71.1079 42.564H74.4749C75.3069 42.564 76.0349 42.7157 76.6589 43.019C77.2916 43.3223 77.7769 43.7557 78.1149 44.319C78.4616 44.8737 78.6349 45.528 78.6349 46.282C78.6349 47.036 78.4616 47.6947 78.1149 48.258C77.7769 48.8127 77.2916 49.2417 76.6589 49.545C76.0349 49.8483 75.3069 50 74.4749 50H71.1079V42.564ZM74.4229 48.674C75.2203 48.674 75.8443 48.466 76.2949 48.05C76.7543 47.6253 76.9839 47.036 76.9839 46.282C76.9839 45.528 76.7543 44.943 76.2949 44.527C75.8443 44.111 75.2203 43.903 74.4229 43.903H72.7459V48.674H74.4229Z" fill="#53586F"/>
</svg>
