<svg width="66" height="79" viewBox="0 0 66 79" fill="none" xmlns="http://www.w3.org/2000/svg">
<path d="M37.3961 12.8133C37.1766 12.594 36.8707 12.4681 36.5568 12.4681C36.2384 12.4681 35.9405 12.5906 35.7177 12.8133L31.5621 16.9688L30.1271 15.5336C29.903 15.3101 29.6052 15.1871 29.2887 15.1871C28.9719 15.1871 28.6739 15.3103 28.4495 15.5345C28.2253 15.7588 28.1018 16.057 28.1018 16.374C28.1018 16.6912 28.2254 16.9894 28.4494 17.2133L30.7236 19.4877C30.9459 19.7095 31.2437 19.8316 31.5619 19.8316C31.562 19.8316 31.562 19.8316 31.562 19.8316C31.8804 19.8316 32.1781 19.7094 32.4014 19.4868L37.3962 14.4921C37.8589 14.0294 37.859 13.2765 37.3961 12.8133Z" fill="#53586F"/>
<path d="M46.7714 7.00712C46.7526 6.7909 46.6216 6.60042 46.4265 6.50555L33.184 0.0622452C33.0135 -0.0207484 32.8143 -0.0207484 32.6438 0.0622452L19.4014 6.50546C19.2063 6.60042 19.0752 6.79081 19.0565 7.00703C19.0396 7.20131 18.6599 11.8309 20.1228 17.4854C20.9846 20.8163 22.3115 23.8043 24.0667 26.3666C26.2681 29.5801 29.1491 32.125 32.6298 33.9307C32.7189 33.9769 32.8165 34 32.914 34C33.0115 34 33.1091 33.9769 33.1982 33.9307C36.6788 32.125 39.5599 29.5802 41.7614 26.3666C43.5166 23.8043 44.8435 20.8163 45.7052 17.4854C47.168 11.8309 46.7883 7.20141 46.7714 7.00712ZM32.9139 23.9012C28.5849 23.9012 25.0631 20.3794 25.0631 16.0504C25.0631 11.7214 28.5849 8.19961 32.9139 8.19961C37.2429 8.19961 40.7647 11.7214 40.7647 16.0504C40.7647 20.3794 37.2429 23.9012 32.9139 23.9012Z" fill="#53586F"/>
<path d="M21.6188 44.6V53H20.4308V45.644H18.5348V44.6H21.6188ZM26.5282 53.096C25.8642 53.096 25.2722 52.928 24.7522 52.592C24.2402 52.248 23.8362 51.752 23.5402 51.104C23.2442 50.456 23.0962 49.688 23.0962 48.8C23.0962 47.912 23.2442 47.144 23.5402 46.496C23.8362 45.848 24.2402 45.356 24.7522 45.02C25.2722 44.676 25.8642 44.504 26.5282 44.504C27.1842 44.504 27.7682 44.676 28.2802 45.02C28.8002 45.356 29.2082 45.848 29.5042 46.496C29.8002 47.144 29.9482 47.912 29.9482 48.8C29.9482 49.688 29.8002 50.456 29.5042 51.104C29.2082 51.752 28.8002 52.248 28.2802 52.592C27.7682 52.928 27.1842 53.096 26.5282 53.096ZM26.5282 52.028C27.2002 52.028 27.7362 51.752 28.1362 51.2C28.5442 50.648 28.7482 49.848 28.7482 48.8C28.7482 47.752 28.5442 46.952 28.1362 46.4C27.7362 45.848 27.2002 45.572 26.5282 45.572C25.8482 45.572 25.3042 45.848 24.8962 46.4C24.4962 46.952 24.2962 47.752 24.2962 48.8C24.2962 49.848 24.4962 50.648 24.8962 51.2C25.3042 51.752 25.8482 52.028 26.5282 52.028ZM34.1721 53.096C33.5081 53.096 32.9161 52.928 32.3961 52.592C31.8841 52.248 31.4801 51.752 31.1841 51.104C30.8881 50.456 30.7401 49.688 30.7401 48.8C30.7401 47.912 30.8881 47.144 31.1841 46.496C31.4801 45.848 31.8841 45.356 32.3961 45.02C32.9161 44.676 33.5081 44.504 34.1721 44.504C34.8281 44.504 35.4121 44.676 35.9241 45.02C36.4441 45.356 36.8521 45.848 37.1481 46.496C37.4441 47.144 37.5921 47.912 37.5921 48.8C37.5921 49.688 37.4441 50.456 37.1481 51.104C36.8521 51.752 36.4441 52.248 35.9241 52.592C35.4121 52.928 34.8281 53.096 34.1721 53.096ZM34.1721 52.028C34.8441 52.028 35.3801 51.752 35.7801 51.2C36.1881 50.648 36.3921 49.848 36.3921 48.8C36.3921 47.752 36.1881 46.952 35.7801 46.4C35.3801 45.848 34.8441 45.572 34.1721 45.572C33.4921 45.572 32.9481 45.848 32.5401 46.4C32.1401 46.952 31.9401 47.752 31.9401 48.8C31.9401 49.848 32.1401 50.648 32.5401 51.2C32.9481 51.752 33.4921 52.028 34.1721 52.028ZM40.208 49.112C39.624 49.112 39.152 48.9 38.792 48.476C38.432 48.052 38.252 47.5 38.252 46.82C38.252 46.14 38.432 45.588 38.792 45.164C39.152 44.74 39.624 44.528 40.208 44.528C40.792 44.528 41.26 44.74 41.612 45.164C41.972 45.58 42.152 46.132 42.152 46.82C42.152 47.508 41.972 48.064 41.612 48.488C41.26 48.904 40.792 49.112 40.208 49.112ZM45.272 44.6H46.196L40.46 53H39.536L45.272 44.6ZM40.208 48.428C40.576 48.428 40.864 48.288 41.072 48.008C41.28 47.72 41.384 47.324 41.384 46.82C41.384 46.316 41.28 45.924 41.072 45.644C40.864 45.356 40.576 45.212 40.208 45.212C39.848 45.212 39.56 45.356 39.344 45.644C39.136 45.932 39.032 46.324 39.032 46.82C39.032 47.316 39.136 47.708 39.344 47.996C39.56 48.284 39.848 48.428 40.208 48.428ZM45.524 53.072C44.94 53.072 44.468 52.864 44.108 52.448C43.756 52.024 43.58 51.468 43.58 50.78C43.58 50.092 43.756 49.54 44.108 49.124C44.468 48.7 44.94 48.488 45.524 48.488C46.108 48.488 46.58 48.7 46.94 49.124C47.3 49.548 47.48 50.1 47.48 50.78C47.48 51.46 47.3 52.012 46.94 52.436C46.58 52.86 46.108 53.072 45.524 53.072ZM45.524 52.388C45.884 52.388 46.168 52.244 46.376 51.956C46.592 51.668 46.7 51.276 46.7 50.78C46.7 50.284 46.592 49.892 46.376 49.604C46.168 49.316 45.884 49.172 45.524 49.172C45.156 49.172 44.868 49.316 44.66 49.604C44.452 49.884 44.348 50.276 44.348 50.78C44.348 51.284 44.452 51.68 44.66 51.968C44.868 52.248 45.156 52.388 45.524 52.388ZM15.5287 65.096C15.0007 65.096 14.4847 65.024 13.9807 64.88C13.4847 64.728 13.0967 64.528 12.8167 64.28L13.2727 63.368C13.5447 63.592 13.8847 63.772 14.2927 63.908C14.7087 64.044 15.1367 64.112 15.5767 64.112C16.1127 64.112 16.5047 64.024 16.7527 63.848C17.0087 63.672 17.1367 63.444 17.1367 63.164C17.1367 62.948 17.0607 62.772 16.9087 62.636C16.7647 62.5 16.5807 62.396 16.3567 62.324C16.1327 62.252 15.8287 62.176 15.4447 62.096C14.9247 61.984 14.5007 61.868 14.1727 61.748C13.8527 61.628 13.5767 61.44 13.3447 61.184C13.1207 60.92 13.0087 60.564 13.0087 60.116C13.0087 59.508 13.2527 59.02 13.7407 58.652C14.2367 58.276 14.9087 58.088 15.7567 58.088C16.1887 58.088 16.6047 58.14 17.0047 58.244C17.4127 58.34 17.7607 58.484 18.0487 58.676L17.6287 59.612C17.1087 59.252 16.4727 59.072 15.7207 59.072C15.2007 59.072 14.8127 59.164 14.5567 59.348C14.3007 59.524 14.1727 59.756 14.1727 60.044C14.1727 60.26 14.2447 60.436 14.3887 60.572C14.5407 60.708 14.7287 60.812 14.9527 60.884C15.1847 60.956 15.4927 61.032 15.8767 61.112C16.4047 61.232 16.8247 61.352 17.1367 61.472C17.4567 61.584 17.7287 61.768 17.9527 62.024C18.1847 62.28 18.3007 62.624 18.3007 63.056C18.3007 63.68 18.0527 64.176 17.5567 64.544C17.0687 64.912 16.3927 65.096 15.5287 65.096ZM24.6637 64.028V65H19.5517V58.184H24.5317V59.144H20.7157V61.064H24.1117V62.012H20.7157V64.028H24.6637ZM29.0603 65.096C28.3643 65.096 27.7323 64.944 27.1643 64.64C26.6043 64.336 26.1643 63.92 25.8443 63.392C25.5243 62.856 25.3643 62.256 25.3643 61.592C25.3643 60.928 25.5243 60.332 25.8443 59.804C26.1643 59.268 26.6043 58.848 27.1643 58.544C27.7323 58.24 28.3643 58.088 29.0603 58.088C30.2363 58.088 31.1323 58.444 31.7483 59.156L31.0043 59.912C30.4923 59.368 29.8563 59.096 29.0963 59.096C28.6083 59.096 28.1683 59.204 27.7763 59.42C27.3923 59.628 27.0883 59.924 26.8643 60.308C26.6483 60.684 26.5403 61.112 26.5403 61.592C26.5403 62.064 26.6483 62.492 26.8643 62.876C27.0883 63.252 27.3923 63.548 27.7763 63.764C28.1683 63.98 28.6083 64.088 29.0963 64.088C29.8483 64.088 30.4843 63.812 31.0043 63.26L31.7483 64.016C31.1243 64.736 30.2283 65.096 29.0603 65.096ZM35.8687 65.096C34.9327 65.096 34.2007 64.832 33.6727 64.304C33.1447 63.776 32.8807 63.036 32.8807 62.084V58.184H34.0447V62.06C34.0447 62.724 34.2007 63.228 34.5127 63.572C34.8247 63.916 35.2807 64.088 35.8807 64.088C36.4727 64.088 36.9247 63.916 37.2368 63.572C37.5567 63.228 37.7167 62.724 37.7167 62.06V58.184H38.8568V62.084C38.8568 63.036 38.5928 63.776 38.0647 64.304C37.5367 64.832 36.8047 65.096 35.8687 65.096ZM45.309 65L43.845 62.96C43.781 62.968 43.677 62.972 43.533 62.972H41.913V65H40.749V58.184H43.533C44.437 58.184 45.149 58.396 45.669 58.82C46.189 59.244 46.449 59.832 46.449 60.584C46.449 61.104 46.317 61.548 46.053 61.916C45.797 62.284 45.429 62.56 44.949 62.744L46.569 65H45.309ZM43.461 62.024C44.053 62.024 44.501 61.9 44.805 61.652C45.117 61.404 45.273 61.048 45.273 60.584C45.273 60.12 45.117 59.764 44.805 59.516C44.501 59.268 44.053 59.144 43.461 59.144H41.913V62.024H43.461ZM53.0596 64.028V65H47.9476V58.184H52.9276V59.144H49.1116V61.064H52.5076V62.012H49.1116V64.028H53.0596ZM8.73009 77.096C8.03409 77.096 7.40209 76.944 6.83409 76.64C6.27409 76.336 5.83409 75.92 5.51409 75.392C5.19409 74.856 5.03409 74.256 5.03409 73.592C5.03409 72.928 5.19409 72.332 5.51409 71.804C5.83409 71.268 6.27409 70.848 6.83409 70.544C7.40209 70.24 8.03409 70.088 8.73009 70.088C9.90609 70.088 10.8021 70.444 11.4181 71.156L10.6741 71.912C10.1621 71.368 9.52609 71.096 8.76609 71.096C8.27809 71.096 7.83809 71.204 7.44609 71.42C7.06209 71.628 6.75809 71.924 6.53409 72.308C6.31809 72.684 6.21009 73.112 6.21009 73.592C6.21009 74.064 6.31809 74.492 6.53409 74.876C6.75809 75.252 7.06209 75.548 7.44609 75.764C7.83809 75.98 8.27809 76.088 8.76609 76.088C9.51809 76.088 10.1541 75.812 10.6741 75.26L11.4181 76.016C10.7941 76.736 9.89809 77.096 8.73009 77.096ZM12.6226 70.184H13.7866V73.064H17.5186V70.184H18.6826V77H17.5186V74.024H13.7866V77H12.6226V70.184ZM25.7652 76.028V77H20.6532V70.184H25.6332V71.144H21.8172V73.064H25.2132V74.012H21.8172V76.028H25.7652ZM30.1618 77.096C29.4658 77.096 28.8338 76.944 28.2658 76.64C27.7058 76.336 27.2658 75.92 26.9458 75.392C26.6258 74.856 26.4658 74.256 26.4658 73.592C26.4658 72.928 26.6258 72.332 26.9458 71.804C27.2658 71.268 27.7058 70.848 28.2658 70.544C28.8338 70.24 29.4658 70.088 30.1618 70.088C31.3378 70.088 32.2338 70.444 32.8498 71.156L32.1058 71.912C31.5938 71.368 30.9578 71.096 30.1978 71.096C29.7098 71.096 29.2698 71.204 28.8778 71.42C28.4938 71.628 28.1898 71.924 27.9658 72.308C27.7498 72.684 27.6418 73.112 27.6418 73.592C27.6418 74.064 27.7498 74.492 27.9658 74.876C28.1898 75.252 28.4938 75.548 28.8778 75.764C29.2698 75.98 29.7098 76.088 30.1978 76.088C30.9498 76.088 31.5858 75.812 32.1058 75.26L32.8498 76.016C32.2258 76.736 31.3298 77.096 30.1618 77.096ZM36.3823 74.06L35.2183 75.236V77H34.0543V70.184H35.2183V73.796L38.7823 70.184H40.0783L37.1623 73.256L40.2703 77H38.8903L36.3823 74.06ZM43.903 77.096C43.207 77.096 42.575 76.944 42.007 76.64C41.439 76.336 40.995 75.92 40.675 75.392C40.355 74.856 40.195 74.256 40.195 73.592C40.195 72.928 40.355 72.332 40.675 71.804C40.995 71.268 41.439 70.848 42.007 70.544C42.575 70.24 43.207 70.088 43.903 70.088C44.607 70.088 45.239 70.24 45.799 70.544C46.367 70.848 46.811 71.268 47.131 71.804C47.451 72.332 47.611 72.928 47.611 73.592C47.611 74.256 47.451 74.856 47.131 75.392C46.811 75.92 46.367 76.336 45.799 76.64C45.239 76.944 44.607 77.096 43.903 77.096ZM43.903 76.088C44.383 76.088 44.815 75.98 45.199 75.764C45.583 75.548 45.883 75.252 46.099 74.876C46.323 74.5 46.435 74.072 46.435 73.592C46.435 73.112 46.323 72.684 46.099 72.308C45.883 71.932 45.583 71.636 45.199 71.42C44.815 71.204 44.383 71.096 43.903 71.096C43.423 71.096 42.991 71.204 42.607 71.42C42.223 71.636 41.919 71.932 41.695 72.308C41.479 72.684 41.371 73.112 41.371 73.592C41.371 74.072 41.479 74.5 41.695 74.876C41.919 75.252 42.223 75.548 42.607 75.764C42.991 75.98 43.423 76.088 43.903 76.088ZM51.8597 77.096C50.9237 77.096 50.1917 76.832 49.6637 76.304C49.1357 75.776 48.8717 75.036 48.8717 74.084V70.184H50.0357V74.06C50.0357 74.724 50.1917 75.228 50.5037 75.572C50.8157 75.916 51.2717 76.088 51.8717 76.088C52.4637 76.088 52.9157 75.916 53.2277 75.572C53.5477 75.228 53.7077 74.724 53.7077 74.06V70.184H54.8477V74.084C54.8477 75.036 54.5837 75.776 54.0557 76.304C53.5277 76.832 52.7957 77.096 51.8597 77.096ZM57.9519 71.144H55.6239V70.184H61.4439V71.144H59.1159V77H57.9519V71.144Z" fill="#53586F"/>
</svg>
