<svg width="14" height="20" viewBox="0 0 14 20" fill="none" xmlns="http://www.w3.org/2000/svg">
<path d="M12.7973 3.4249C11.5835 1.33021 9.42759 0.0504883 7.03013 0.00158203C6.92779 -0.000527344 6.82478 -0.000527344 6.7224 0.00158203C4.32498 0.0504883 2.16904 1.33021 0.955211 3.4249C-0.285492 5.566 -0.319437 8.13787 0.864391 10.3047L5.82388 19.3823C5.82611 19.3863 5.82834 19.3904 5.83064 19.3944C6.04884 19.7736 6.43974 20 6.87634 20C7.31291 20 7.7038 19.7736 7.92197 19.3944C7.92427 19.3904 7.9265 19.3863 7.92873 19.3823L12.8882 10.3047C14.072 8.13787 14.038 5.566 12.7973 3.4249ZM6.87627 9.06252C5.32545 9.06252 4.06377 7.80084 4.06377 6.25002C4.06377 4.6992 5.32545 3.43752 6.87627 3.43752C8.42709 3.43752 9.68877 4.6992 9.68877 6.25002C9.68877 7.80084 8.42712 9.06252 6.87627 9.06252Z" fill="#6092DC"/>
</svg>
