<svg width="34" height="34" viewBox="0 0 34 34" fill="none" xmlns="http://www.w3.org/2000/svg">
<rect opacity="0.1" x="0.5" y="0.5" width="33" height="33" rx="9.5" fill="white" stroke="white"/>
<rect opacity="0.1" x="2" y="2" width="30" height="30" rx="10" fill="white"/>
<path d="M8.85181 12.2593H25.1481C25.5572 12.2593 25.8889 11.9277 25.8889 11.5186C25.8889 11.1095 25.5572 10.7778 25.1481 10.7778H8.85181C8.44272 10.7778 8.11108 11.1095 8.11108 11.5186C8.11108 11.9277 8.44272 12.2593 8.85181 12.2593Z" fill="white"/>
<path d="M20.5783 21.426H13.7457C13.5742 21.426 13.4351 21.7574 13.4351 22.1661C13.4351 22.5748 13.5742 22.9061 13.7457 22.9061H20.5782C20.7498 22.9061 20.8888 22.5748 20.8888 22.1661C20.8888 21.7574 20.7498 21.426 20.5783 21.426Z" fill="white"/>
<path d="M25.1481 15.963H8.85181C8.44272 15.963 8.11108 16.2946 8.11108 16.7037C8.11108 17.1128 8.44272 17.4445 8.85181 17.4445H25.1481C25.5572 17.4445 25.8888 17.1128 25.8888 16.7037C25.8889 16.2946 25.5572 15.963 25.1481 15.963Z" fill="white"/>
</svg>
