<svg width="22" height="22" viewBox="0 0 22 22" fill="none" xmlns="http://www.w3.org/2000/svg">
<path d="M9.89946 12.6492C9.89946 12.8517 10.0636 13.0158 10.2661 13.0158C10.4686 13.0158 10.6328 12.8517 10.6328 12.6492C10.6328 11.4363 9.51081 10.4339 8.06623 10.2865V9.89936C8.06623 9.69687 7.90208 9.53271 7.69958 9.53271C7.49709 9.53271 7.33294 9.69687 7.33294 9.89936V10.2865C5.88835 10.4332 4.76642 11.4363 4.76642 12.6492C4.76642 13.8621 5.88835 14.8645 7.33294 15.0119V18.3073C6.29423 18.176 5.49971 17.4981 5.49971 16.6823C5.49971 16.4798 5.33556 16.3157 5.13306 16.3157C4.93057 16.3157 4.76642 16.4798 4.76642 16.6823C4.76642 17.8952 5.88835 18.8976 7.33294 19.045V19.4321C7.33294 19.6346 7.49709 19.7988 7.69958 19.7988C7.90208 19.7988 8.06623 19.6346 8.06623 19.4321V19.045C9.51081 18.8983 10.6328 17.8952 10.6328 16.6823C10.6328 15.4694 9.51081 14.467 8.06623 14.3196V11.0242C9.10494 11.1555 9.89946 11.8334 9.89946 12.6492ZM5.49971 12.6492C5.49971 11.8334 6.29423 11.1555 7.33294 11.0242V14.2742C6.29423 14.1429 5.49971 13.465 5.49971 12.6492ZM9.89946 16.6823C9.89946 17.4981 9.10494 18.176 8.06623 18.3073V15.0573C9.10494 15.1886 9.89946 15.8665 9.89946 16.6823Z" fill="url(#paint0_linear)"/>
<path d="M1.31995 11.0625C1.13629 10.9772 0.918303 11.057 0.833045 11.2407C0.281214 12.4283 -0.00315255 13.7226 2.63614e-05 15.0322C2.63614e-05 19.6545 2.59038 21.9984 7.69959 21.9984C8.73196 22.0146 9.76202 21.8959 10.7636 21.6453C10.9594 21.5933 11.0758 21.3925 11.0238 21.1968C10.9717 21.001 10.7709 20.8846 10.5752 20.9366C9.63469 21.1689 8.66824 21.2793 7.69959 21.2651C3.01202 21.2651 0.733318 19.2262 0.733318 15.0322C0.726721 13.8287 0.988106 12.6389 1.49851 11.549C1.58345 11.3654 1.50354 11.1476 1.31995 11.0625Z" fill="url(#paint1_linear)"/>
<path d="M20.8989 9.16553H12.8327C12.2252 9.16553 11.7327 9.65799 11.7327 10.2655V20.8982C11.7327 21.5057 12.2252 21.9981 12.8327 21.9981H20.8989C21.5063 21.9981 21.9988 21.5057 21.9988 20.8982V10.2655C21.9988 9.65799 21.5063 9.16553 20.8989 9.16553ZM21.2655 20.8982C21.2655 21.1007 21.1014 21.2648 20.8989 21.2648H12.8327C12.6302 21.2648 12.466 21.1007 12.466 20.8982V10.2655C12.466 10.063 12.6302 9.89882 12.8327 9.89882H20.8989C21.1014 9.89882 21.2655 10.063 21.2655 10.2655V20.8982Z" fill="url(#paint2_linear)"/>
<path d="M14.2991 13.9322H19.4322C19.8372 13.9322 20.1655 13.6039 20.1655 13.1989V11.7323C20.1655 11.3273 19.8372 10.999 19.4322 10.999H14.2991C13.8942 10.999 13.5659 11.3273 13.5659 11.7323V13.1989C13.5659 13.6039 13.8942 13.9322 14.2991 13.9322ZM14.2991 11.7323H19.4322V13.1989H14.2991V11.7323Z" fill="url(#paint3_linear)"/>
<path d="M15.0324 15.0317H13.9325C13.73 15.0317 13.5659 15.1959 13.5659 15.3984C13.5659 15.6009 13.73 15.765 13.9325 15.765H15.0324C15.2349 15.765 15.3991 15.6009 15.3991 15.3984C15.3991 15.1959 15.2349 15.0317 15.0324 15.0317Z" fill="url(#paint4_linear)"/>
<path d="M15.0324 16.4985H13.9325C13.73 16.4985 13.5659 16.6627 13.5659 16.8652C13.5659 17.0677 13.73 17.2318 13.9325 17.2318H15.0324C15.2349 17.2318 15.3991 17.0677 15.3991 16.8652C15.3991 16.6627 15.2349 16.4985 15.0324 16.4985Z" fill="url(#paint5_linear)"/>
<path d="M15.0324 17.9653H13.9325C13.73 17.9653 13.5659 18.1295 13.5659 18.332C13.5659 18.5345 13.73 18.6986 13.9325 18.6986H15.0324C15.2349 18.6986 15.3991 18.5345 15.3991 18.332C15.3991 18.1295 15.2349 17.9653 15.0324 17.9653Z" fill="url(#paint6_linear)"/>
<path d="M15.0324 19.4321H13.9325C13.73 19.4321 13.5659 19.5963 13.5659 19.7988C13.5659 20.0013 13.73 20.1654 13.9325 20.1654H15.0324C15.2349 20.1654 15.3991 20.0013 15.3991 19.7988C15.3991 19.5963 15.2349 19.4321 15.0324 19.4321Z" fill="url(#paint7_linear)"/>
<path d="M17.599 15.0317H16.4991C16.2966 15.0317 16.1324 15.1959 16.1324 15.3984C16.1324 15.6009 16.2966 15.765 16.4991 15.765H17.599C17.8015 15.765 17.9657 15.6009 17.9657 15.3984C17.9657 15.1959 17.8015 15.0317 17.599 15.0317Z" fill="url(#paint8_linear)"/>
<path d="M17.599 16.4985H16.4991C16.2966 16.4985 16.1324 16.6627 16.1324 16.8652C16.1324 17.0677 16.2966 17.2318 16.4991 17.2318H17.599C17.8015 17.2318 17.9657 17.0677 17.9657 16.8652C17.9657 16.6627 17.8015 16.4985 17.599 16.4985Z" fill="url(#paint9_linear)"/>
<path d="M17.599 17.9653H16.4991C16.2966 17.9653 16.1324 18.1295 16.1324 18.332C16.1324 18.5345 16.2966 18.6986 16.4991 18.6986H17.599C17.8015 18.6986 17.9657 18.5345 17.9657 18.332C17.9657 18.1295 17.8015 17.9653 17.599 17.9653Z" fill="url(#paint10_linear)"/>
<path d="M17.599 19.4321H16.4991C16.2966 19.4321 16.1324 19.5963 16.1324 19.7988C16.1324 20.0013 16.2966 20.1654 16.4991 20.1654H17.599C17.8015 20.1654 17.9657 20.0013 17.9657 19.7988C17.9657 19.5963 17.8015 19.4321 17.599 19.4321Z" fill="url(#paint11_linear)"/>
<path d="M20.1656 15.0317H19.0656C18.8631 15.0317 18.699 15.1959 18.699 15.3984C18.699 15.6009 18.8631 15.765 19.0656 15.765H20.1656C20.3681 15.765 20.5322 15.6009 20.5322 15.3984C20.5322 15.1959 20.3681 15.0317 20.1656 15.0317Z" fill="url(#paint12_linear)"/>
<path d="M20.1656 16.4985H19.0656C18.8631 16.4985 18.699 16.6627 18.699 16.8652C18.699 17.0677 18.8631 17.2318 19.0656 17.2318H20.1656C20.3681 17.2318 20.5322 17.0677 20.5322 16.8652C20.5322 16.6627 20.3681 16.4985 20.1656 16.4985Z" fill="url(#paint13_linear)"/>
<path d="M20.1656 17.9653H19.0656C18.8631 17.9653 18.699 18.1295 18.699 18.332C18.699 18.5345 18.8631 18.6986 19.0656 18.6986H20.1656C20.3681 18.6986 20.5322 18.5345 20.5322 18.332C20.5322 18.1295 20.3681 17.9653 20.1656 17.9653Z" fill="url(#paint14_linear)"/>
<path d="M20.1656 19.4321H19.0656C18.8631 19.4321 18.699 19.5963 18.699 19.7988C18.699 20.0013 18.8631 20.1654 19.0656 20.1654H20.1656C20.3681 20.1654 20.5322 20.0013 20.5322 19.7988C20.5322 19.5963 20.3681 19.4321 20.1656 19.4321Z" fill="url(#paint15_linear)"/>
<path d="M2.31897 0.46276C1.35359 1.34711 3.04969 4.07495 4.04917 5.49937H3.84971C3.50912 5.49813 3.18215 5.63304 2.94153 5.87408C2.70173 6.11572 2.56694 6.4422 2.56645 6.78263C2.56803 7.23951 2.81316 7.66087 3.20955 7.88807C2.78157 8.34074 2.37841 8.81625 2.00182 9.31249C1.88032 9.47448 1.91315 9.7043 2.07515 9.82579C2.23714 9.94729 2.46695 9.91446 2.58845 9.75246C3.04133 9.15997 3.53117 8.59666 4.05503 8.06589H11.5493C12.0077 8.06589 12.4314 7.8213 12.6606 7.42426C12.8898 7.02722 12.8898 6.53804 12.6606 6.141C12.4314 5.74396 12.0077 5.49937 11.5493 5.49937H11.3498C12.3489 4.07495 14.045 1.34748 13.0804 0.46276C12.6367 0.0565166 12.1198 0.352766 11.664 0.611985C11.2496 0.895805 10.7671 1.06412 10.266 1.09962C9.86826 1.09878 9.48909 0.931207 9.22071 0.63765C8.81949 0.229736 8.27129 0 7.69913 0C7.12696 0 6.57876 0.229736 6.17755 0.63765C5.90873 0.931677 5.52879 1.0993 5.13041 1.09962C4.62963 1.06449 4.14734 0.896132 3.73349 0.611985C3.27811 0.352033 2.76151 0.0568832 2.31897 0.46276ZM11.939 6.39325C12.0968 6.55061 12.144 6.7876 12.0586 6.9934C11.9732 7.1992 11.7721 7.33315 11.5493 7.3326H3.84971C3.54597 7.3326 3.29974 7.08637 3.29974 6.78263C3.29974 6.47889 3.54597 6.23266 3.84971 6.23266H11.5493C11.6953 6.23271 11.8354 6.29043 11.939 6.39325ZM5.13041 1.83291C5.70279 1.83283 6.25116 1.60284 6.65235 1.19458C6.92013 0.900421 7.2995 0.732751 7.69729 0.732751C8.09508 0.732751 8.47445 0.900421 8.74223 1.19458C9.14396 1.60315 9.69302 1.83316 10.266 1.83291C10.8955 1.79984 11.5046 1.59797 12.0292 1.24848C12.1966 1.13033 12.386 1.04693 12.5861 1.0032C12.9623 1.34784 11.968 3.42636 10.4479 5.49937H9.53272V3.66614C9.53272 3.46365 9.36857 3.2995 9.16607 3.2995C8.96358 3.2995 8.79943 3.46365 8.79943 3.66614V5.49937H6.59956V3.66614C6.59956 3.46365 6.4354 3.2995 6.23291 3.2995C6.03042 3.2995 5.86626 3.46365 5.86626 3.66614V5.49937H4.95258C3.43247 3.42636 2.43813 1.34784 2.81944 0.997696C3.01546 1.05005 3.20134 1.13482 3.36941 1.24848C3.89326 1.59792 4.50157 1.79981 5.13041 1.83291Z" fill="url(#paint16_linear)"/>
<defs>
<linearGradient id="paint0_linear" x1="10.6328" y1="9.53271" x2="2.84261" y2="11.0921" gradientUnits="userSpaceOnUse">
<stop stop-color="#839BE7"/>
<stop offset="1" stop-color="#CED5FF"/>
</linearGradient>
<linearGradient id="paint1_linear" x1="11.0362" y1="11.0283" x2="-2.52288" y2="15.8062" gradientUnits="userSpaceOnUse">
<stop stop-color="#839BE7"/>
<stop offset="1" stop-color="#CED5FF"/>
</linearGradient>
<linearGradient id="paint2_linear" x1="21.9988" y1="9.16553" x2="8.8523" y2="12.8498" gradientUnits="userSpaceOnUse">
<stop stop-color="#839BE7"/>
<stop offset="1" stop-color="#CED5FF"/>
</linearGradient>
<linearGradient id="paint3_linear" x1="20.1655" y1="10.999" x2="14.5432" y2="15.4304" gradientUnits="userSpaceOnUse">
<stop stop-color="#839BE7"/>
<stop offset="1" stop-color="#CED5FF"/>
</linearGradient>
<linearGradient id="paint4_linear" x1="15.3991" y1="15.0317" x2="13.9662" y2="16.2867" gradientUnits="userSpaceOnUse">
<stop stop-color="#839BE7"/>
<stop offset="1" stop-color="#CED5FF"/>
</linearGradient>
<linearGradient id="paint5_linear" x1="15.3991" y1="16.4985" x2="13.9662" y2="17.7535" gradientUnits="userSpaceOnUse">
<stop stop-color="#839BE7"/>
<stop offset="1" stop-color="#CED5FF"/>
</linearGradient>
<linearGradient id="paint6_linear" x1="15.3991" y1="17.9653" x2="13.9662" y2="19.2203" gradientUnits="userSpaceOnUse">
<stop stop-color="#839BE7"/>
<stop offset="1" stop-color="#CED5FF"/>
</linearGradient>
<linearGradient id="paint7_linear" x1="15.3991" y1="19.4321" x2="13.9662" y2="20.6871" gradientUnits="userSpaceOnUse">
<stop stop-color="#839BE7"/>
<stop offset="1" stop-color="#CED5FF"/>
</linearGradient>
<linearGradient id="paint8_linear" x1="17.9657" y1="15.0317" x2="16.5328" y2="16.2867" gradientUnits="userSpaceOnUse">
<stop stop-color="#839BE7"/>
<stop offset="1" stop-color="#CED5FF"/>
</linearGradient>
<linearGradient id="paint9_linear" x1="17.9657" y1="16.4985" x2="16.5328" y2="17.7535" gradientUnits="userSpaceOnUse">
<stop stop-color="#839BE7"/>
<stop offset="1" stop-color="#CED5FF"/>
</linearGradient>
<linearGradient id="paint10_linear" x1="17.9657" y1="17.9653" x2="16.5328" y2="19.2203" gradientUnits="userSpaceOnUse">
<stop stop-color="#839BE7"/>
<stop offset="1" stop-color="#CED5FF"/>
</linearGradient>
<linearGradient id="paint11_linear" x1="17.9657" y1="19.4321" x2="16.5328" y2="20.6871" gradientUnits="userSpaceOnUse">
<stop stop-color="#839BE7"/>
<stop offset="1" stop-color="#CED5FF"/>
</linearGradient>
<linearGradient id="paint12_linear" x1="20.5322" y1="15.0317" x2="19.0993" y2="16.2867" gradientUnits="userSpaceOnUse">
<stop stop-color="#839BE7"/>
<stop offset="1" stop-color="#CED5FF"/>
</linearGradient>
<linearGradient id="paint13_linear" x1="20.5322" y1="16.4985" x2="19.0993" y2="17.7535" gradientUnits="userSpaceOnUse">
<stop stop-color="#839BE7"/>
<stop offset="1" stop-color="#CED5FF"/>
</linearGradient>
<linearGradient id="paint14_linear" x1="20.5322" y1="17.9653" x2="19.0993" y2="19.2203" gradientUnits="userSpaceOnUse">
<stop stop-color="#839BE7"/>
<stop offset="1" stop-color="#CED5FF"/>
</linearGradient>
<linearGradient id="paint15_linear" x1="20.5322" y1="19.4321" x2="19.0993" y2="20.6871" gradientUnits="userSpaceOnUse">
<stop stop-color="#839BE7"/>
<stop offset="1" stop-color="#CED5FF"/>
</linearGradient>
<linearGradient id="paint16_linear" x1="13.3672" y1="-8.74203e-07" x2="-0.20718" y2="5.49479" gradientUnits="userSpaceOnUse">
<stop stop-color="#839BE7"/>
<stop offset="1" stop-color="#CED5FF"/>
</linearGradient>
</defs>
</svg>
