<svg width="247" height="24" viewBox="0 0 247 24" fill="none" xmlns="http://www.w3.org/2000/svg">
<path d="M6.72 5.96H0V2H18.3V5.96H11.58V23H6.72V5.96Z" fill="white"/>
<path d="M30.3949 6.62C32.3949 6.62 34.0049 7.22 35.2249 8.42C36.4649 9.62 37.0849 11.4 37.0849 13.76V23H32.4049V14.48C32.4049 13.2 32.1249 12.25 31.5649 11.63C31.0049 10.99 30.1949 10.67 29.1349 10.67C27.9549 10.67 27.0149 11.04 26.3149 11.78C25.6149 12.5 25.2649 13.58 25.2649 15.02V23H20.5849V0.740001H25.2649V8.54C25.8849 7.92 26.6349 7.45 27.5149 7.13C28.3949 6.79 29.3549 6.62 30.3949 6.62Z" fill="white"/>
<path d="M57.3129 14.99C57.3129 15.05 57.2829 15.47 57.2229 16.25H45.0129C45.2329 17.25 45.7529 18.04 46.5729 18.62C47.3929 19.2 48.4129 19.49 49.6329 19.49C50.4729 19.49 51.2129 19.37 51.8529 19.13C52.5129 18.87 53.1229 18.47 53.6829 17.93L56.1729 20.63C54.6529 22.37 52.4329 23.24 49.5129 23.24C47.6929 23.24 46.0829 22.89 44.6829 22.19C43.2829 21.47 42.2029 20.48 41.4429 19.22C40.6829 17.96 40.3029 16.53 40.3029 14.93C40.3029 13.35 40.6729 11.93 41.4129 10.67C42.1729 9.39 43.2029 8.4 44.5029 7.7C45.8229 6.98 47.2929 6.62 48.9129 6.62C50.4929 6.62 51.9229 6.96 53.2029 7.64C54.4829 8.32 55.4829 9.3 56.2029 10.58C56.9429 11.84 57.3129 13.31 57.3129 14.99ZM48.9429 10.16C47.8829 10.16 46.9929 10.46 46.2729 11.06C45.5529 11.66 45.1129 12.48 44.9529 13.52H52.9029C52.7429 12.5 52.3029 11.69 51.5829 11.09C50.8629 10.47 49.9829 10.16 48.9429 10.16Z" fill="white"/>
<path d="M78.3448 2C80.2048 2 81.8148 2.31 83.1748 2.93C84.5548 3.55 85.6148 4.43 86.3548 5.57C87.0948 6.71 87.4648 8.06 87.4648 9.62C87.4648 11.16 87.0948 12.51 86.3548 13.67C85.6148 14.81 84.5548 15.69 83.1748 16.31C81.8148 16.91 80.2048 17.21 78.3448 17.21H74.1148V23H69.2548V2H78.3448ZM78.0748 13.25C79.5348 13.25 80.6448 12.94 81.4048 12.32C82.1648 11.68 82.5448 10.78 82.5448 9.62C82.5448 8.44 82.1648 7.54 81.4048 6.92C80.6448 6.28 79.5348 5.96 78.0748 5.96H74.1148V13.25H78.0748Z" fill="white"/>
<path d="M106.385 14.99C106.385 15.05 106.355 15.47 106.295 16.25H94.0852C94.3052 17.25 94.8252 18.04 95.6452 18.62C96.4652 19.2 97.4852 19.49 98.7052 19.49C99.5452 19.49 100.285 19.37 100.925 19.13C101.585 18.87 102.195 18.47 102.755 17.93L105.245 20.63C103.725 22.37 101.505 23.24 98.5852 23.24C96.7652 23.24 95.1552 22.89 93.7551 22.19C92.3551 21.47 91.2752 20.48 90.5152 19.22C89.7551 17.96 89.3752 16.53 89.3752 14.93C89.3752 13.35 89.7452 11.93 90.4852 10.67C91.2452 9.39 92.2752 8.4 93.5752 7.7C94.8952 6.98 96.3652 6.62 97.9852 6.62C99.5652 6.62 100.995 6.96 102.275 7.64C103.555 8.32 104.555 9.3 105.275 10.58C106.015 11.84 106.385 13.31 106.385 14.99ZM98.0152 10.16C96.9552 10.16 96.0652 10.46 95.3452 11.06C94.6252 11.66 94.1852 12.48 94.0252 13.52H101.975C101.815 12.5 101.375 11.69 100.655 11.09C99.9352 10.47 99.0552 10.16 98.0152 10.16Z" fill="white"/>
<path d="M113.971 8.99C114.531 8.21 115.281 7.62 116.221 7.22C117.181 6.82 118.281 6.62 119.521 6.62V10.94C119.001 10.9 118.651 10.88 118.471 10.88C117.131 10.88 116.081 11.26 115.321 12.02C114.561 12.76 114.181 13.88 114.181 15.38V23H109.501V6.86H113.971V8.99Z" fill="white"/>
<path d="M127.551 7.22H131.691V10.82H127.671V23H122.991V10.82H120.501V7.22H122.991V6.5C122.991 4.66 123.531 3.2 124.611 2.12C125.711 1.04 127.251 0.5 129.231 0.5C129.931 0.5 130.591 0.58 131.211 0.740001C131.851 0.880001 132.381 1.09 132.801 1.37L131.571 4.76C131.031 4.38 130.401 4.19 129.681 4.19C128.261 4.19 127.551 4.97 127.551 6.53V7.22Z" fill="white"/>
<path d="M149.627 14.99C149.627 15.05 149.597 15.47 149.537 16.25H137.327C137.547 17.25 138.067 18.04 138.887 18.62C139.707 19.2 140.727 19.49 141.947 19.49C142.787 19.49 143.527 19.37 144.167 19.13C144.827 18.87 145.437 18.47 145.997 17.93L148.487 20.63C146.967 22.37 144.747 23.24 141.827 23.24C140.007 23.24 138.397 22.89 136.997 22.19C135.597 21.47 134.517 20.48 133.757 19.22C132.997 17.96 132.617 16.53 132.617 14.93C132.617 13.35 132.987 11.93 133.727 10.67C134.487 9.39 135.517 8.4 136.817 7.7C138.137 6.98 139.607 6.62 141.227 6.62C142.807 6.62 144.237 6.96 145.517 7.64C146.797 8.32 147.797 9.3 148.517 10.58C149.257 11.84 149.627 13.31 149.627 14.99ZM141.257 10.16C140.197 10.16 139.307 10.46 138.587 11.06C137.867 11.66 137.427 12.48 137.267 13.52H145.217C145.057 12.5 144.617 11.69 143.897 11.09C143.177 10.47 142.297 10.16 141.257 10.16Z" fill="white"/>
<path d="M160.543 23.24C158.823 23.24 157.273 22.89 155.893 22.19C154.533 21.47 153.463 20.48 152.683 19.22C151.923 17.96 151.543 16.53 151.543 14.93C151.543 13.33 151.923 11.9 152.683 10.64C153.463 9.38 154.533 8.4 155.893 7.7C157.273 6.98 158.823 6.62 160.543 6.62C162.243 6.62 163.723 6.98 164.983 7.7C166.263 8.4 167.193 9.41 167.773 10.73L164.143 12.68C163.303 11.2 162.093 10.46 160.513 10.46C159.293 10.46 158.283 10.86 157.483 11.66C156.683 12.46 156.283 13.55 156.283 14.93C156.283 16.31 156.683 17.4 157.483 18.2C158.283 19 159.293 19.4 160.513 19.4C162.113 19.4 163.323 18.66 164.143 17.18L167.773 19.16C167.193 20.44 166.263 21.44 164.983 22.16C163.723 22.88 162.243 23.24 160.543 23.24Z" fill="white"/>
<path d="M181.112 22.22C180.652 22.56 180.082 22.82 179.402 23C178.742 23.16 178.042 23.24 177.302 23.24C175.382 23.24 173.892 22.75 172.832 21.77C171.792 20.79 171.272 19.35 171.272 17.45V10.82H168.782V7.22H171.272V3.29H175.952V7.22H179.972V10.82H175.952V17.39C175.952 18.07 176.122 18.6 176.462 18.98C176.822 19.34 177.322 19.52 177.962 19.52C178.702 19.52 179.332 19.32 179.852 18.92L181.112 22.22Z" fill="white"/>
<path d="M206.755 12.17H211.195V20.69C210.055 21.55 208.735 22.21 207.235 22.67C205.735 23.13 204.225 23.36 202.705 23.36C200.525 23.36 198.565 22.9 196.825 21.98C195.085 21.04 193.715 19.75 192.715 18.11C191.735 16.45 191.245 14.58 191.245 12.5C191.245 10.42 191.735 8.56 192.715 6.92C193.715 5.26 195.095 3.97 196.855 3.05C198.615 2.11 200.595 1.64 202.795 1.64C204.635 1.64 206.305 1.95 207.805 2.57C209.305 3.19 210.565 4.09 211.585 5.27L208.465 8.15C206.965 6.57 205.155 5.78 203.035 5.78C201.695 5.78 200.505 6.06 199.465 6.62C198.425 7.18 197.615 7.97 197.035 8.99C196.455 10.01 196.165 11.18 196.165 12.5C196.165 13.8 196.455 14.96 197.035 15.98C197.615 17 198.415 17.8 199.435 18.38C200.475 18.94 201.655 19.22 202.975 19.22C204.375 19.22 205.635 18.92 206.755 18.32V12.17Z" fill="white"/>
<path d="M215.38 6.86H220.06V23H215.38V6.86Z" fill="white"/>
<path d="M229.533 7.22H233.673V10.82H229.653V23H224.973V10.82H222.483V7.22H224.973V6.5C224.973 4.66 225.513 3.2 226.593 2.12C227.693 1.04 229.233 0.5 231.213 0.5C231.913 0.5 232.573 0.58 233.193 0.740001C233.833 0.880001 234.363 1.09 234.783 1.37L233.553 4.76C233.013 4.38 232.383 4.19 231.663 4.19C230.243 4.19 229.533 4.97 229.533 6.53V7.22Z" fill="white"/>
<path d="M246.415 22.22C245.955 22.56 245.385 22.82 244.705 23C244.045 23.16 243.345 23.24 242.605 23.24C240.685 23.24 239.195 22.75 238.135 21.77C237.095 20.79 236.575 19.35 236.575 17.45V10.82H234.085V7.22H236.575V3.29H241.255V7.22H245.275V10.82H241.255V17.39C241.255 18.07 241.425 18.6 241.765 18.98C242.125 19.34 242.625 19.52 243.265 19.52C244.005 19.52 244.635 19.32 245.155 18.92L246.415 22.22Z" fill="white"/>
</svg>
