<svg width="17" height="20" viewBox="0 0 17 20" fill="none" xmlns="http://www.w3.org/2000/svg">
<path d="M11.329 9.34627C12.4807 8.50628 13.2308 7.14686 13.2308 5.61538C13.2308 3.07046 11.1603 1 8.61537 1C6.07045 1 3.99999 3.07046 3.99999 5.61538C3.99999 7.14686 4.74998 8.50628 5.90177 9.34627C3.03864 10.4419 1 13.2179 1 16.4615C1 17.8613 2.13875 19 3.53846 19H13.6923C15.092 19 16.2307 17.8613 16.2307 16.4615C16.2307 13.2179 14.1921 10.4419 11.329 9.34627ZM5.38462 5.61538C5.38462 3.83395 6.83393 2.38463 8.61537 2.38463C10.3968 2.38463 11.8461 3.83395 11.8461 5.61538C11.8461 7.39682 10.3968 8.84617 8.61537 8.84617C6.83393 8.84617 5.38462 7.39682 5.38462 5.61538ZM13.6923 17.6154H3.53846C2.90223 17.6154 2.38463 17.0978 2.38463 16.4615C2.38463 13.0258 5.17969 10.2307 8.61541 10.2307C12.0511 10.2307 14.8462 13.0258 14.8462 16.4615C14.8461 17.0978 14.3285 17.6154 13.6923 17.6154Z" fill="white" stroke="#AFBDF5" stroke-width="0.5"/>
</svg>
