<svg width="22" height="20" viewBox="0 0 22 20" fill="none" xmlns="http://www.w3.org/2000/svg">
<path d="M10.5263 0C4.72213 0 2.829e-05 4.24982 2.829e-05 9.47368C2.829e-05 11.2996 0.577572 13.0684 1.67301 14.5979C1.46564 16.8916 0.909853 18.5944 0.102835 19.4011C-0.00383136 19.5077 -0.030498 19.6709 0.0368704 19.8056C0.0965195 19.926 0.219327 20 0.350905 20C0.367046 20 0.383186 19.9989 0.399677 19.9965C0.541783 19.9765 3.84284 19.5014 6.23055 18.1232C7.58634 18.6702 9.03055 18.9474 10.5263 18.9474C16.3306 18.9474 21.0527 14.6975 21.0527 9.47368C21.0527 4.24982 16.3306 0 10.5263 0ZM5.61406 10.8772C4.84003 10.8772 4.21055 10.2477 4.21055 9.47368C4.21055 8.69965 4.84003 8.07018 5.61406 8.07018C6.3881 8.07018 7.01757 8.69965 7.01757 9.47368C7.01757 10.2477 6.3881 10.8772 5.61406 10.8772ZM10.5263 10.8772C9.75231 10.8772 9.12284 10.2477 9.12284 9.47368C9.12284 8.69965 9.75231 8.07018 10.5263 8.07018C11.3004 8.07018 11.9299 8.69965 11.9299 9.47368C11.9299 10.2477 11.3004 10.8772 10.5263 10.8772ZM15.4386 10.8772C14.6646 10.8772 14.0351 10.2477 14.0351 9.47368C14.0351 8.69965 14.6646 8.07018 15.4386 8.07018C16.2127 8.07018 16.8421 8.69965 16.8421 9.47368C16.8421 10.2477 16.2127 10.8772 15.4386 10.8772Z" fill="white"/>
</svg>
