<svg width="23" height="22" viewBox="0 0 23 22" fill="none" xmlns="http://www.w3.org/2000/svg">
<path d="M22.4398 10.7339C22.8517 10.2808 22.812 9.58644 22.351 9.18332L12.1951 0.296881C11.7341 -0.10624 10.9951 -0.0977953 10.5438 0.315918L0.35343 9.65711C-0.0978395 10.0708 -0.119988 10.7643 0.304392 11.2054L0.559879 11.4715C0.983741 11.9126 1.66887 11.9652 2.08917 11.5886L2.85075 10.9066V20.8915C2.85075 21.5041 3.34713 22 3.95929 22H7.93153C8.54369 22 9.04008 21.5041 9.04008 20.8915V13.9061H14.1067V20.8915C14.0979 21.5036 14.5359 21.9996 15.1481 21.9996H19.3576C19.9698 21.9996 20.4662 21.5036 20.4662 20.891V11.0472C20.4662 11.0472 20.6766 11.2315 20.9361 11.4596C21.1951 11.6872 21.7392 11.5047 22.1511 11.0512L22.4398 10.7339Z" fill="#6092DC"/>
</svg>
