<svg width="18" height="18" viewBox="0 0 18 18" fill="none" xmlns="http://www.w3.org/2000/svg">
<path d="M17.5148 7.82913C17.5143 7.82872 17.5139 7.82817 17.5135 7.82776L10.1709 0.485458C9.85791 0.172348 9.4418 0 8.99919 0C8.55658 0 8.14047 0.172348 7.82736 0.485458L0.488635 7.82405C0.486163 7.82652 0.483554 7.82913 0.48122 7.8316C-0.161481 8.47801 -0.160382 9.52679 0.484378 10.1716C0.778949 10.4663 1.16787 10.6368 1.58383 10.6548C1.60086 10.6565 1.61789 10.6573 1.63506 10.6573H1.92757V16.0606C1.92757 17.13 2.79769 18 3.86707 18H6.73972C7.03099 18 7.26706 17.7638 7.26706 17.4727V13.2363C7.26706 12.7484 7.66408 12.3515 8.15201 12.3515H9.84638C10.3343 12.3515 10.7312 12.7484 10.7312 13.2363V17.4727C10.7312 17.7638 10.9673 18 11.2585 18H14.1312C15.2007 18 16.0707 17.13 16.0707 16.0606V10.6573H16.342C16.7845 10.6573 17.2006 10.4849 17.5139 10.1717C18.1593 9.52597 18.1596 8.47527 17.5148 7.82913ZM16.768 9.42599C16.6542 9.53984 16.5029 9.6026 16.342 9.6026H15.5433C15.2521 9.6026 15.016 9.83867 15.016 10.1299V16.0606C15.016 16.5484 14.6191 16.9453 14.1312 16.9453H11.7859V13.2363C11.7859 12.1669 10.9159 11.2968 9.84638 11.2968H8.15201C7.08249 11.2968 6.21237 12.1669 6.21237 13.2363V16.9453H3.86707C3.37928 16.9453 2.98226 16.5484 2.98226 16.0606V10.1299C2.98226 9.83867 2.74619 9.6026 2.45491 9.6026H1.66994C1.6617 9.60205 1.6536 9.60164 1.64522 9.6015C1.48812 9.59875 1.34076 9.53641 1.23035 9.42586C0.995517 9.19102 0.995517 8.80884 1.23035 8.57387C1.23049 8.57387 1.23049 8.57373 1.23062 8.57359L1.23104 8.57318L8.57334 1.23116C8.68704 1.11731 8.83824 1.05469 8.99919 1.05469C9.16001 1.05469 9.3112 1.11731 9.42505 1.23116L16.7657 8.57167C16.7668 8.57277 16.768 8.57387 16.7691 8.57497C17.0027 8.81021 17.0023 9.19157 16.768 9.42599Z" fill="white"/>
</svg>
