<svg width="29" height="10" viewBox="0 0 29 10" fill="none" xmlns="http://www.w3.org/2000/svg">
    <path d="M28.7084 6.23114C29.0972 5.99203 29.0972 5.21492 28.7084 4.9758C25.6953 2.94335 22.6335 1.09024 19.3288 0.0142325C18.8428 -0.105323 18.3568 0.552235 18.6484 1.09024C19.3288 2.2858 20.155 3.30202 21.1269 4.19869C14.3231 3.95958 7.27619 2.8238 0.569515 4.79647C0.0835226 4.91602 0.180719 5.93215 0.66679 5.87237C7.61646 4.79647 14.5175 5.63336 21.4672 5.75282C20.7382 6.76904 20.0092 7.78527 19.2803 8.74172C18.9401 9.16016 19.1345 10.0569 19.7176 9.99715C22.9251 9.51883 25.9383 8.20372 28.7084 6.23114ZM22.9251 5.57358C23.3625 5.21491 23.2653 4.19869 22.5849 4.19869C22.5363 4.19869 22.4877 4.19869 22.4877 4.19869C21.9045 3.48135 21.3213 2.8238 20.7381 2.04668C22.9737 3.00313 25.0635 4.19869 27.1532 5.57349C25.2579 6.76904 23.3139 7.66571 21.2241 8.14394C21.7101 7.48638 22.1961 6.76904 22.7307 6.11139C22.9251 5.99203 22.9737 5.75282 22.9251 5.57358Z" fill="url(#paint0_linear)" />
    <defs>
        <linearGradient id="paint0_linear" x1="29" y1="10" x2="27.3417" y2="-3.60946" gradientUnits="userSpaceOnUse">
            <stop stop-color="#839BE7" />
            <stop offset="1" stop-color="#CED5FF" />
        </linearGradient>
    </defs>
</svg>
